<svg version="1.1" viewBox="0.0 0.0 158.4435695538058 184.39107611548556" fill="none" stroke="none" stroke-linecap="square" stroke-miterlimit="10" xmlns:xlink="http://www.w3.org/1999/xlink" xmlns="http://www.w3.org/2000/svg"><clipPath id="p.0"><path d="m0 0l158.44357 0l0 184.39108l-158.44357 0l0 -184.39108z" clip-rule="nonzero"/></clipPath><g clip-path="url(#p.0)"><path fill="#000000" fill-opacity="0.0" d="m0 0l158.44357 0l0 184.39108l-158.44357 0z" fill-rule="evenodd"/><path fill="#4285f4" d="m-4.3569555E-5 3.6419842l0 0c0 -2.0114245 1.6305817 -3.6420062 3.6420064 -3.6420062l150.07031 0c0.9659271 0 1.892273 0.3837103 2.5752869 1.0667189c0.6830139 0.6830087 1.0667267 1.6093671 1.0667267 2.5752873l0 33.97583c0 2.011425 -1.6305847 3.642006 -3.6420135 3.642006l-150.07031 0c-2.0114245 0 -3.6420064 -1.6305809 -3.6420064 -3.642006z" fill-rule="evenodd"/><path fill="#ffffff" d="m36.21139 26.739899q-1.65625 0 -3.046875 -0.78125q-1.3749981 -0.796875 -2.171873 -2.15625q-0.78125 -1.375 -0.78125 -3.046875q0 -1.65625 0.78125 -3.015625q0.796875 -1.375 2.171873 -2.171875q1.390625 -0.796875 3.046875 -0.796875q2.59375 0 4.296875 1.875l-1.53125 1.46875q-1.09375 -1.28125 -2.75 -1.28125q-1.0625 0 -1.953125 0.484375q-0.875 0.484375 -1.390625 1.390625q-0.5 0.890625 -0.5 2.046875q0 1.171875 0.5 2.078125q0.515625 0.890625 1.390625 1.375q0.890625 0.484375 1.953125 0.484375q1.8125 0 3.03125 -1.5l1.53125 1.453125q-0.84375 1.03125 -2.015625 1.5625q-1.15625 0.53125 -2.5625 0.53125zm9.867523 0q-1.265625 0 -2.25 -0.5625q-0.984375 -0.5625 -1.546875 -1.546875q-0.546875 -0.984375 -0.546875 -2.21875q0 -1.21875 0.546875 -2.203125q0.5625 -1.0 1.546875 -1.5625q0.984375 -0.578125 2.25 -0.578125q1.25 0 2.234375 0.578125q1.0 0.5625 1.546875 1.5625q0.5625 0.984375 0.5625 2.203125q0 1.234375 -0.5625 2.21875q-0.546875 0.984375 -1.546875 1.546875q-0.984375 0.5625 -2.234375 0.5625zm0 -1.9375q0.609375 0 1.125 -0.28125q0.515625 -0.28125 0.8125 -0.828125q0.3125 -0.546875 0.3125 -1.28125q0 -0.71875 -0.3125 -1.265625q-0.296875 -0.546875 -0.8125 -0.828125q-0.515625 -0.296875 -1.125 -0.296875q-0.609375 0 -1.125 0.296875q-0.5 0.28125 -0.8125 0.828125q-0.3125 0.546875 -0.3125 1.265625q0 0.71875 0.3125 1.28125q0.3125 0.546875 0.8125 0.828125q0.515625 0.28125 1.125 0.28125zm5.789398 -6.46875l1.953125 0l0 1.015625l0.140625 0q0.375 -0.59375 1.015625 -0.9375q0.65625 -0.34375 1.453125 -0.34375q0.875 0 1.515625 0.421875q0.640625 0.40625 0.90625 1.03125q0.40625 -0.640625 1.09375 -1.046875q0.703125 -0.40625 1.640625 -0.40625q1.390625 0 2.109375 0.859375q0.7343788 0.859375 0.7343788 2.3125l0 5.25l-2.0781288 0l0 -4.859375q0 -0.765625 -0.359375 -1.1875q-0.359375 -0.421875 -1.0 -0.421875q-0.8125 0 -1.296875 0.65625q-0.484375 0.640625 -0.484375 1.703125l0 4.109375l-2.109375 0l0 -4.859375q0 -0.765625 -0.375 -1.1875q-0.375 -0.421875 -1.0625 -0.421875q-0.765625 0 -1.234375 0.65625q-0.46875 0.640625 -0.46875 1.703125l0 4.109375l-2.09375 0l0 -8.15625zm14.497913 0l1.96875 0l0 0.984375l0.140625 0q0.328125 -0.53125 0.96875 -0.890625q0.640625 -0.359375 1.46875 -0.359375q1.109375 0 2.015625 0.5625q0.90625 0.546875 1.40625 1.546875q0.515625 0.984375 0.515625 2.234375q0 1.265625 -0.515625 2.25q-0.5 0.984375 -1.40625 1.53125q-0.90625 0.546875 -2.015625 0.546875q-0.828125 0 -1.484375 -0.34375q-0.640625 -0.359375 -0.953125 -0.875l-0.140625 0l0.140625 1.140625l0 3.28125l-2.109375 0l0 -11.609375zm4.1875 6.46875q0.59375 0 1.09375 -0.296875q0.515625 -0.296875 0.8125 -0.84375q0.3125 -0.546875 0.3125 -1.25q0 -0.703125 -0.3125 -1.25q-0.296875 -0.546875 -0.8125 -0.84375q-0.5 -0.296875 -1.09375 -0.296875q-0.578125 0 -1.09375 0.296875q-0.515625 0.296875 -0.828125 0.84375q-0.296875 0.546875 -0.296875 1.25q0 0.703125 0.296875 1.25q0.3125 0.546875 0.828125 0.84375q0.515625 0.296875 1.09375 0.296875zm9.813263 1.9375q-1.265625 0 -2.25 -0.5625q-0.984375 -0.5625 -1.546875 -1.546875q-0.546875 -0.984375 -0.546875 -2.21875q0 -1.21875 0.546875 -2.203125q0.5625 -1.0 1.546875 -1.5625q0.984375 -0.578125 2.25 -0.578125q1.25 0 2.234375 0.578125q1.0 0.5625 1.546875 1.5625q0.5625 0.984375 0.5625 2.203125q0 1.234375 -0.5625 2.21875q-0.546875 0.984375 -1.546875 1.546875q-0.984375 0.5625 -2.234375 0.5625zm0 -1.9375q0.609375 0 1.125 -0.28125q0.515625 -0.28125 0.8125 -0.828125q0.3125 -0.546875 0.3125 -1.28125q0 -0.71875 -0.3125 -1.265625q-0.296875 -0.546875 -0.8125 -0.828125q-0.515625 -0.296875 -1.125 -0.296875q-0.609375 0 -1.125 0.296875q-0.5 0.28125 -0.8125 0.828125q-0.3125 0.546875 -0.3125 1.265625q0 0.71875 0.3125 1.28125q0.3125 0.546875 0.8125 0.828125q0.515625 0.28125 1.125 0.28125zm8.96315 1.9375q-1.484375 0 -2.40625 -0.59375q-0.921875 -0.609375 -1.28125 -1.59375l1.859375 -0.8125q0.265625 0.578125 0.734375 0.875q0.46875 0.296875 1.09375 0.296875q0.578125 0 0.953125 -0.1875q0.390625 -0.1875 0.390625 -0.609375q0 -0.390625 -0.359375 -0.59375q-0.34375 -0.203125 -1.046875 -0.359375l-0.953125 -0.203125q-1.0 -0.25 -1.65625 -0.875q-0.65625 -0.640625 -0.65625 -1.578125q0 -0.703125 0.421875 -1.265625q0.421875 -0.5625 1.15625 -0.859375q0.734375 -0.3125 1.609375 -0.3125q2.53125 0 3.375 1.78125l-1.796875 0.78125q-0.46875 -0.859375 -1.53125 -0.859375q-0.546875 0 -0.875 0.203125q-0.3125 0.203125 -0.3125 0.5q0 0.578125 1.09375 0.859375l1.203125 0.296875q1.21875 0.296875 1.828125 0.921875q0.609375 0.625 0.609375 1.53125q0 0.796875 -0.453125 1.390625q-0.453125 0.59375 -1.25 0.9375q-0.78125 0.328125 -1.75 0.328125zm6.0781403 -9.3125q-0.5625 0 -0.96875 -0.390625q-0.390625 -0.40625 -0.390625 -0.96875q0 -0.546875 0.390625 -0.9375q0.40625 -0.40625 0.96875 -0.40625q0.5625 0 0.953125 0.40625q0.390625 0.390625 0.390625 0.9375q0 0.5625 -0.390625 0.96875q-0.390625 0.390625 -0.953125 0.390625zm-1.046875 0.90625l2.09375 0l0 8.15625l-2.09375 0l0 -8.15625zm7.7418823 8.28125q-0.609375 0 -1.125 -0.171875q-0.515625 -0.1875 -0.828125 -0.515625q-0.75 -0.71875 -0.75 -2.046875l0 -3.765625l-1.421875 0l0 -1.78125l1.421875 0l0 -2.3125l2.09375 0l0 2.3125l2.0 0l0 1.78125l-2.0 0l0 3.390625q0 0.609375 0.265625 0.890625q0.234375 0.25 0.78125 0.25q0.296875 0 0.5 -0.078125q0.203125 -0.078125 0.515625 -0.265625l0 2.046875q-0.6875 0.265625 -1.453125 0.265625zm4.3930206 -9.1875q-0.5625 0 -0.96875 -0.390625q-0.390625 -0.40625 -0.390625 -0.96875q0 -0.546875 0.390625 -0.9375q0.40625 -0.40625 0.96875 -0.40625q0.5625 0 0.953125 0.40625q0.390625 0.390625 0.390625 0.9375q0 0.5625 -0.390625 0.96875q-0.390625 0.390625 -0.953125 0.390625zm-1.046875 0.90625l2.09375 0l0 8.15625l-2.09375 0l0 -8.15625zm8.085632 8.40625q-1.265625 0 -2.25 -0.5625q-0.984375 -0.5625 -1.546875 -1.546875q-0.546875 -0.984375 -0.546875 -2.21875q0 -1.21875 0.546875 -2.203125q0.5625 -1.0 1.546875 -1.5625q0.984375 -0.578125 2.25 -0.578125q1.25 0 2.234375 0.578125q1.0 0.5625 1.546875 1.5625q0.5625 0.984375 0.5625 2.203125q0 1.234375 -0.5625 2.21875q-0.546875 0.984375 -1.546875 1.546875q-0.984375 0.5625 -2.234375 0.5625zm0 -1.9375q0.609375 0 1.125 -0.28125q0.515625 -0.28125 0.8125 -0.828125q0.3125 -0.546875 0.3125 -1.28125q0 -0.71875 -0.3125 -1.265625q-0.296875 -0.546875 -0.8125 -0.828125q-0.515625 -0.296875 -1.125 -0.296875q-0.609375 0 -1.125 0.296875q-0.5 0.28125 -0.8125 0.828125q-0.3125 0.546875 -0.3125 1.265625q0 0.71875 0.3125 1.28125q0.3125 0.546875 0.8125 0.828125q0.515625 0.28125 1.125 0.28125zm5.789398 -6.46875l1.953125 0l0 1.015625l0.140625 0q0.359375 -0.59375 1.03125 -0.9375q0.671875 -0.34375 1.453125 -0.34375q1.484375 0 2.25 0.90625q0.765625 0.890625 0.765625 2.4375l0 5.078125l-2.09375 0l0 -4.8125q0 -0.78125 -0.40625 -1.21875q-0.390625 -0.4375 -1.109375 -0.4375q-0.859375 0 -1.375 0.65625q-0.515625 0.65625 -0.515625 1.65625l0 4.15625l-2.09375 0l0 -8.15625z" fill-rule="nonzero"/><path fill="#f86734" d="m-4.3569555E-5 74.660355l0 0c0 -2.0114212 1.6305817 -3.642006 3.6420064 -3.642006l150.07031 0c0.9659271 0 1.892273 0.38371277 2.5752869 1.066719c0.6830139 0.6830139 1.0667267 1.6093674 1.0667267 2.5752869l0 33.97583c0 2.0114288 -1.6305847 3.642006 -3.6420135 3.642006l-150.07031 0c-2.0114245 0 -3.6420064 -1.6305771 -3.6420064 -3.642006z" fill-rule="evenodd"/><path fill="#ffffff" d="m53.65357 86.055145l2.15625 0l0 9.40625l4.84375 0l0 2.046875l-7.0 0l0 -11.453125zm11.019154 11.703125q-1.2968788 0 -2.1250038 -0.75q-0.828125 -0.765625 -0.828125 -2.0q0 -0.8125 0.421875 -1.4375q0.4375 -0.625 1.1875 -0.953125q0.7500038 -0.34375 1.6718788 -0.34375q1.265625 0 2.15625 0.375l0 -0.359375q0 -0.671875 -0.515625 -1.078125q-0.5 -0.421875 -1.34375 -0.421875q-0.578125 0 -1.109375 0.265625q-0.5312538 0.265625 -0.8906288 0.6875l-1.34375 -1.046875q0.59375 -0.765625 1.484375 -1.1875q0.9062538 -0.421875 1.9531288 -0.421875q1.875 0 2.84375 0.875q0.984375 0.859375 0.984375 2.515625l0 5.03125l-2.0625 0l0 -0.828125l-0.125 0q-0.375 0.46875 -0.984375 0.78125q-0.59375 0.296875 -1.375 0.296875zm0.5 -1.625q0.90625 0 1.4375 -0.578125q0.546875 -0.59375 0.546875 -1.375q-0.8125 -0.390625 -1.71875 -0.390625q-1.6250038 0 -1.6250038 1.21875q0 0.5 0.3437538 0.8125q0.359375 0.3125 1.015625 0.3125zm8.3628845 0.984375l-3.4375 -7.765625l2.390625 0l2.109375 5.0625l0.125 0l2.03125 -5.0625l2.34375 0l-5.046875 11.609375l-2.25 0l1.734375 -3.84375zm10.287384 0.640625q-1.265625 0 -2.25 -0.5625q-0.984375 -0.5625 -1.546875 -1.546875q-0.546875 -0.984375 -0.546875 -2.21875q0 -1.21875 0.546875 -2.203125q0.5625 -1.0 1.546875 -1.5625q0.984375 -0.578125 2.25 -0.578125q1.25 0 2.234375 0.578125q1.0 0.5625 1.546875 1.5625q0.5625 0.984375 0.5625 2.203125q0 1.234375 -0.5625 2.21875q-0.546875 0.984375 -1.546875 1.546875q-0.984375 0.5625 -2.234375 0.5625zm0 -1.9375q0.609375 0 1.125 -0.28125q0.515625 -0.28125 0.8125 -0.828125q0.3125 -0.546875 0.3125 -1.28125q0 -0.71875 -0.3125 -1.265625q-0.296875 -0.546875 -0.8125 -0.828125q-0.515625 -0.296875 -1.125 -0.296875q-0.609375 0 -1.125 0.296875q-0.5 0.28125 -0.8125 0.828125q-0.3125 0.546875 -0.3125 1.265625q0 0.71875 0.3125 1.28125q0.3125 0.546875 0.8125 0.828125q0.515625 0.28125 1.125 0.28125zm8.8069 1.9375q-1.46875 0 -2.25 -0.90625q-0.765625 -0.90625 -0.765625 -2.546875l0 -4.953125l2.109375 0l0 4.703125q0 0.828125 0.390625 1.296875q0.40625 0.46875 1.0625 0.46875q0.890625 0 1.421875 -0.640625q0.53125 -0.65625 0.53125 -1.671875l0 -4.15625l2.09375 0l0 8.15625l-1.96875 0l0 -1.03125l-0.125 0q-0.375 0.59375 -1.046875 0.9375q-0.65625 0.34375 -1.453125 0.34375zm10.273392 -0.125q-0.609375 0 -1.125 -0.171875q-0.515625 -0.1875 -0.828125 -0.515625q-0.75 -0.71875 -0.75 -2.046875l0 -3.765625l-1.421875 0l0 -1.78125l1.421875 0l0 -2.3125l2.09375 0l0 2.3125l2.0 0l0 1.78125l-2.0 0l0 3.390625q0 0.609375 0.265625 0.890625q0.234375 0.25 0.78125 0.25q0.296875 0 0.5 -0.078125q0.203125 -0.078125 0.515625 -0.265625l0 2.046875q-0.6875 0.265625 -1.453125 0.265625z" fill-rule="nonzero"/><path fill="#073042" d="m-4.3569555E-5 145.67873l0 0c0 -2.0114136 1.6305817 -3.6419983 3.6420064 -3.6419983l150.07031 0c0.9659271 0 1.892273 0.38371277 2.5752869 1.0667114c0.6830139 0.6830139 1.0667267 1.609375 1.0667267 2.5752869l0 33.97583c0 2.0114288 -1.6305847 3.6420135 -3.6420135 3.6420135l-150.07031 0c-2.0114245 0 -3.6420064 -1.6305847 -3.6420064 -3.6420135z" fill-rule="evenodd"/><path fill="#ffffff" d="m47.941555 157.07352l3.875 0q1.78125 0 3.109375 0.71875q1.328125 0.71875 2.046875 2.015625q0.734375 1.296875 0.734375 2.984375q0 1.703125 -0.734375 3.0q-0.71875 1.296875 -2.046875 2.015625q-1.328125 0.71875 -3.109375 0.71875l-3.875 0l0 -11.453125zm3.78125 9.40625q1.84375 0 2.8125 -0.984375q0.984375 -0.984375 0.984375 -2.703125q0 -1.703125 -0.984375 -2.6875q-0.96875 -0.984375 -2.8125 -0.984375l-1.625 0l0 7.359375l1.625 0zm7.425522 -6.109375l1.953125 0l0 1.078125l0.140625 0q0.296875 -0.5625 0.9375 -0.9375q0.640625 -0.390625 1.40625 -0.390625q0.5625038 0 1.0312538 0.1875l0 2.09375q-0.4375 -0.15625 -0.7343788 -0.234375q-0.296875 -0.078125 -0.625 -0.078125q-0.9375 0 -1.484375 0.671875q-0.53125 0.671875 -0.53125 1.703125l0 4.0625l-2.09375 0l0 -8.15625zm9.060398 8.40625q-1.296875 0 -2.125 -0.75q-0.828125 -0.765625 -0.828125 -2.0q0 -0.8125 0.421875 -1.4375q0.4375 -0.625 1.1875 -0.953125q0.75 -0.34375 1.671875 -0.34375q1.265625 0 2.15625 0.375l0 -0.359375q0 -0.671875 -0.515625 -1.078125q-0.5 -0.421875 -1.34375 -0.421875q-0.578125 0 -1.109375 0.265625q-0.53125 0.265625 -0.890625 0.6875l-1.34375 -1.046875q0.59375 -0.765625 1.484375 -1.1875q0.90625 -0.421875 1.953125 -0.421875q1.875 0 2.84375 0.875q0.984375 0.859375 0.984375 2.515625l0 5.03125l-2.0625 0l0 -0.828125l-0.125 0q-0.375 0.46875 -0.984375 0.78125q-0.59375 0.296875 -1.375 0.296875zm0.5 -1.625q0.90625 0 1.4375 -0.578125q0.546875 -0.59375 0.546875 -1.375q-0.8125 -0.390625 -1.71875 -0.390625q-1.625 0 -1.625 1.21875q0 0.5 0.34375 0.8125q0.359375 0.3125 1.015625 0.3125zm4.9097595 -6.78125l2.359375 0l1.40625 5.296875l0.109375 0l1.625 -5.296875l2.15625 0l1.625 5.296875l0.109375 0l1.40625 -5.296875l2.328125 0l-2.609375 8.15625l-2.25 0l-1.671875 -5.28125l-0.109375 0l-1.65625 5.28125l-2.234375 0l-2.59375 -8.15625zm15.421783 -0.90625q-0.5625 0 -0.96875 -0.390625q-0.390625 -0.40625 -0.390625 -0.96875q0 -0.546875 0.390625 -0.9375q0.40625 -0.40625 0.96875 -0.40625q0.5625 0 0.953125 0.40625q0.390625 0.390625 0.390625 0.9375q0 0.5625 -0.390625 0.96875q-0.390625 0.390625 -0.953125 0.390625zm-1.046875 0.90625l2.09375 0l0 8.15625l-2.09375 0l0 -8.15625zm4.275009 0l1.953125 0l0 1.015625l0.140625 0q0.359375 -0.59375 1.03125 -0.9375q0.671875 -0.34375 1.453125 -0.34375q1.484375 0 2.25 0.90625q0.765625 0.890625 0.765625 2.4375l0 5.078125l-2.09375 0l0 -4.8125q0 -0.78125 -0.40625 -1.21875q-0.390625 -0.4375 -1.109375 -0.4375q-0.859375 0 -1.375 0.65625q-0.515625 0.65625 -0.515625 1.65625l0 4.15625l-2.09375 0l0 -8.15625zm13.254013 11.875q-1.546875 0 -2.578125 -0.703125q-1.015625 -0.703125 -1.375 -1.671875l1.96875 -0.796875q0.265625 0.609375 0.78125 0.953125q0.53125 0.359375 1.203125 0.359375q1.0 0 1.578125 -0.609375q0.578125 -0.609375 0.578125 -1.734375l0 -0.640625l-0.125 0q-0.375 0.546875 -1.0 0.84375q-0.625 0.28125 -1.421875 0.28125q-1.015625 0 -1.890625 -0.515625q-0.875 -0.53125 -1.40625 -1.46875q-0.515625 -0.953125 -0.515625 -2.21875q0 -1.265625 0.515625 -2.21875q0.53125 -0.953125 1.40625 -1.46875q0.875 -0.53125 1.890625 -0.53125q0.796875 0 1.421875 0.296875q0.625 0.28125 1.0 0.828125l0.125 0l0 -0.859375l2.015625 0l0 7.59375q0 1.3125 -0.515625 2.265625q-0.5 0.96875 -1.453125 1.484375q-0.9375 0.53125 -2.203125 0.53125zm0.03125 -5.625q0.890625 0 1.5 -0.609375q0.625 -0.625 0.625 -1.6875q0 -1.109375 -0.609375 -1.703125q-0.609375 -0.609375 -1.515625 -0.609375q-0.890625 0 -1.515625 0.609375q-0.625 0.609375 -0.625 1.703125q0 1.078125 0.625 1.6875q0.625 0.609375 1.515625 0.609375z" fill-rule="nonzero"/><path fill="#000000" fill-opacity="0.0" d="m78.677124 41.25982l0 29.763779" fill-rule="evenodd"/><path stroke="#4285f4" stroke-width="2.0" stroke-miterlimit="400.0" stroke-linecap="butt" d="m78.677124 41.25982l0 17.763783" fill-rule="evenodd"/><path fill="#4285f4" stroke="#4285f4" stroke-width="2.0" stroke-linecap="butt" d="m75.37366 59.0236l3.3034668 9.076199l3.3034668 -9.076199z" fill-rule="evenodd"/><path fill="#000000" fill-opacity="0.0" d="m78.677124 112.27819l0 29.763786" fill-rule="evenodd"/><path stroke="#f86734" stroke-width="2.0" stroke-miterlimit="400.0" stroke-linecap="butt" d="m78.677124 112.2782l0 17.763779" fill-rule="evenodd"/><path fill="#f86734" stroke="#f86734" stroke-width="2.0" stroke-linecap="butt" d="m75.37366 130.04198l3.3034668 9.076187l3.3034668 -9.076187z" fill-rule="evenodd"/></g></svg>