<svg version="1.1" viewBox="0.0 0.0 1503.2283464566929 583.3438320209974" fill="none" stroke="none" stroke-linecap="square" stroke-miterlimit="10" xmlns:xlink="http://www.w3.org/1999/xlink" xmlns="http://www.w3.org/2000/svg"><clipPath id="p.0"><path d="m0 0l1503.2284 0l0 583.3438l-1503.2284 0l0 -583.3438z" clip-rule="nonzero"/></clipPath><g clip-path="url(#p.0)"><path fill="#000000" fill-opacity="0.0" d="m0 0l1503.2284 0l0 583.3438l-1503.2284 0z" fill-rule="evenodd"/><path fill="#cfe2f3" d="m217.63255 0l245.41731 0l0 110.33071l-245.41731 0z" fill-rule="evenodd"/><path stroke="#000000" stroke-width="1.0" stroke-linejoin="round" stroke-linecap="butt" d="m217.63255 0l245.41731 0l0 110.33071l-245.41731 0z" fill-rule="evenodd"/><path fill="#000000" d="m238.92444 16.924728l3.390625 0l0 28.640625l-3.390625 0l0 -28.640625zm9.799988 0l4.15625 0l14.359375 22.796875l0.15625 0l-0.15625 -5.515625l0 -17.28125l3.40625 0l0 28.640625l-3.53125 0l-15.0 -23.875l-0.15625 0l0.15625 5.515625l0 18.359375l-3.390625 0l0 -28.640625zm28.319977 0l3.390625 0l0 28.640625l-3.390625 0l0 -28.640625zm15.674988 3.234375l-8.03125 0l0 -3.234375l19.4375 0l0 3.234375l-8.0 0l0 25.40625l-3.40625 0l0 -25.40625zm15.644989 -3.234375l3.390625 0l0 28.640625l-3.390625 0l0 -28.640625zm18.081238 0l3.828125 0l10.890625 28.640625l-3.71875 0l-2.890625 -7.875l-12.390625 0l-2.890625 7.875l-3.71875 0l10.890625 -28.640625zm6.953125 17.5625l-3.84375 -10.328125l-1.109375 -3.078125l-0.171875 0l-1.109375 3.078125l-3.84375 10.328125l10.078125 0zm11.565582 -17.5625l3.390625 0l0 25.40625l12.53125 0l0 3.234375l-15.921875 0l0 -28.640625zm20.359985 0l3.390625 0l0 28.640625l-3.390625 0l0 -28.640625zm8.112488 25.078125l15.4375 -21.84375l-14.796875 0l0 -3.234375l18.71875 0l0 3.5625l-15.4375 21.84375l15.609375 0l0 3.234375l-19.53125 0l0 -3.5625zm24.567474 -25.078125l16.5625 0l0 3.234375l-13.171875 0l0 9.484375l11.890625 0l0 3.203125l-11.890625 0l0 9.484375l13.171875 0l0 3.234375l-16.5625 0l0 -28.640625zm22.039978 0l8.640625 0q4.390625 0 7.671875 1.828125q3.28125 1.8125 5.03125 5.0625q1.765625 3.234375 1.765625 7.4375q0 4.1875 -1.765625 7.4375q-1.75 3.234375 -5.03125 5.0625q-3.28125 1.8125 -7.671875 1.8125l-8.640625 0l0 -28.640625zm8.640625 25.40625q5.078125 0 8.046875 -2.921875q2.984375 -2.921875 2.984375 -8.15625q0 -5.25 -2.984375 -8.171875q-2.96875 -2.921875 -8.046875 -2.921875l-5.25 0l0 22.171875l5.25 0z" fill-rule="nonzero"/><path fill="#000000" d="m240.54195 99.00285q-2.921875 -3.359375 -5.03125 -8.140625q-2.09375 -4.78125 -2.09375 -10.171875q0 -5.40625 2.09375 -10.1875q2.109375 -4.78125 5.03125 -8.140625l2.484375 1.765625q-2.71875 3.234375 -4.484375 7.625q-1.765625 4.375 -1.765625 8.9375q0 4.5625 1.765625 8.9375q1.765625 4.375 4.484375 7.625l-2.484375 1.75zm7.794983 -29.59375q-1.0 0 -1.71875 -0.71875q-0.71875 -0.71875 -0.71875 -1.71875q0 -1.046875 0.71875 -1.75q0.71875 -0.703125 1.71875 -0.703125q1.046875 0 1.734375 0.703125q0.703125 0.703125 0.703125 1.75q0 1.0 -0.703125 1.71875q-0.6875 0.71875 -1.734375 0.71875zm-1.671875 3.75l3.390625 0l0 20.40625l-3.390625 0l0 -20.40625zm8.711868 0l3.25 0l0 3.0l0.15625 0q0.84375 -1.515625 2.671875 -2.578125q1.84375 -1.0625 3.921875 -1.0625q3.6875 0 5.625 2.140625q1.9375 2.140625 1.9375 5.828125l0 13.078125l-3.390625 0l0 -12.5625q0 -2.84375 -1.375 -4.109375q-1.359375 -1.28125 -3.71875 -1.28125q-1.640625 0 -2.9375 0.921875q-1.296875 0.90625 -2.015625 2.40625q-0.71875 1.5 -0.71875 3.140625l0 11.484375l-3.40625 0l0 -20.40625zm24.439972 -3.75q-1.0 0 -1.71875 -0.71875q-0.71875 -0.71875 -0.71875 -1.71875q0 -1.046875 0.71875 -1.75q0.71875 -0.703125 1.71875 -0.703125q1.046875 0 1.734375 0.703125q0.703125 0.703125 0.703125 1.75q0 1.0 -0.703125 1.71875q-0.6875 0.71875 -1.734375 0.71875zm-1.671875 3.75l3.390625 0l0 20.40625l-3.390625 0l0 -20.40625zm16.355621 20.71875q-1.234375 0 -2.296875 -0.390625q-1.0625 -0.40625 -1.78125 -1.078125q-1.59375 -1.53125 -1.59375 -4.203125l0 -11.953125l-3.5625 0l0 -3.09375l3.5625 0l0 -5.75l3.390625 0l0 5.75l5.0 0l0 3.09375l-5.0 0l0 11.109375q0 1.6875 0.640625 2.484375q0.765625 0.875 2.203125 0.875q1.234375 0 2.234375 -0.671875l0 3.3125q-0.59375 0.28125 -1.21875 0.390625q-0.625 0.125 -1.578125 0.125zm8.996246 -24.46875q-1.0 0 -1.71875 -0.71875q-0.71875 -0.71875 -0.71875 -1.71875q0 -1.046875 0.71875 -1.75q0.71875 -0.703125 1.71875 -0.703125q1.046875 0 1.734375 0.703125q0.703125 0.703125 0.703125 1.75q0 1.0 -0.703125 1.71875q-0.6875 0.71875 -1.734375 0.71875zm-1.671875 3.75l3.390625 0l0 20.40625l-3.390625 0l0 -20.40625zm15.043121 21.046875q-2.25 0 -4.015625 -0.875q-1.75 -0.890625 -2.71875 -2.421875q-0.953125 -1.546875 -0.953125 -3.5q0 -3.25 2.4375 -5.0625q2.4375 -1.828125 6.15625 -1.828125q1.84375 0 3.421875 0.40625q1.578125 0.40625 2.421875 0.921875l0 -1.234375q0 -2.28125 -1.609375 -3.65625q-1.59375 -1.390625 -4.03125 -1.390625q-1.671875 0 -3.140625 0.75q-1.453125 0.734375 -2.296875 2.046875l-2.5625 -1.921875q1.203125 -1.828125 3.3125 -2.875q2.125 -1.046875 4.6875 -1.046875q4.15625 0 6.515625 2.1875q2.375 2.171875 2.375 5.9375l0 12.921875l-3.25 0l0 -2.921875l-0.15625 0q-0.875 1.484375 -2.640625 2.53125q-1.765625 1.03125 -3.953125 1.03125zm0.3125 -3.0q1.71875 0 3.203125 -0.875q1.484375 -0.890625 2.359375 -2.359375q0.875 -1.484375 0.875 -3.25q-0.953125 -0.640625 -2.359375 -1.03125q-1.390625 -0.40625 -2.953125 -0.40625q-2.796875 0 -4.21875 1.171875q-1.421875 1.15625 -1.421875 2.984375q0 1.6875 1.28125 2.734375q1.28125 1.03125 3.234375 1.03125zm14.39621 -26.28125l3.40625 0l0 28.640625l-3.40625 0l0 -28.640625zm5.9243774 28.640625l0 0zm18.920593 0.640625q-3.28125 0 -5.484375 -1.53125q-2.203125 -1.546875 -3.109375 -3.953125l3.03125 -1.359375q0.765625 1.84375 2.265625 2.84375q1.5 1.0 3.296875 1.0q1.921875 0 3.28125 -0.78125q1.359375 -0.78125 1.359375 -2.21875q0 -1.28125 -1.078125 -2.0625q-1.078125 -0.78125 -3.40625 -1.34375l-2.484375 -0.640625q-2.4375 -0.59375 -4.0 -2.03125q-1.546875 -1.4375 -1.546875 -3.71875q0 -1.765625 1.046875 -3.09375q1.0625 -1.34375 2.828125 -2.0625q1.765625 -0.734375 3.796875 -0.734375q2.6875 0 4.78125 1.171875q2.09375 1.15625 2.984375 3.234375l-2.96875 1.359375q-1.359375 -2.71875 -4.828125 -2.71875q-1.6875 0 -2.953125 0.78125q-1.25 0.78125 -1.25 1.984375q0 1.109375 0.875 1.8125q0.875 0.703125 2.640625 1.140625l2.96875 0.765625q3.0 0.75 4.515625 2.25q1.515625 1.5 1.515625 3.671875q0 1.875 -1.078125 3.296875q-1.078125 1.421875 -2.921875 2.1875q-1.84375 0.75 -4.078125 0.75zm19.438751 -0.328125q-1.234375 0 -2.296875 -0.390625q-1.0625 -0.40625 -1.78125 -1.078125q-1.59375 -1.53125 -1.59375 -4.203125l0 -11.953125l-3.5625 0l0 -3.09375l3.5625 0l0 -5.75l3.390625 0l0 5.75l5.0 0l0 3.09375l-5.0 0l0 11.109375q0 1.6875 0.640625 2.484375q0.765625 0.875 2.203125 0.875q1.234375 0 2.234375 -0.671875l0 3.3125q-0.59375 0.28125 -1.21875 0.390625q-0.625 0.125 -1.578125 0.125zm12.92749 0.328125q-2.25 0 -4.015625 -0.875q-1.75 -0.890625 -2.71875 -2.421875q-0.953125 -1.546875 -0.953125 -3.5q0 -3.25 2.4375 -5.0625q2.4375 -1.828125 6.15625 -1.828125q1.84375 0 3.421875 0.40625q1.578125 0.40625 2.421875 0.921875l0 -1.234375q0 -2.28125 -1.609375 -3.65625q-1.59375 -1.390625 -4.03125 -1.390625q-1.671875 0 -3.140625 0.75q-1.453125 0.734375 -2.296875 2.046875l-2.5625 -1.921875q1.203125 -1.828125 3.3125 -2.875q2.125 -1.046875 4.6875 -1.046875q4.15625 0 6.515625 2.1875q2.375 2.171875 2.375 5.9375l0 12.921875l-3.25 0l0 -2.921875l-0.15625 0q-0.875 1.484375 -2.640625 2.53125q-1.765625 1.03125 -3.953125 1.03125zm0.3125 -3.0q1.71875 0 3.203125 -0.875q1.484375 -0.890625 2.359375 -2.359375q0.875 -1.484375 0.875 -3.25q-0.953125 -0.640625 -2.359375 -1.03125q-1.390625 -0.40625 -2.953125 -0.40625q-2.796875 0 -4.21875 1.171875q-1.421875 1.15625 -1.421875 2.984375q0 1.6875 1.28125 2.734375q1.28125 1.03125 3.234375 1.03125zm21.839966 2.671875q-1.234375 0 -2.296875 -0.390625q-1.0625 -0.40625 -1.78125 -1.078125q-1.59375 -1.53125 -1.59375 -4.203125l0 -11.953125l-3.5625 0l0 -3.09375l3.5625 0l0 -5.75l3.390625 0l0 5.75l5.0 0l0 3.09375l-5.0 0l0 11.109375q0 1.6875 0.640625 2.484375q0.765625 0.875 2.203125 0.875q1.234375 0 2.234375 -0.671875l0 3.3125q-0.59375 0.28125 -1.21875 0.390625q-0.625 0.125 -1.578125 0.125zm14.994354 0.328125q-2.90625 0 -5.234375 -1.390625q-2.3125 -1.40625 -3.625 -3.859375q-1.296875 -2.46875 -1.296875 -5.546875q0 -2.921875 1.21875 -5.421875q1.21875 -2.5 3.484375 -3.984375q2.265625 -1.484375 5.171875 -1.484375q3.0 0 5.203125 1.34375q2.203125 1.34375 3.375 3.703125q1.1875 2.359375 1.1875 5.40625q0 0.46875 -0.078125 1.03125l-16.15625 0q0.109375 2.328125 1.109375 3.921875q1.0 1.59375 2.546875 2.40625q1.546875 0.796875 3.21875 0.796875q4.0 0 6.046875 -3.6875l2.875 1.40625q-1.28125 2.4375 -3.5625 3.90625q-2.28125 1.453125 -5.484375 1.453125zm5.890625 -13.0q-0.078125 -1.28125 -0.71875 -2.5625q-0.640625 -1.28125 -2.0 -2.15625q-1.359375 -0.875 -3.453125 -0.875q-2.390625 0 -4.078125 1.546875q-1.671875 1.53125 -2.1875 4.046875l12.4375 0zm5.832489 16.046875q2.71875 -3.25 4.484375 -7.625q1.765625 -4.375 1.765625 -8.9375q0 -4.5625 -1.765625 -8.9375q-1.765625 -4.390625 -4.484375 -7.625l2.484375 -1.765625q2.921875 3.359375 5.015625 8.140625q2.109375 4.78125 2.109375 10.1875q0 5.390625 -2.109375 10.171875q-2.09375 4.78125 -5.015625 8.140625l-2.484375 -1.75z" fill-rule="nonzero"/><path fill="#cfe2f3" d="m514.86615 -0.001312336l251.87402 0l0 110.33071l-251.87402 0z" fill-rule="evenodd"/><path stroke="#000000" stroke-width="1.0" stroke-linejoin="round" stroke-linecap="butt" d="m514.86615 -0.001312336l251.87402 0l0 110.33071l-251.87402 0z" fill-rule="evenodd"/><path fill="#000000" d="m532.7464 16.923416l8.640625 0q4.390625 0 7.671875 1.828125q3.28125 1.8125 5.03125 5.0625q1.765625 3.234375 1.765625 7.4375q0 4.1875 -1.765625 7.4375q-1.75 3.234375 -5.03125 5.0625q-3.28125 1.8125 -7.671875 1.8125l-8.640625 0l0 -28.640625zm8.640625 25.40625q5.078125 0 8.046875 -2.921875q2.984375 -2.921875 2.984375 -8.15625q0 -5.25 -2.984375 -8.171875q-2.96875 -2.921875 -8.046875 -2.921875l-5.25 0l0 22.171875l5.25 0zm19.47931 -25.40625l16.5625 0l0 3.234375l-13.171875 0l0 9.484375l11.890625 0l0 3.203125l-11.890625 0l0 9.484375l13.171875 0l0 3.234375l-16.5625 0l0 -28.640625zm30.039978 29.28125q-2.15625 0 -4.1875 -0.890625q-2.015625 -0.90625 -3.578125 -2.640625q-1.5625 -1.75 -2.234375 -4.234375l3.234375 -1.3125q0.6875 2.5625 2.515625 4.203125q1.84375 1.640625 4.328125 1.640625q2.484375 0 4.203125 -1.34375q1.71875 -1.34375 1.71875 -3.65625q0 -2.0 -1.46875 -3.296875q-1.453125 -1.3125 -4.78125 -2.421875l-1.796875 -0.640625q-3.03125 -1.09375 -4.953125 -2.84375q-1.921875 -1.765625 -1.921875 -4.890625q0 -2.03125 1.109375 -3.765625q1.125 -1.75 3.125 -2.78125q2.0 -1.046875 4.484375 -1.046875q2.484375 0 4.3125 0.921875q1.84375 0.921875 2.9375 2.25q1.109375 1.3125 1.546875 2.59375l-3.15625 1.359375q-0.4375 -1.484375 -1.859375 -2.6875q-1.421875 -1.203125 -3.734375 -1.203125q-2.203125 0 -3.765625 1.25q-1.5625 1.234375 -1.5625 3.109375q0 1.6875 1.3125 2.75q1.328125 1.0625 4.015625 1.984375l1.875 0.640625q3.640625 1.3125 5.671875 3.296875q2.046875 1.96875 2.046875 5.375q0 2.765625 -1.421875 4.640625q-1.421875 1.875 -3.578125 2.765625q-2.15625 0.875 -4.4375 0.875zm19.955017 -26.046875l-8.03125 0l0 -3.234375l19.4375 0l0 3.234375l-8.0 0l0 25.40625l-3.40625 0l0 -25.40625zm15.6449585 -3.234375l9.671875 0q2.359375 0 4.390625 1.078125q2.046875 1.078125 3.265625 3.03125q1.234375 1.9375 1.234375 4.375q0 2.0 -0.90625 3.71875q-0.90625 1.71875 -2.484375 2.875q-1.578125 1.15625 -3.5 1.5625l-0.078125 0.125l8.078125 11.71875l0 0.15625l-4.0 0l-7.796875 -11.6875l-4.484375 0l0 11.6875l-3.390625 0l0 -28.640625zm9.484375 13.796875q1.46875 0 2.765625 -0.671875q1.3125 -0.6875 2.078125 -1.90625q0.78125 -1.21875 0.78125 -2.734375q0 -1.328125 -0.6875 -2.515625q-0.671875 -1.203125 -1.890625 -1.96875q-1.21875 -0.765625 -2.8125 -0.765625l-6.328125 0l0 10.5625l6.09375 0zm27.236877 15.484375q-4.125 0 -7.484375 -2.0q-3.359375 -2.0 -5.28125 -5.4375q-1.921875 -3.4375 -1.921875 -7.515625q0 -4.09375 1.921875 -7.53125q1.921875 -3.4375 5.28125 -5.4375q3.359375 -2.0 7.484375 -2.0q4.109375 0 7.46875 2.0q3.359375 2.0 5.28125 5.4375q1.921875 3.4375 1.921875 7.53125q0 4.078125 -1.921875 7.515625q-1.921875 3.4375 -5.28125 5.4375q-3.359375 2.0 -7.46875 2.0zm0 -3.234375q3.078125 0 5.65625 -1.5q2.578125 -1.5 4.078125 -4.15625q1.5 -2.671875 1.5 -6.0625q0 -3.40625 -1.5 -6.0625q-1.5 -2.671875 -4.078125 -4.171875q-2.578125 -1.5 -5.65625 -1.5q-3.078125 0 -5.671875 1.5q-2.578125 1.5 -4.078125 4.171875q-1.5 2.65625 -1.5 6.0625q0 3.390625 1.5 6.0625q1.5 2.65625 4.078125 4.15625q2.59375 1.5 5.671875 1.5zm25.1568 -10.640625l-9.6875 -15.40625l3.96875 0l7.3125 12.0l0.171875 0l7.1875 -12.0l3.96875 0l-9.515625 15.40625l0 13.234375l-3.40625 0l0 -13.234375zm16.721863 -15.40625l16.5625 0l0 3.234375l-13.171875 0l0 9.484375l11.890625 0l0 3.203125l-11.890625 0l0 9.484375l13.171875 0l0 3.234375l-16.5625 0l0 -28.640625zm22.039978 0l8.640625 0q4.390625 0 7.671875 1.828125q3.28125 1.8125 5.03125 5.0625q1.765625 3.234375 1.765625 7.4375q0 4.1875 -1.765625 7.4375q-1.75 3.234375 -5.03125 5.0625q-3.28125 1.8125 -7.671875 1.8125l-8.640625 0l0 -28.640625zm8.640625 25.40625q5.078125 0 8.046875 -2.921875q2.984375 -2.921875 2.984375 -8.15625q0 -5.25 -2.984375 -8.171875q-2.96875 -2.921875 -8.046875 -2.921875l-5.25 0l0 22.171875l5.25 0z" fill-rule="nonzero"/><path fill="#000000" d="m541.9839 99.00154q-2.921875 -3.359375 -5.03125 -8.140625q-2.09375 -4.78125 -2.09375 -10.171875q0 -5.40625 2.09375 -10.1875q2.109375 -4.78125 5.03125 -8.140625l2.484375 1.765625q-2.71875 3.234375 -4.484375 7.625q-1.765625 4.375 -1.765625 8.9375q0 4.5625 1.765625 8.9375q1.765625 4.375 4.484375 7.625l-2.484375 1.75zm14.482483 -4.796875q-2.765625 0 -4.984375 -1.390625q-2.21875 -1.40625 -3.5 -3.859375q-1.28125 -2.46875 -1.28125 -5.59375q0 -3.078125 1.28125 -5.546875q1.28125 -2.484375 3.5 -3.890625q2.21875 -1.40625 4.984375 -1.40625q2.3125 0 4.15625 1.0625q1.84375 1.0625 2.796875 2.625l0.15625 0l-0.15625 -2.84375l0 -8.4375l3.40625 0l0 28.640625l-3.25 0l0 -3.0l-0.15625 0q-0.953125 1.515625 -2.796875 2.578125q-1.84375 1.0625 -4.15625 1.0625zm0.359375 -3.078125q1.796875 0 3.328125 -0.953125q1.546875 -0.96875 2.484375 -2.71875q0.9375 -1.765625 0.9375 -4.09375q0 -2.3125 -0.9375 -4.078125q-0.9375 -1.765625 -2.484375 -2.71875q-1.53125 -0.953125 -3.328125 -0.953125q-1.765625 0 -3.328125 0.953125q-1.546875 0.953125 -2.5 2.734375q-0.9375 1.78125 -0.9375 4.0625q0 2.28125 0.9375 4.0625q0.953125 1.78125 2.5 2.75q1.5625 0.953125 3.328125 0.953125zm23.911194 3.078125q-2.90625 0 -5.234375 -1.390625q-2.3125 -1.40625 -3.625 -3.859375q-1.296875 -2.46875 -1.296875 -5.546875q0 -2.921875 1.21875 -5.421875q1.21875 -2.5 3.484375 -3.984375q2.265625 -1.484375 5.171875 -1.484375q3.0 0 5.203125 1.34375q2.203125 1.34375 3.375 3.703125q1.1875 2.359375 1.1875 5.40625q0 0.46875 -0.078125 1.03125l-16.15625 0q0.109375 2.328125 1.109375 3.921875q1.0 1.59375 2.546875 2.40625q1.546875 0.796875 3.21875 0.796875q4.0 0 6.046875 -3.6875l2.875 1.40625q-1.28125 2.4375 -3.5625 3.90625q-2.28125 1.453125 -5.484375 1.453125zm5.890625 -13.0q-0.078125 -1.28125 -0.71875 -2.5625q-0.640625 -1.28125 -2.0 -2.15625q-1.359375 -0.875 -3.453125 -0.875q-2.390625 0 -4.078125 1.546875q-1.671875 1.53125 -2.1875 4.046875l12.4375 0zm14.282471 13.0q-2.25 0 -4.015625 -0.875q-1.75 -0.890625 -2.71875 -2.421875q-0.953125 -1.546875 -0.953125 -3.5q0 -3.25 2.4375 -5.0625q2.4375 -1.828125 6.15625 -1.828125q1.84375 0 3.421875 0.40625q1.578125 0.40625 2.421875 0.921875l0 -1.234375q0 -2.28125 -1.609375 -3.65625q-1.59375 -1.390625 -4.03125 -1.390625q-1.671875 0 -3.140625 0.75q-1.453125 0.734375 -2.296875 2.046875l-2.5625 -1.921875q1.203125 -1.828125 3.3125 -2.875q2.125 -1.046875 4.6875 -1.046875q4.15625 0 6.515625 2.1875q2.375 2.171875 2.375 5.9375l0 12.921875l-3.25 0l0 -2.921875l-0.15625 0q-0.875 1.484375 -2.640625 2.53125q-1.765625 1.03125 -3.953125 1.03125zm0.3125 -3.0q1.71875 0 3.203125 -0.875q1.484375 -0.890625 2.359375 -2.359375q0.875 -1.484375 0.875 -3.25q-0.953125 -0.640625 -2.359375 -1.03125q-1.390625 -0.40625 -2.953125 -0.40625q-2.796875 0 -4.21875 1.171875q-1.421875 1.15625 -1.421875 2.984375q0 1.6875 1.28125 2.734375q1.28125 1.03125 3.234375 1.03125zm22.883728 3.0q-2.765625 0 -4.984375 -1.390625q-2.21875 -1.40625 -3.5 -3.859375q-1.28125 -2.46875 -1.28125 -5.59375q0 -3.078125 1.28125 -5.546875q1.28125 -2.484375 3.5 -3.890625q2.21875 -1.40625 4.984375 -1.40625q2.3125 0 4.15625 1.0625q1.84375 1.0625 2.796875 2.625l0.15625 0l-0.15625 -2.84375l0 -8.4375l3.40625 0l0 28.640625l-3.25 0l0 -3.0l-0.15625 0q-0.953125 1.515625 -2.796875 2.578125q-1.84375 1.0625 -4.15625 1.0625zm0.359375 -3.078125q1.796875 0 3.328125 -0.953125q1.546875 -0.96875 2.484375 -2.71875q0.9375 -1.765625 0.9375 -4.09375q0 -2.3125 -0.9375 -4.078125q-0.9375 -1.765625 -2.484375 -2.71875q-1.53125 -0.953125 -3.328125 -0.953125q-1.765625 0 -3.328125 0.953125q-1.546875 0.953125 -2.5 2.734375q-0.9375 1.78125 -0.9375 4.0625q0 2.28125 0.9375 4.0625q0.953125 1.78125 2.5 2.75q1.5625 0.953125 3.328125 0.953125zm12.517517 2.4375l0 0zm18.920593 0.640625q-3.28125 0 -5.484375 -1.53125q-2.203125 -1.546875 -3.109375 -3.953125l3.03125 -1.359375q0.765625 1.84375 2.265625 2.84375q1.5 1.0 3.296875 1.0q1.921875 0 3.28125 -0.78125q1.359375 -0.78125 1.359375 -2.21875q0 -1.28125 -1.078125 -2.0625q-1.078125 -0.78125 -3.40625 -1.34375l-2.484375 -0.640625q-2.4375 -0.59375 -4.0 -2.03125q-1.546875 -1.4375 -1.546875 -3.71875q0 -1.765625 1.046875 -3.09375q1.0625 -1.34375 2.828125 -2.0625q1.765625 -0.734375 3.796875 -0.734375q2.6875 0 4.78125 1.171875q2.09375 1.15625 2.984375 3.234375l-2.96875 1.359375q-1.359375 -2.71875 -4.828125 -2.71875q-1.6875 0 -2.953125 0.78125q-1.25 0.78125 -1.25 1.984375q0 1.109375 0.875 1.8125q0.875 0.703125 2.640625 1.140625l2.96875 0.765625q3.0 0.75 4.515625 2.25q1.515625 1.5 1.515625 3.671875q0 1.875 -1.078125 3.296875q-1.078125 1.421875 -2.921875 2.1875q-1.84375 0.75 -4.078125 0.75zm19.43872 -0.328125q-1.234375 0 -2.296875 -0.390625q-1.0625 -0.40625 -1.78125 -1.078125q-1.59375 -1.53125 -1.59375 -4.203125l0 -11.953125l-3.5625 0l0 -3.09375l3.5625 0l0 -5.75l3.390625 0l0 5.75l5.0 0l0 3.09375l-5.0 0l0 11.109375q0 1.6875 0.640625 2.484375q0.765625 0.875 2.203125 0.875q1.234375 0 2.234375 -0.671875l0 3.3125q-0.59375 0.28125 -1.21875 0.390625q-0.625 0.125 -1.578125 0.125zm12.92749 0.328125q-2.25 0 -4.015625 -0.875q-1.75 -0.890625 -2.71875 -2.421875q-0.953125 -1.546875 -0.953125 -3.5q0 -3.25 2.4375 -5.0625q2.4375 -1.828125 6.15625 -1.828125q1.84375 0 3.421875 0.40625q1.578125 0.40625 2.421875 0.921875l0 -1.234375q0 -2.28125 -1.609375 -3.65625q-1.59375 -1.390625 -4.03125 -1.390625q-1.671875 0 -3.140625 0.75q-1.453125 0.734375 -2.296875 2.046875l-2.5625 -1.921875q1.203125 -1.828125 3.3125 -2.875q2.125 -1.046875 4.6875 -1.046875q4.15625 0 6.515625 2.1875q2.375 2.171875 2.375 5.9375l0 12.921875l-3.25 0l0 -2.921875l-0.15625 0q-0.875 1.484375 -2.640625 2.53125q-1.765625 1.03125 -3.953125 1.03125zm0.3125 -3.0q1.71875 0 3.203125 -0.875q1.484375 -0.890625 2.359375 -2.359375q0.875 -1.484375 0.875 -3.25q-0.953125 -0.640625 -2.359375 -1.03125q-1.390625 -0.40625 -2.953125 -0.40625q-2.796875 0 -4.21875 1.171875q-1.421875 1.15625 -1.421875 2.984375q0 1.6875 1.28125 2.734375q1.28125 1.03125 3.234375 1.03125zm21.840027 2.671875q-1.234375 0 -2.296875 -0.390625q-1.0625 -0.40625 -1.78125 -1.078125q-1.59375 -1.53125 -1.59375 -4.203125l0 -11.953125l-3.5625 0l0 -3.09375l3.5625 0l0 -5.75l3.390625 0l0 5.75l5.0 0l0 3.09375l-5.0 0l0 11.109375q0 1.6875 0.640625 2.484375q0.765625 0.875 2.203125 0.875q1.234375 0 2.234375 -0.671875l0 3.3125q-0.59375 0.28125 -1.21875 0.390625q-0.625 0.125 -1.578125 0.125zm14.994324 0.328125q-2.90625 0 -5.234375 -1.390625q-2.3125 -1.40625 -3.625 -3.859375q-1.296875 -2.46875 -1.296875 -5.546875q0 -2.921875 1.21875 -5.421875q1.21875 -2.5 3.484375 -3.984375q2.265625 -1.484375 5.171875 -1.484375q3.0 0 5.203125 1.34375q2.203125 1.34375 3.375 3.703125q1.1875 2.359375 1.1875 5.40625q0 0.46875 -0.078125 1.03125l-16.15625 0q0.109375 2.328125 1.109375 3.921875q1.0 1.59375 2.546875 2.40625q1.546875 0.796875 3.21875 0.796875q4.0 0 6.046875 -3.6875l2.875 1.40625q-1.28125 2.4375 -3.5625 3.90625q-2.28125 1.453125 -5.484375 1.453125zm5.890625 -13.0q-0.078125 -1.28125 -0.71875 -2.5625q-0.640625 -1.28125 -2.0 -2.15625q-1.359375 -0.875 -3.453125 -0.875q-2.390625 0 -4.078125 1.546875q-1.671875 1.53125 -2.1875 4.046875l12.4375 0zm5.8324585 16.046875q2.71875 -3.25 4.484375 -7.625q1.765625 -4.375 1.765625 -8.9375q0 -4.5625 -1.765625 -8.9375q-1.765625 -4.390625 -4.484375 -7.625l2.484375 -1.765625q2.921875 3.359375 5.015625 8.140625q2.109375 4.78125 2.109375 10.1875q0 5.390625 -2.109375 10.171875q-2.09375 4.78125 -5.015625 8.140625l-2.484375 -1.75z" fill-rule="nonzero"/><path fill="#cfe2f3" d="m812.09973 -0.001312336l199.87402 0l0 110.33071l-199.87402 0z" fill-rule="evenodd"/><path stroke="#000000" stroke-width="1.0" stroke-linejoin="round" stroke-linecap="butt" d="m812.09973 -0.001312336l199.87402 0l0 110.33071l-199.87402 0z" fill-rule="evenodd"/><path fill="#000000" d="m843.1774 70.204666q-4.15625 0 -7.5625 -1.953125q-3.390625 -1.96875 -5.34375 -5.390625q-1.9375 -3.421875 -1.9375 -7.609375q0 -4.203125 1.9375 -7.625q1.953125 -3.421875 5.34375 -5.375q3.40625 -1.96875 7.5625 -1.96875q3.203125 0 5.859375 1.203125q2.65625 1.203125 4.625 3.484375l-2.4375 2.359375q-1.640625 -1.96875 -3.59375 -2.890625q-1.9375 -0.921875 -4.453125 -0.921875q-3.125 0 -5.734375 1.46875q-2.59375 1.453125 -4.140625 4.125q-1.53125 2.65625 -1.53125 6.140625q0 3.46875 1.53125 6.140625q1.546875 2.65625 4.140625 4.125q2.609375 1.453125 5.734375 1.453125q5.203125 0 8.84375 -4.28125l2.46875 2.390625q-1.953125 2.359375 -4.890625 3.75q-2.9375 1.375 -6.421875 1.375zm16.202515 -29.28125l9.671875 0q2.359375 0 4.390625 1.078125q2.046875 1.078125 3.265625 3.03125q1.234375 1.9375 1.234375 4.375q0 2.0 -0.90625 3.71875q-0.90625 1.71875 -2.484375 2.875q-1.578125 1.15625 -3.5 1.5625l-0.078125 0.125l8.078125 11.71875l0 0.15625l-4.0 0l-7.796875 -11.6875l-4.484375 0l0 11.6875l-3.390625 0l0 -28.640625zm9.484375 13.796875q1.46875 0 2.765625 -0.671875q1.3125 -0.6875 2.078125 -1.90625q0.78125 -1.21875 0.78125 -2.734375q0 -1.328125 -0.6875 -2.515625q-0.671875 -1.203125 -1.890625 -1.96875q-1.21875 -0.765625 -2.8125 -0.765625l-6.328125 0l0 10.5625l6.09375 0zm13.955566 -13.796875l16.5625 0l0 3.234375l-13.171875 0l0 9.484375l11.890625 0l0 3.203125l-11.890625 0l0 9.484375l13.171875 0l0 3.234375l-16.5625 0l0 -28.640625zm30.321228 0l3.828125 0l10.890625 28.640625l-3.71875 0l-2.890625 -7.875l-12.390625 0l-2.890625 7.875l-3.71875 0l10.890625 -28.640625zm6.953125 17.5625l-3.84375 -10.328125l-1.109375 -3.078125l-0.171875 0l-1.109375 3.078125l-3.84375 10.328125l10.078125 0zm14.840576 -14.328125l-8.03125 0l0 -3.234375l19.437561 0l0 3.234375l-8.000061 0l0 25.40625l-3.40625 0l0 -25.40625zm15.64502 -3.234375l16.5625 0l0 3.234375l-13.171875 0l0 9.484375l11.890625 0l0 3.203125l-11.890625 0l0 9.484375l13.171875 0l0 3.234375l-16.5625 0l0 -28.640625zm22.039978 0l8.640625 0q4.390625 0 7.671875 1.828125q3.28125 1.8125 5.03125 5.0625q1.765625 3.234375 1.765625 7.4375q0 4.1875 -1.765625 7.4375q-1.75 3.234375 -5.03125 5.0625q-3.28125 1.8125 -7.671875 1.8125l-8.640625 0l0 -28.640625zm8.640625 25.40625q5.078125 0 8.046875 -2.921875q2.984375 -2.921875 2.984375 -8.15625q0 -5.25 -2.984375 -8.171875q-2.96875 -2.921875 -8.046875 -2.921875l-5.25 0l0 22.171875l5.25 0z" fill-rule="nonzero"/><path fill="#cfe2f3" d="m1057.3334 0l195.14954 0l0 110.33071l-195.14954 0z" fill-rule="evenodd"/><path stroke="#000000" stroke-width="1.0" stroke-linejoin="round" stroke-linecap="butt" d="m1057.3334 0l195.14954 0l0 110.33071l-195.14954 0z" fill-rule="evenodd"/><path fill="#000000" d="m1084.6514 70.20598q-2.15625 0 -4.1875 -0.890625q-2.015625 -0.90625 -3.578125 -2.640625q-1.5625 -1.75 -2.234375 -4.234375l3.234375 -1.3125q0.6875 2.5625 2.515625 4.203125q1.84375 1.640625 4.328125 1.640625q2.484375 0 4.203125 -1.34375q1.71875 -1.34375 1.71875 -3.65625q0 -2.0 -1.46875 -3.296875q-1.453125 -1.3125 -4.78125 -2.421875l-1.796875 -0.640625q-3.03125 -1.09375 -4.953125 -2.84375q-1.921875 -1.765625 -1.921875 -4.890625q0 -2.03125 1.109375 -3.765625q1.125 -1.75 3.125 -2.78125q2.0 -1.046875 4.484375 -1.046875q2.484375 0 4.3125 0.921875q1.84375 0.921875 2.9375 2.25q1.109375 1.3125 1.546875 2.59375l-3.15625 1.359375q-0.4375 -1.484375 -1.859375 -2.6875q-1.421875 -1.203125 -3.734375 -1.203125q-2.203125 0 -3.765625 1.25q-1.5625 1.234375 -1.5625 3.109375q0 1.6875 1.3125 2.75q1.328125 1.0625 4.015625 1.984375l1.875 0.640625q3.640625 1.3125 5.671875 3.296875q2.046875 1.96875 2.046875 5.375q0 2.765625 -1.421875 4.640625q-1.421875 1.875 -3.578125 2.765625q-2.15625 0.875 -4.4375 0.875zm19.954956 -26.046875l-8.03125 0l0 -3.234375l19.4375 0l0 3.234375l-8.0 0l0 25.40625l-3.40625 0l0 -25.40625zm21.326172 -3.234375l3.828125 0l10.890625 28.640625l-3.71875 0l-2.890625 -7.875l-12.390625 0l-2.890625 7.875l-3.71875 0l10.890625 -28.640625zm6.953125 17.5625l-3.84375 -10.328125l-1.109375 -3.078125l-0.171875 0l-1.109375 3.078125l-3.84375 10.328125l10.078125 0zm11.565674 -17.5625l9.671875 0q2.359375 0 4.390625 1.078125q2.046875 1.078125 3.265625 3.03125q1.234375 1.9375 1.234375 4.375q0 2.0 -0.90625 3.71875q-0.90625 1.71875 -2.484375 2.875q-1.578125 1.15625 -3.5 1.5625l-0.078125 0.125l8.078125 11.71875l0 0.15625l-4.0 0l-7.796875 -11.6875l-4.484375 0l0 11.6875l-3.390625 0l0 -28.640625zm9.484375 13.796875q1.46875 0 2.765625 -0.671875q1.3125 -0.6875 2.078125 -1.90625q0.78125 -1.21875 0.78125 -2.734375q0 -1.328125 -0.6875 -2.515625q-0.671875 -1.203125 -1.890625 -1.96875q-1.21875 -0.765625 -2.8125 -0.765625l-6.328125 0l0 10.5625l6.09375 0zm19.830566 -10.5625l-8.03125 0l0 -3.234375l19.4375 0l0 3.234375l-8.0 0l0 25.40625l-3.40625 0l0 -25.40625zm15.64502 -3.234375l16.5625 0l0 3.234375l-13.171875 0l0 9.484375l11.890625 0l0 3.203125l-11.890625 0l0 9.484375l13.171875 0l0 3.234375l-16.5625 0l0 -28.640625zm22.039917 0l8.640625 0q4.390625 0 7.671875 1.828125q3.28125 1.8125 5.03125 5.0625q1.765625 3.234375 1.765625 7.4375q0 4.1875 -1.765625 7.4375q-1.75 3.234375 -5.03125 5.0625q-3.28125 1.8125 -7.671875 1.8125l-8.640625 0l0 -28.640625zm8.640625 25.40625q5.078125 0 8.046875 -2.921875q2.984375 -2.921875 2.984375 -8.15625q0 -5.25 -2.984375 -8.171875q-2.96875 -2.921875 -8.046875 -2.921875l-5.25 0l0 22.171875l5.25 0z" fill-rule="nonzero"/><path fill="#cfe2f3" d="m1297.8425 -0.001312336l199.87402 0l0 110.33071l-199.87402 0z" fill-rule="evenodd"/><path stroke="#000000" stroke-width="1.0" stroke-linejoin="round" stroke-linecap="butt" d="m1297.8425 -0.001312336l199.87402 0l0 110.33071l-199.87402 0z" fill-rule="evenodd"/><path fill="#000000" d="m1311.5427 40.923416l9.671875 0q2.359375 0 4.390625 1.078125q2.046875 1.078125 3.265625 3.03125q1.234375 1.9375 1.234375 4.375q0 2.0 -0.90625 3.71875q-0.90625 1.71875 -2.484375 2.875q-1.578125 1.15625 -3.5 1.5625l-0.078125 0.125l8.078125 11.71875l0 0.15625l-4.0 0l-7.796875 -11.6875l-4.484375 0l0 11.6875l-3.390625 0l0 -28.640625zm9.484375 13.796875q1.46875 0 2.765625 -0.671875q1.3125 -0.6875 2.078125 -1.90625q0.78125 -1.21875 0.78125 -2.734375q0 -1.328125 -0.6875 -2.515625q-0.671875 -1.203125 -1.890625 -1.96875q-1.21875 -0.765625 -2.8125 -0.765625l-6.328125 0l0 10.5625l6.09375 0zm13.955566 -13.796875l16.5625 0l0 3.234375l-13.171875 0l0 9.484375l11.890625 0l0 3.203125l-11.890625 0l0 9.484375l13.171875 0l0 3.234375l-16.5625 0l0 -28.640625zm30.04004 29.28125q-2.15625 0 -4.1875 -0.890625q-2.015625 -0.90625 -3.578125 -2.640625q-1.5625 -1.75 -2.234375 -4.234375l3.234375 -1.3125q0.6875 2.5625 2.515625 4.203125q1.84375 1.640625 4.328125 1.640625q2.484375 0 4.203125 -1.34375q1.71875 -1.34375 1.71875 -3.65625q0 -2.0 -1.46875 -3.296875q-1.453125 -1.3125 -4.78125 -2.421875l-1.796875 -0.640625q-3.03125 -1.09375 -4.953125 -2.84375q-1.921875 -1.765625 -1.921875 -4.890625q0 -2.03125 1.109375 -3.765625q1.125 -1.75 3.125 -2.78125q2.0 -1.046875 4.484375 -1.046875q2.484375 0 4.3125 0.921875q1.84375 0.921875 2.9375 2.25q1.109375 1.3125 1.546875 2.59375l-3.15625 1.359375q-0.4375 -1.484375 -1.859375 -2.6875q-1.421875 -1.203125 -3.734375 -1.203125q-2.203125 0 -3.765625 1.25q-1.5625 1.234375 -1.5625 3.109375q0 1.6875 1.3125 2.75q1.328125 1.0625 4.015625 1.984375l1.875 0.640625q3.640625 1.3125 5.671875 3.296875q2.046875 1.96875 2.046875 5.375q0 2.765625 -1.421875 4.640625q-1.421875 1.875 -3.578125 2.765625q-2.15625 0.875 -4.4375 0.875zm24.32373 0q-3.09375 0 -5.5 -1.421875q-2.390625 -1.421875 -3.71875 -3.953125q-1.3125 -2.546875 -1.3125 -5.859375l0 -18.046875l3.40625 0l0 18.203125q0 3.484375 1.828125 5.671875q1.84375 2.171875 5.296875 2.171875q3.4375 0 5.296875 -2.171875q1.859375 -2.1875 1.859375 -5.671875l0 -18.203125l3.390625 0l0 18.046875q0 3.3125 -1.265625 5.875q-1.25 2.5625 -3.65625 3.96875q-2.390625 1.390625 -5.625 1.390625zm16.276245 -29.28125l4.921875 0l9.109375 23.484375l0.171875 0l9.109375 -23.484375l4.921875 0l0 28.640625l-3.359375 0l0 -18.203125l0.15625 -5.4375l-0.15625 0l-9.359375 23.640625l-2.796875 0l-9.359375 -23.640625l-0.15625 0l0.15625 5.4375l0 18.203125l-3.359375 0l0 -28.640625zm34.639893 0l16.5625 0l0 3.234375l-13.171875 0l0 9.484375l11.890625 0l0 3.203125l-11.890625 0l0 9.484375l13.171875 0l0 3.234375l-16.5625 0l0 -28.640625zm22.04004 0l8.640625 0q4.390625 0 7.671875 1.828125q3.28125 1.8125 5.03125 5.0625q1.765625 3.234375 1.765625 7.4375q0 4.1875 -1.765625 7.4375q-1.75 3.234375 -5.03125 5.0625q-3.28125 1.8125 -7.671875 1.8125l-8.640625 0l0 -28.640625zm8.640625 25.40625q5.078125 0 8.046875 -2.921875q2.984375 -2.921875 2.984375 -8.15625q0 -5.25 -2.984375 -8.171875q-2.96875 -2.921875 -8.046875 -2.921875l-5.25 0l0 22.171875l5.25 0z" fill-rule="nonzero"/><path fill="#cfe2f3" d="m217.63255 468.46194l251.87401 0l0 110.33072l-251.87401 0z" fill-rule="evenodd"/><path stroke="#000000" stroke-width="1.0" stroke-linejoin="round" stroke-linecap="butt" d="m217.63255 468.46194l251.87401 0l0 110.33072l-251.87401 0z" fill-rule="evenodd"/><path fill="#000000" d="m242.15279 485.38666l3.390625 0l0 28.640625l-3.390625 0l0 -28.640625zm9.799988 0l4.1562347 0l14.359375 22.796875l0.15625 0l-0.15625 -5.515625l0 -17.28125l3.40625 0l0 28.640625l-3.53125 0l-14.999985 -23.875l-0.15625 0l0.15625 5.515625l0 18.359375l-3.390625 0l0 -28.640625zm28.319962 0l3.390625 0l0 28.640625l-3.390625 0l0 -28.640625zm15.674988 3.234375l-8.03125 0l0 -3.234375l19.4375 0l0 3.234375l-8.0 0l0 25.40625l-3.40625 0l0 -25.40625zm15.644989 -3.234375l3.390625 0l0 28.640625l-3.390625 0l0 -28.640625zm18.081238 0l3.828125 0l10.890625 28.640625l-3.71875 0l-2.890625 -7.875l-12.390625 0l-2.890625 7.875l-3.71875 0l10.890625 -28.640625zm6.953125 17.5625l-3.84375 -10.328125l-1.109375 -3.078125l-0.171875 0l-1.109375 3.078125l-3.84375 10.328125l10.078125 0zm11.565582 -17.5625l3.390625 0l0 25.40625l12.53125 0l0 3.234375l-15.921875 0l0 -28.640625zm20.359985 0l3.390625 0l0 28.640625l-3.390625 0l0 -28.640625zm8.112488 25.078125l15.4375 -21.84375l-14.796875 0l0 -3.234375l18.71875 0l0 3.5625l-15.4375 21.84375l15.609375 0l0 3.234375l-19.53125 0l0 -3.5625zm24.567474 -25.078125l16.5625 0l0 3.234375l-13.171875 0l0 9.484375l11.890625 0l0 3.203125l-11.890625 0l0 9.484375l13.171875 0l0 3.234375l-16.5625 0l0 -28.640625zm22.039978 0l8.640625 0q4.390625 0 7.671875 1.828125q3.28125 1.8125 5.03125 5.0625q1.765625 3.234375 1.765625 7.4375q0 4.1875 -1.765625 7.4375q-1.75 3.234375 -5.03125 5.0625q-3.28125 1.8125 -7.671875 1.8125l-8.640625 0l0 -28.640625zm8.640625 25.40625q5.078125 0 8.046875 -2.921875q2.984375 -2.921875 2.984375 -8.15625q0 -5.25 -2.984375 -8.171875q-2.96875 -2.921875 -8.046875 -2.921875l-5.25 0l0 22.171875l5.25 0z" fill-rule="nonzero"/><path fill="#000000" d="m243.7703 567.4648q-2.921875 -3.359375 -5.03125 -8.140625q-2.09375 -4.78125 -2.09375 -10.171875q0 -5.40625 2.09375 -10.1875q2.109375 -4.78125 5.03125 -8.140625l2.484375 1.765625q-2.71875 3.234375 -4.484375 7.625q-1.765625 4.375 -1.765625 8.9375q0 4.5625 1.765625 8.9375q1.765625 4.375 4.484375 7.625l-2.484375 1.75zm7.794983 -29.59375q-1.0 0 -1.71875 -0.71875q-0.71875 -0.71875 -0.71875 -1.71875q0 -1.046875 0.71875 -1.75q0.71875 -0.703125 1.71875 -0.703125q1.046875 0 1.734375 0.703125q0.703125 0.703125 0.703125 1.75q0 1.0 -0.703125 1.71875q-0.6875 0.71875 -1.734375 0.71875zm-1.671875 3.75l3.390625 0l0 20.40625l-3.390625 0l0 -20.40625zm8.711853 0l3.25 0l0 3.0l0.15625 0q0.84375 -1.515625 2.671875 -2.578125q1.84375 -1.0625 3.921875 -1.0625q3.6875 0 5.625 2.140625q1.9375 2.140625 1.9375 5.828125l0 13.078125l-3.390625 0l0 -12.5625q0 -2.84375 -1.375 -4.109375q-1.359375 -1.28125 -3.71875 -1.28125q-1.640625 0 -2.9375 0.921875q-1.296875 0.90625 -2.015625 2.40625q-0.71875 1.5 -0.71875 3.140625l0 11.484375l-3.40625 0l0 -20.40625zm24.439972 -3.75q-1.0 0 -1.71875 -0.71875q-0.71875 -0.71875 -0.71875 -1.71875q0 -1.046875 0.71875 -1.75q0.71875 -0.703125 1.71875 -0.703125q1.046875 0 1.734375 0.703125q0.703125 0.703125 0.703125 1.75q0 1.0 -0.703125 1.71875q-0.6875 0.71875 -1.734375 0.71875zm-1.671875 3.75l3.390625 0l0 20.40625l-3.390625 0l0 -20.40625zm16.355621 20.71875q-1.234375 0 -2.296875 -0.390625q-1.0625 -0.40625 -1.78125 -1.078125q-1.59375 -1.53125 -1.59375 -4.203125l0 -11.953125l-3.5625 0l0 -3.09375l3.5625 0l0 -5.75l3.390625 0l0 5.75l5.0 0l0 3.09375l-5.0 0l0 11.109375q0 1.6875 0.640625 2.484375q0.765625 0.875 2.203125 0.875q1.234375 0 2.234375 -0.671875l0 3.3125q-0.59375 0.28125 -1.21875 0.390625q-0.625 0.125 -1.578125 0.125zm8.996246 -24.46875q-1.0 0 -1.71875 -0.71875q-0.71875 -0.71875 -0.71875 -1.71875q0 -1.046875 0.71875 -1.75q0.71875 -0.703125 1.71875 -0.703125q1.046875 0 1.734375 0.703125q0.703125 0.703125 0.703125 1.75q0 1.0 -0.703125 1.71875q-0.6875 0.71875 -1.734375 0.71875zm-1.671875 3.75l3.390625 0l0 20.40625l-3.390625 0l0 -20.40625zm15.043121 21.046875q-2.25 0 -4.015625 -0.875q-1.75 -0.890625 -2.71875 -2.421875q-0.953125 -1.546875 -0.953125 -3.5q0 -3.25 2.4375 -5.0625q2.4375 -1.828125 6.15625 -1.828125q1.84375 0 3.421875 0.40625q1.578125 0.40625 2.421875 0.921875l0 -1.234375q0 -2.28125 -1.609375 -3.65625q-1.59375 -1.390625 -4.03125 -1.390625q-1.671875 0 -3.140625 0.75q-1.453125 0.734375 -2.296875 2.046875l-2.5625 -1.921875q1.203125 -1.828125 3.3125 -2.875q2.125 -1.046875 4.6875 -1.046875q4.15625 0 6.515625 2.1875q2.375 2.171875 2.375 5.9375l0 12.921875l-3.25 0l0 -2.921875l-0.15625 0q-0.875 1.484375 -2.640625 2.53125q-1.765625 1.03125 -3.953125 1.03125zm0.3125 -3.0q1.71875 0 3.203125 -0.875q1.484375 -0.890625 2.359375 -2.359375q0.875 -1.484375 0.875 -3.25q-0.953125 -0.640625 -2.359375 -1.03125q-1.390625 -0.40625 -2.953125 -0.40625q-2.796875 0 -4.21875 1.171875q-1.421875 1.15625 -1.421875 2.984375q0 1.6875 1.28125 2.734375q1.28125 1.03125 3.234375 1.03125zm14.39621 -26.28125l3.40625 0l0 28.640625l-3.40625 0l0 -28.640625zm5.9243774 28.640625l0 0zm18.920624 0.640625q-3.28125 0 -5.484375 -1.53125q-2.203125 -1.546875 -3.109375 -3.953125l3.03125 -1.359375q0.765625 1.84375 2.265625 2.84375q1.5 1.0 3.296875 1.0q1.921875 0 3.28125 -0.78125q1.359375 -0.78125 1.359375 -2.21875q0 -1.28125 -1.078125 -2.0625q-1.078125 -0.78125 -3.40625 -1.34375l-2.484375 -0.640625q-2.4375 -0.59375 -4.0 -2.03125q-1.546875 -1.4375 -1.546875 -3.71875q0 -1.765625 1.046875 -3.09375q1.0625 -1.34375 2.828125 -2.0625q1.765625 -0.734375 3.796875 -0.734375q2.6875 0 4.78125 1.171875q2.09375 1.15625 2.984375 3.234375l-2.96875 1.359375q-1.359375 -2.71875 -4.828125 -2.71875q-1.6875 0 -2.953125 0.78125q-1.25 0.78125 -1.25 1.984375q0 1.109375 0.875 1.8125q0.875 0.703125 2.640625 1.140625l2.96875 0.765625q3.0 0.75 4.515625 2.25q1.515625 1.5 1.515625 3.671875q0 1.875 -1.078125 3.296875q-1.078125 1.421875 -2.921875 2.1875q-1.84375 0.75 -4.078125 0.75zm19.43872 -0.328125q-1.234375 0 -2.296875 -0.390625q-1.0625 -0.40625 -1.78125 -1.078125q-1.59375 -1.53125 -1.59375 -4.203125l0 -11.953125l-3.5625 0l0 -3.09375l3.5625 0l0 -5.75l3.390625 0l0 5.75l5.0 0l0 3.09375l-5.0 0l0 11.109375q0 1.6875 0.640625 2.484375q0.765625 0.875 2.203125 0.875q1.234375 0 2.234375 -0.671875l0 3.3125q-0.59375 0.28125 -1.21875 0.390625q-0.625 0.125 -1.578125 0.125zm12.92749 0.328125q-2.25 0 -4.015625 -0.875q-1.75 -0.890625 -2.71875 -2.421875q-0.953125 -1.546875 -0.953125 -3.5q0 -3.25 2.4375 -5.0625q2.4375 -1.828125 6.15625 -1.828125q1.84375 0 3.421875 0.40625q1.578125 0.40625 2.421875 0.921875l0 -1.234375q0 -2.28125 -1.609375 -3.65625q-1.59375 -1.390625 -4.03125 -1.390625q-1.671875 0 -3.140625 0.75q-1.453125 0.734375 -2.296875 2.046875l-2.5625 -1.921875q1.203125 -1.828125 3.3125 -2.875q2.125 -1.046875 4.6875 -1.046875q4.15625 0 6.515625 2.1875q2.375 2.171875 2.375 5.9375l0 12.921875l-3.25 0l0 -2.921875l-0.15625 0q-0.875 1.484375 -2.640625 2.53125q-1.765625 1.03125 -3.953125 1.03125zm0.3125 -3.0q1.71875 0 3.203125 -0.875q1.484375 -0.890625 2.359375 -2.359375q0.875 -1.484375 0.875 -3.25q-0.953125 -0.640625 -2.359375 -1.03125q-1.390625 -0.40625 -2.953125 -0.40625q-2.796875 0 -4.21875 1.171875q-1.421875 1.15625 -1.421875 2.984375q0 1.6875 1.28125 2.734375q1.28125 1.03125 3.234375 1.03125zm21.839996 2.671875q-1.234375 0 -2.296875 -0.390625q-1.0625 -0.40625 -1.78125 -1.078125q-1.59375 -1.53125 -1.59375 -4.203125l0 -11.953125l-3.5625 0l0 -3.09375l3.5625 0l0 -5.75l3.390625 0l0 5.75l5.0 0l0 3.09375l-5.0 0l0 11.109375q0 1.6875 0.640625 2.484375q0.765625 0.875 2.203125 0.875q1.234375 0 2.234375 -0.671875l0 3.3125q-0.59375 0.28125 -1.21875 0.390625q-0.625 0.125 -1.578125 0.125zm14.994354 0.328125q-2.90625 0 -5.234375 -1.390625q-2.3125 -1.40625 -3.625 -3.859375q-1.296875 -2.46875 -1.296875 -5.546875q0 -2.921875 1.21875 -5.421875q1.21875 -2.5 3.484375 -3.984375q2.265625 -1.484375 5.171875 -1.484375q3.0 0 5.203125 1.34375q2.203125 1.34375 3.375 3.703125q1.1875 2.359375 1.1875 5.40625q0 0.46875 -0.078125 1.03125l-16.15625 0q0.109375 2.328125 1.109375 3.921875q1.0 1.59375 2.546875 2.40625q1.546875 0.796875 3.21875 0.796875q4.0 0 6.046875 -3.6875l2.875 1.40625q-1.28125 2.4375 -3.5625 3.90625q-2.28125 1.453125 -5.484375 1.453125zm5.890625 -13.0q-0.078125 -1.28125 -0.71875 -2.5625q-0.640625 -1.28125 -2.0 -2.15625q-1.359375 -0.875 -3.453125 -0.875q-2.390625 0 -4.078125 1.546875q-1.671875 1.53125 -2.1875 4.046875l12.4375 0zm5.8324585 16.046875q2.71875 -3.25 4.484375 -7.625q1.765625 -4.375 1.765625 -8.9375q0 -4.5625 -1.765625 -8.9375q-1.765625 -4.390625 -4.484375 -7.625l2.484375 -1.765625q2.921875 3.359375 5.015625 8.140625q2.109375 4.78125 2.109375 10.1875q0 5.390625 -2.109375 10.171875q-2.09375 4.78125 -5.015625 8.140625l-2.484375 -1.75z" fill-rule="nonzero"/><path fill="#cfe2f3" d="m514.86615 468.46194l251.87402 0l0 110.33072l-251.87402 0z" fill-rule="evenodd"/><path stroke="#000000" stroke-width="1.0" stroke-linejoin="round" stroke-linecap="butt" d="m514.86615 468.46194l251.87402 0l0 110.33072l-251.87402 0z" fill-rule="evenodd"/><path fill="#000000" d="m532.7464 485.38666l8.640625 0q4.390625 0 7.671875 1.828125q3.28125 1.8125 5.03125 5.0625q1.765625 3.234375 1.765625 7.4375q0 4.1875 -1.765625 7.4375q-1.75 3.234375 -5.03125 5.0625q-3.28125 1.8125 -7.671875 1.8125l-8.640625 0l0 -28.640625zm8.640625 25.40625q5.078125 0 8.046875 -2.921875q2.984375 -2.921875 2.984375 -8.15625q0 -5.25 -2.984375 -8.171875q-2.96875 -2.921875 -8.046875 -2.921875l-5.25 0l0 22.171875l5.25 0zm19.47931 -25.40625l16.5625 0l0 3.234375l-13.171875 0l0 9.484375l11.890625 0l0 3.203125l-11.890625 0l0 9.484375l13.171875 0l0 3.234375l-16.5625 0l0 -28.640625zm30.039978 29.28125q-2.15625 0 -4.1875 -0.890625q-2.015625 -0.90625 -3.578125 -2.640625q-1.5625 -1.75 -2.234375 -4.234375l3.234375 -1.3125q0.6875 2.5625 2.515625 4.203125q1.84375 1.640625 4.328125 1.640625q2.484375 0 4.203125 -1.34375q1.71875 -1.34375 1.71875 -3.65625q0 -2.0 -1.46875 -3.296875q-1.453125 -1.3125 -4.78125 -2.421875l-1.796875 -0.640625q-3.03125 -1.09375 -4.953125 -2.84375q-1.921875 -1.765625 -1.921875 -4.890625q0 -2.03125 1.109375 -3.765625q1.125 -1.75 3.125 -2.78125q2.0 -1.046875 4.484375 -1.046875q2.484375 0 4.3125 0.921875q1.84375 0.921875 2.9375 2.25q1.109375 1.3125 1.546875 2.59375l-3.15625 1.359375q-0.4375 -1.484375 -1.859375 -2.6875q-1.421875 -1.203125 -3.734375 -1.203125q-2.203125 0 -3.765625 1.25q-1.5625 1.234375 -1.5625 3.109375q0 1.6875 1.3125 2.75q1.328125 1.0625 4.015625 1.984375l1.875 0.640625q3.640625 1.3125 5.671875 3.296875q2.046875 1.96875 2.046875 5.375q0 2.765625 -1.421875 4.640625q-1.421875 1.875 -3.578125 2.765625q-2.15625 0.875 -4.4375 0.875zm19.955017 -26.046875l-8.03125 0l0 -3.234375l19.4375 0l0 3.234375l-8.0 0l0 25.40625l-3.40625 0l0 -25.40625zm15.6449585 -3.234375l9.671875 0q2.359375 0 4.390625 1.078125q2.046875 1.078125 3.265625 3.03125q1.234375 1.9375 1.234375 4.375q0 2.0 -0.90625 3.71875q-0.90625 1.71875 -2.484375 2.875q-1.578125 1.15625 -3.5 1.5625l-0.078125 0.125l8.078125 11.71875l0 0.15625l-4.0 0l-7.796875 -11.6875l-4.484375 0l0 11.6875l-3.390625 0l0 -28.640625zm9.484375 13.796875q1.46875 0 2.765625 -0.671875q1.3125 -0.6875 2.078125 -1.90625q0.78125 -1.21875 0.78125 -2.734375q0 -1.328125 -0.6875 -2.515625q-0.671875 -1.203125 -1.890625 -1.96875q-1.21875 -0.765625 -2.8125 -0.765625l-6.328125 0l0 10.5625l6.09375 0zm27.236877 15.484375q-4.125 0 -7.484375 -2.0q-3.359375 -2.0 -5.28125 -5.4375q-1.921875 -3.4375 -1.921875 -7.515625q0 -4.09375 1.921875 -7.53125q1.921875 -3.4375 5.28125 -5.4375q3.359375 -2.0 7.484375 -2.0q4.109375 0 7.46875 2.0q3.359375 2.0 5.28125 5.4375q1.921875 3.4375 1.921875 7.53125q0 4.078125 -1.921875 7.515625q-1.921875 3.4375 -5.28125 5.4375q-3.359375 2.0 -7.46875 2.0zm0 -3.234375q3.078125 0 5.65625 -1.5q2.578125 -1.5 4.078125 -4.15625q1.5 -2.671875 1.5 -6.0625q0 -3.40625 -1.5 -6.0625q-1.5 -2.671875 -4.078125 -4.171875q-2.578125 -1.5 -5.65625 -1.5q-3.078125 0 -5.671875 1.5q-2.578125 1.5 -4.078125 4.171875q-1.5 2.65625 -1.5 6.0625q0 3.390625 1.5 6.0625q1.5 2.65625 4.078125 4.15625q2.59375 1.5 5.671875 1.5zm25.1568 -10.640625l-9.6875 -15.40625l3.96875 0l7.3125 12.0l0.171875 0l7.1875 -12.0l3.96875 0l-9.515625 15.40625l0 13.234375l-3.40625 0l0 -13.234375zm16.721863 -15.40625l16.5625 0l0 3.234375l-13.171875 0l0 9.484375l11.890625 0l0 3.203125l-11.890625 0l0 9.484375l13.171875 0l0 3.234375l-16.5625 0l0 -28.640625zm22.039978 0l8.640625 0q4.390625 0 7.671875 1.828125q3.28125 1.8125 5.03125 5.0625q1.765625 3.234375 1.765625 7.4375q0 4.1875 -1.765625 7.4375q-1.75 3.234375 -5.03125 5.0625q-3.28125 1.8125 -7.671875 1.8125l-8.640625 0l0 -28.640625zm8.640625 25.40625q5.078125 0 8.046875 -2.921875q2.984375 -2.921875 2.984375 -8.15625q0 -5.25 -2.984375 -8.171875q-2.96875 -2.921875 -8.046875 -2.921875l-5.25 0l0 22.171875l5.25 0z" fill-rule="nonzero"/><path fill="#000000" d="m541.9839 567.4648q-2.921875 -3.359375 -5.03125 -8.140625q-2.09375 -4.78125 -2.09375 -10.171875q0 -5.40625 2.09375 -10.1875q2.109375 -4.78125 5.03125 -8.140625l2.484375 1.765625q-2.71875 3.234375 -4.484375 7.625q-1.765625 4.375 -1.765625 8.9375q0 4.5625 1.765625 8.9375q1.765625 4.375 4.484375 7.625l-2.484375 1.75zm14.482483 -4.796875q-2.765625 0 -4.984375 -1.390625q-2.21875 -1.40625 -3.5 -3.859375q-1.28125 -2.46875 -1.28125 -5.59375q0 -3.078125 1.28125 -5.546875q1.28125 -2.484375 3.5 -3.890625q2.21875 -1.40625 4.984375 -1.40625q2.3125 0 4.15625 1.0625q1.84375 1.0625 2.796875 2.625l0.15625 0l-0.15625 -2.84375l0 -8.4375l3.40625 0l0 28.640625l-3.25 0l0 -3.0l-0.15625 0q-0.953125 1.515625 -2.796875 2.578125q-1.84375 1.0625 -4.15625 1.0625zm0.359375 -3.078125q1.796875 0 3.328125 -0.953125q1.546875 -0.96875 2.484375 -2.71875q0.9375 -1.765625 0.9375 -4.09375q0 -2.3125 -0.9375 -4.078125q-0.9375 -1.765625 -2.484375 -2.71875q-1.53125 -0.953125 -3.328125 -0.953125q-1.765625 0 -3.328125 0.953125q-1.546875 0.953125 -2.5 2.734375q-0.9375 1.78125 -0.9375 4.0625q0 2.28125 0.9375 4.0625q0.953125 1.78125 2.5 2.75q1.5625 0.953125 3.328125 0.953125zm23.911194 3.078125q-2.90625 0 -5.234375 -1.390625q-2.3125 -1.40625 -3.625 -3.859375q-1.296875 -2.46875 -1.296875 -5.546875q0 -2.921875 1.21875 -5.421875q1.21875 -2.5 3.484375 -3.984375q2.265625 -1.484375 5.171875 -1.484375q3.0 0 5.203125 1.34375q2.203125 1.34375 3.375 3.703125q1.1875 2.359375 1.1875 5.40625q0 0.46875 -0.078125 1.03125l-16.15625 0q0.109375 2.328125 1.109375 3.921875q1.0 1.59375 2.546875 2.40625q1.546875 0.796875 3.21875 0.796875q4.0 0 6.046875 -3.6875l2.875 1.40625q-1.28125 2.4375 -3.5625 3.90625q-2.28125 1.453125 -5.484375 1.453125zm5.890625 -13.0q-0.078125 -1.28125 -0.71875 -2.5625q-0.640625 -1.28125 -2.0 -2.15625q-1.359375 -0.875 -3.453125 -0.875q-2.390625 0 -4.078125 1.546875q-1.671875 1.53125 -2.1875 4.046875l12.4375 0zm14.282471 13.0q-2.25 0 -4.015625 -0.875q-1.75 -0.890625 -2.71875 -2.421875q-0.953125 -1.546875 -0.953125 -3.5q0 -3.25 2.4375 -5.0625q2.4375 -1.828125 6.15625 -1.828125q1.84375 0 3.421875 0.40625q1.578125 0.40625 2.421875 0.921875l0 -1.234375q0 -2.28125 -1.609375 -3.65625q-1.59375 -1.390625 -4.03125 -1.390625q-1.671875 0 -3.140625 0.75q-1.453125 0.734375 -2.296875 2.046875l-2.5625 -1.921875q1.203125 -1.828125 3.3125 -2.875q2.125 -1.046875 4.6875 -1.046875q4.15625 0 6.515625 2.1875q2.375 2.171875 2.375 5.9375l0 12.921875l-3.25 0l0 -2.921875l-0.15625 0q-0.875 1.484375 -2.640625 2.53125q-1.765625 1.03125 -3.953125 1.03125zm0.3125 -3.0q1.71875 0 3.203125 -0.875q1.484375 -0.890625 2.359375 -2.359375q0.875 -1.484375 0.875 -3.25q-0.953125 -0.640625 -2.359375 -1.03125q-1.390625 -0.40625 -2.953125 -0.40625q-2.796875 0 -4.21875 1.171875q-1.421875 1.15625 -1.421875 2.984375q0 1.6875 1.28125 2.734375q1.28125 1.03125 3.234375 1.03125zm22.883728 3.0q-2.765625 0 -4.984375 -1.390625q-2.21875 -1.40625 -3.5 -3.859375q-1.28125 -2.46875 -1.28125 -5.59375q0 -3.078125 1.28125 -5.546875q1.28125 -2.484375 3.5 -3.890625q2.21875 -1.40625 4.984375 -1.40625q2.3125 0 4.15625 1.0625q1.84375 1.0625 2.796875 2.625l0.15625 0l-0.15625 -2.84375l0 -8.4375l3.40625 0l0 28.640625l-3.25 0l0 -3.0l-0.15625 0q-0.953125 1.515625 -2.796875 2.578125q-1.84375 1.0625 -4.15625 1.0625zm0.359375 -3.078125q1.796875 0 3.328125 -0.953125q1.546875 -0.96875 2.484375 -2.71875q0.9375 -1.765625 0.9375 -4.09375q0 -2.3125 -0.9375 -4.078125q-0.9375 -1.765625 -2.484375 -2.71875q-1.53125 -0.953125 -3.328125 -0.953125q-1.765625 0 -3.328125 0.953125q-1.546875 0.953125 -2.5 2.734375q-0.9375 1.78125 -0.9375 4.0625q0 2.28125 0.9375 4.0625q0.953125 1.78125 2.5 2.75q1.5625 0.953125 3.328125 0.953125zm12.517517 2.4375l0 0zm18.920593 0.640625q-3.28125 0 -5.484375 -1.53125q-2.203125 -1.546875 -3.109375 -3.953125l3.03125 -1.359375q0.765625 1.84375 2.265625 2.84375q1.5 1.0 3.296875 1.0q1.921875 0 3.28125 -0.78125q1.359375 -0.78125 1.359375 -2.21875q0 -1.28125 -1.078125 -2.0625q-1.078125 -0.78125 -3.40625 -1.34375l-2.484375 -0.640625q-2.4375 -0.59375 -4.0 -2.03125q-1.546875 -1.4375 -1.546875 -3.71875q0 -1.765625 1.046875 -3.09375q1.0625 -1.34375 2.828125 -2.0625q1.765625 -0.734375 3.796875 -0.734375q2.6875 0 4.78125 1.171875q2.09375 1.15625 2.984375 3.234375l-2.96875 1.359375q-1.359375 -2.71875 -4.828125 -2.71875q-1.6875 0 -2.953125 0.78125q-1.25 0.78125 -1.25 1.984375q0 1.109375 0.875 1.8125q0.875 0.703125 2.640625 1.140625l2.96875 0.765625q3.0 0.75 4.515625 2.25q1.515625 1.5 1.515625 3.671875q0 1.875 -1.078125 3.296875q-1.078125 1.421875 -2.921875 2.1875q-1.84375 0.75 -4.078125 0.75zm19.43872 -0.328125q-1.234375 0 -2.296875 -0.390625q-1.0625 -0.40625 -1.78125 -1.078125q-1.59375 -1.53125 -1.59375 -4.203125l0 -11.953125l-3.5625 0l0 -3.09375l3.5625 0l0 -5.75l3.390625 0l0 5.75l5.0 0l0 3.09375l-5.0 0l0 11.109375q0 1.6875 0.640625 2.484375q0.765625 0.875 2.203125 0.875q1.234375 0 2.234375 -0.671875l0 3.3125q-0.59375 0.28125 -1.21875 0.390625q-0.625 0.125 -1.578125 0.125zm12.92749 0.328125q-2.25 0 -4.015625 -0.875q-1.75 -0.890625 -2.71875 -2.421875q-0.953125 -1.546875 -0.953125 -3.5q0 -3.25 2.4375 -5.0625q2.4375 -1.828125 6.15625 -1.828125q1.84375 0 3.421875 0.40625q1.578125 0.40625 2.421875 0.921875l0 -1.234375q0 -2.28125 -1.609375 -3.65625q-1.59375 -1.390625 -4.03125 -1.390625q-1.671875 0 -3.140625 0.75q-1.453125 0.734375 -2.296875 2.046875l-2.5625 -1.921875q1.203125 -1.828125 3.3125 -2.875q2.125 -1.046875 4.6875 -1.046875q4.15625 0 6.515625 2.1875q2.375 2.171875 2.375 5.9375l0 12.921875l-3.25 0l0 -2.921875l-0.15625 0q-0.875 1.484375 -2.640625 2.53125q-1.765625 1.03125 -3.953125 1.03125zm0.3125 -3.0q1.71875 0 3.203125 -0.875q1.484375 -0.890625 2.359375 -2.359375q0.875 -1.484375 0.875 -3.25q-0.953125 -0.640625 -2.359375 -1.03125q-1.390625 -0.40625 -2.953125 -0.40625q-2.796875 0 -4.21875 1.171875q-1.421875 1.15625 -1.421875 2.984375q0 1.6875 1.28125 2.734375q1.28125 1.03125 3.234375 1.03125zm21.840027 2.671875q-1.234375 0 -2.296875 -0.390625q-1.0625 -0.40625 -1.78125 -1.078125q-1.59375 -1.53125 -1.59375 -4.203125l0 -11.953125l-3.5625 0l0 -3.09375l3.5625 0l0 -5.75l3.390625 0l0 5.75l5.0 0l0 3.09375l-5.0 0l0 11.109375q0 1.6875 0.640625 2.484375q0.765625 0.875 2.203125 0.875q1.234375 0 2.234375 -0.671875l0 3.3125q-0.59375 0.28125 -1.21875 0.390625q-0.625 0.125 -1.578125 0.125zm14.994324 0.328125q-2.90625 0 -5.234375 -1.390625q-2.3125 -1.40625 -3.625 -3.859375q-1.296875 -2.46875 -1.296875 -5.546875q0 -2.921875 1.21875 -5.421875q1.21875 -2.5 3.484375 -3.984375q2.265625 -1.484375 5.171875 -1.484375q3.0 0 5.203125 1.34375q2.203125 1.34375 3.375 3.703125q1.1875 2.359375 1.1875 5.40625q0 0.46875 -0.078125 1.03125l-16.15625 0q0.109375 2.328125 1.109375 3.921875q1.0 1.59375 2.546875 2.40625q1.546875 0.796875 3.21875 0.796875q4.0 0 6.046875 -3.6875l2.875 1.40625q-1.28125 2.4375 -3.5625 3.90625q-2.28125 1.453125 -5.484375 1.453125zm5.890625 -13.0q-0.078125 -1.28125 -0.71875 -2.5625q-0.640625 -1.28125 -2.0 -2.15625q-1.359375 -0.875 -3.453125 -0.875q-2.390625 0 -4.078125 1.546875q-1.671875 1.53125 -2.1875 4.046875l12.4375 0zm5.8324585 16.046875q2.71875 -3.25 4.484375 -7.625q1.765625 -4.375 1.765625 -8.9375q0 -4.5625 -1.765625 -8.9375q-1.765625 -4.390625 -4.484375 -7.625l2.484375 -1.765625q2.921875 3.359375 5.015625 8.140625q2.109375 4.78125 2.109375 10.1875q0 5.390625 -2.109375 10.171875q-2.09375 4.78125 -5.015625 8.140625l-2.484375 -1.75z" fill-rule="nonzero"/><path fill="#cfe2f3" d="m812.09973 468.46194l199.87402 0l0 110.33072l-199.87402 0z" fill-rule="evenodd"/><path stroke="#000000" stroke-width="1.0" stroke-linejoin="round" stroke-linecap="butt" d="m812.09973 468.46194l199.87402 0l0 110.33072l-199.87402 0z" fill-rule="evenodd"/><path fill="#000000" d="m843.1774 538.6679q-4.15625 0 -7.5625 -1.953125q-3.390625 -1.96875 -5.34375 -5.390625q-1.9375 -3.421875 -1.9375 -7.609375q0 -4.203125 1.9375 -7.625q1.953125 -3.421875 5.34375 -5.375q3.40625 -1.96875 7.5625 -1.96875q3.203125 0 5.859375 1.203125q2.65625 1.203125 4.625 3.484375l-2.4375 2.359375q-1.640625 -1.96875 -3.59375 -2.890625q-1.9375 -0.921875 -4.453125 -0.921875q-3.125 0 -5.734375 1.46875q-2.59375 1.453125 -4.140625 4.125q-1.53125 2.65625 -1.53125 6.140625q0 3.46875 1.53125 6.140625q1.546875 2.65625 4.140625 4.125q2.609375 1.453125 5.734375 1.453125q5.203125 0 8.84375 -4.28125l2.46875 2.390625q-1.953125 2.359375 -4.890625 3.75q-2.9375 1.375 -6.421875 1.375zm16.202515 -29.28125l9.671875 0q2.359375 0 4.390625 1.078125q2.046875 1.078125 3.265625 3.03125q1.234375 1.9375 1.234375 4.375q0 2.0 -0.90625 3.71875q-0.90625 1.71875 -2.484375 2.875q-1.578125 1.15625 -3.5 1.5625l-0.078125 0.125l8.078125 11.71875l0 0.15625l-4.0 0l-7.796875 -11.6875l-4.484375 0l0 11.6875l-3.390625 0l0 -28.640625zm9.484375 13.796875q1.46875 0 2.765625 -0.671875q1.3125 -0.6875 2.078125 -1.90625q0.78125 -1.21875 0.78125 -2.734375q0 -1.328125 -0.6875 -2.515625q-0.671875 -1.203125 -1.890625 -1.96875q-1.21875 -0.765625 -2.8125 -0.765625l-6.328125 0l0 10.5625l6.09375 0zm13.955566 -13.796875l16.5625 0l0 3.234375l-13.171875 0l0 9.484375l11.890625 0l0 3.203125l-11.890625 0l0 9.484375l13.171875 0l0 3.234375l-16.5625 0l0 -28.640625zm30.321228 0l3.828125 0l10.890625 28.640625l-3.71875 0l-2.890625 -7.875l-12.390625 0l-2.890625 7.875l-3.71875 0l10.890625 -28.640625zm6.953125 17.5625l-3.84375 -10.328125l-1.109375 -3.078125l-0.171875 0l-1.109375 3.078125l-3.84375 10.328125l10.078125 0zm14.840576 -14.328125l-8.03125 0l0 -3.234375l19.437561 0l0 3.234375l-8.000061 0l0 25.40625l-3.40625 0l0 -25.40625zm15.64502 -3.234375l16.5625 0l0 3.234375l-13.171875 0l0 9.484375l11.890625 0l0 3.203125l-11.890625 0l0 9.484375l13.171875 0l0 3.234375l-16.5625 0l0 -28.640625zm22.039978 0l8.640625 0q4.390625 0 7.671875 1.828125q3.28125 1.8125 5.03125 5.0625q1.765625 3.234375 1.765625 7.4375q0 4.1875 -1.765625 7.4375q-1.75 3.234375 -5.03125 5.0625q-3.28125 1.8125 -7.671875 1.8125l-8.640625 0l0 -28.640625zm8.640625 25.40625q5.078125 0 8.046875 -2.921875q2.984375 -2.921875 2.984375 -8.15625q0 -5.25 -2.984375 -8.171875q-2.96875 -2.921875 -8.046875 -2.921875l-5.25 0l0 22.171875l5.25 0z" fill-rule="nonzero"/><path fill="#cfe2f3" d="m1057.3334 468.46194l195.14954 0l0 110.33072l-195.14954 0z" fill-rule="evenodd"/><path stroke="#000000" stroke-width="1.0" stroke-linejoin="round" stroke-linecap="butt" d="m1057.3334 468.46194l195.14954 0l0 110.33072l-195.14954 0z" fill-rule="evenodd"/><path fill="#000000" d="m1084.6514 538.6679q-2.15625 0 -4.1875 -0.890625q-2.015625 -0.90625 -3.578125 -2.640625q-1.5625 -1.75 -2.234375 -4.234375l3.234375 -1.3125q0.6875 2.5625 2.515625 4.203125q1.84375 1.640625 4.328125 1.640625q2.484375 0 4.203125 -1.34375q1.71875 -1.34375 1.71875 -3.65625q0 -2.0 -1.46875 -3.296875q-1.453125 -1.3125 -4.78125 -2.421875l-1.796875 -0.640625q-3.03125 -1.09375 -4.953125 -2.84375q-1.921875 -1.765625 -1.921875 -4.890625q0 -2.03125 1.109375 -3.765625q1.125 -1.75 3.125 -2.78125q2.0 -1.046875 4.484375 -1.046875q2.484375 0 4.3125 0.921875q1.84375 0.921875 2.9375 2.25q1.109375 1.3125 1.546875 2.59375l-3.15625 1.359375q-0.4375 -1.484375 -1.859375 -2.6875q-1.421875 -1.203125 -3.734375 -1.203125q-2.203125 0 -3.765625 1.25q-1.5625 1.234375 -1.5625 3.109375q0 1.6875 1.3125 2.75q1.328125 1.0625 4.015625 1.984375l1.875 0.640625q3.640625 1.3125 5.671875 3.296875q2.046875 1.96875 2.046875 5.375q0 2.765625 -1.421875 4.640625q-1.421875 1.875 -3.578125 2.765625q-2.15625 0.875 -4.4375 0.875zm19.954956 -26.046875l-8.03125 0l0 -3.234375l19.4375 0l0 3.234375l-8.0 0l0 25.40625l-3.40625 0l0 -25.40625zm21.326172 -3.234375l3.828125 0l10.890625 28.640625l-3.71875 0l-2.890625 -7.875l-12.390625 0l-2.890625 7.875l-3.71875 0l10.890625 -28.640625zm6.953125 17.5625l-3.84375 -10.328125l-1.109375 -3.078125l-0.171875 0l-1.109375 3.078125l-3.84375 10.328125l10.078125 0zm11.565674 -17.5625l9.671875 0q2.359375 0 4.390625 1.078125q2.046875 1.078125 3.265625 3.03125q1.234375 1.9375 1.234375 4.375q0 2.0 -0.90625 3.71875q-0.90625 1.71875 -2.484375 2.875q-1.578125 1.15625 -3.5 1.5625l-0.078125 0.125l8.078125 11.71875l0 0.15625l-4.0 0l-7.796875 -11.6875l-4.484375 0l0 11.6875l-3.390625 0l0 -28.640625zm9.484375 13.796875q1.46875 0 2.765625 -0.671875q1.3125 -0.6875 2.078125 -1.90625q0.78125 -1.21875 0.78125 -2.734375q0 -1.328125 -0.6875 -2.515625q-0.671875 -1.203125 -1.890625 -1.96875q-1.21875 -0.765625 -2.8125 -0.765625l-6.328125 0l0 10.5625l6.09375 0zm19.830566 -10.5625l-8.03125 0l0 -3.234375l19.4375 0l0 3.234375l-8.0 0l0 25.40625l-3.40625 0l0 -25.40625zm15.64502 -3.234375l16.5625 0l0 3.234375l-13.171875 0l0 9.484375l11.890625 0l0 3.203125l-11.890625 0l0 9.484375l13.171875 0l0 3.234375l-16.5625 0l0 -28.640625zm22.039917 0l8.640625 0q4.390625 0 7.671875 1.828125q3.28125 1.8125 5.03125 5.0625q1.765625 3.234375 1.765625 7.4375q0 4.1875 -1.765625 7.4375q-1.75 3.234375 -5.03125 5.0625q-3.28125 1.8125 -7.671875 1.8125l-8.640625 0l0 -28.640625zm8.640625 25.40625q5.078125 0 8.046875 -2.921875q2.984375 -2.921875 2.984375 -8.15625q0 -5.25 -2.984375 -8.171875q-2.96875 -2.921875 -8.046875 -2.921875l-5.25 0l0 22.171875l5.25 0z" fill-rule="nonzero"/><path fill="#cfe2f3" d="m1297.8425 468.5853l199.87402 0l0 110.33072l-199.87402 0z" fill-rule="evenodd"/><path stroke="#000000" stroke-width="1.0" stroke-linejoin="round" stroke-linecap="butt" d="m1297.8425 468.5853l199.87402 0l0 110.33072l-199.87402 0z" fill-rule="evenodd"/><path fill="#000000" d="m1311.5427 509.51004l9.671875 0q2.359375 0 4.390625 1.078125q2.046875 1.078125 3.265625 3.0312195q1.234375 1.9375 1.234375 4.375q0 2.0 -0.90625 3.71875q-0.90625 1.71875 -2.484375 2.875q-1.578125 1.15625 -3.5 1.5625l-0.078125 0.125l8.078125 11.71875l0 0.15625l-4.0 0l-7.796875 -11.6875l-4.484375 0l0 11.6875l-3.390625 0l0 -28.640594zm9.484375 13.7968445q1.46875 0 2.765625 -0.671875q1.3125 -0.6875 2.078125 -1.90625q0.78125 -1.21875 0.78125 -2.734375q0 -1.328125 -0.6875 -2.515625q-0.671875 -1.203125 -1.890625 -1.96875q-1.21875 -0.765625 -2.8125 -0.765625l-6.328125 0l0 10.5625l6.09375 0zm13.955566 -13.7968445l16.5625 0l0 3.2343445l-13.171875 0l0 9.484375l11.890625 0l0 3.203125l-11.890625 0l0 9.484375l13.171875 0l0 3.234375l-16.5625 0l0 -28.640594zm30.04004 29.28122q-2.15625 0 -4.1875 -0.890625q-2.015625 -0.90625 -3.578125 -2.640625q-1.5625 -1.75 -2.234375 -4.234375l3.234375 -1.3125q0.6875 2.5625 2.515625 4.203125q1.84375 1.640625 4.328125 1.640625q2.484375 0 4.203125 -1.34375q1.71875 -1.34375 1.71875 -3.65625q0 -2.0 -1.46875 -3.296875q-1.453125 -1.3125 -4.78125 -2.421875l-1.796875 -0.640625q-3.03125 -1.09375 -4.953125 -2.84375q-1.921875 -1.765625 -1.921875 -4.890625q0 -2.03125 1.109375 -3.765625q1.125 -1.7499695 3.125 -2.7812195q2.0 -1.046875 4.484375 -1.046875q2.484375 0 4.3125 0.921875q1.84375 0.921875 2.9375 2.2499695q1.109375 1.3125 1.546875 2.59375l-3.15625 1.359375q-0.4375 -1.484375 -1.859375 -2.6875q-1.421875 -1.203125 -3.734375 -1.203125q-2.203125 0 -3.765625 1.25q-1.5625 1.234375 -1.5625 3.109375q0 1.6875 1.3125 2.75q1.328125 1.0625 4.015625 1.984375l1.875 0.640625q3.640625 1.3125 5.671875 3.296875q2.046875 1.96875 2.046875 5.375q0 2.765625 -1.421875 4.640625q-1.421875 1.875 -3.578125 2.765625q-2.15625 0.875 -4.4375 0.875zm24.32373 0q-3.09375 0 -5.5 -1.421875q-2.390625 -1.421875 -3.71875 -3.953125q-1.3125 -2.546875 -1.3125 -5.859375l0 -18.046844l3.40625 0l0 18.203094q0 3.484375 1.828125 5.671875q1.84375 2.171875 5.296875 2.171875q3.4375 0 5.296875 -2.171875q1.859375 -2.1875 1.859375 -5.671875l0 -18.203094l3.390625 0l0 18.046844q0 3.3125 -1.265625 5.875q-1.25 2.5625 -3.65625 3.96875q-2.390625 1.390625 -5.625 1.390625zm16.276245 -29.28122l4.921875 0l9.109375 23.484344l0.171875 0l9.109375 -23.484344l4.921875 0l0 28.640594l-3.359375 0l0 -18.203125l0.15625 -5.4375l-0.15625 0l-9.359375 23.640625l-2.796875 0l-9.359375 -23.640625l-0.15625 0l0.15625 5.4375l0 18.203125l-3.359375 0l0 -28.640594zm34.639893 0l16.5625 0l0 3.2343445l-13.171875 0l0 9.484375l11.890625 0l0 3.203125l-11.890625 0l0 9.484375l13.171875 0l0 3.234375l-16.5625 0l0 -28.640594zm22.04004 0l8.640625 0q4.390625 0 7.671875 1.828125q3.28125 1.8124695 5.03125 5.0624695q1.765625 3.234375 1.765625 7.4375q0 4.1875 -1.765625 7.4375q-1.75 3.234375 -5.03125 5.0625q-3.28125 1.8125 -7.671875 1.8125l-8.640625 0l0 -28.640594zm8.640625 25.40622q5.078125 0 8.046875 -2.921875q2.984375 -2.921875 2.984375 -8.15625q0 -5.25 -2.984375 -8.171875q-2.96875 -2.921875 -8.046875 -2.921875l-5.25 0l0 22.171875l5.25 0z" fill-rule="nonzero"/><path fill="#000000" fill-opacity="0.0" d="m343.56955 110.32021l0 358.14172" fill-rule="evenodd"/><path stroke="#000000" stroke-width="8.0" stroke-linejoin="round" stroke-linecap="butt" d="m343.56955 110.32021l0 358.14172" fill-rule="evenodd"/><path fill="#000000" fill-opacity="0.0" d="m348.4882 168.61942l560.9133 0" fill-rule="evenodd"/><path stroke="#000000" stroke-width="8.0" stroke-linejoin="round" stroke-linecap="butt" d="m348.4882 168.61942l512.9133 0" fill-rule="evenodd"/><path fill="#000000" stroke="#000000" stroke-width="8.0" stroke-linecap="butt" d="m861.40155 181.83328l36.30481 -13.213867l-36.30481 -13.213852z" fill-rule="evenodd"/><path fill="#000000" fill-opacity="0.0" d="m640.80316 110.3294l0 358.14172" fill-rule="evenodd"/><path stroke="#000000" stroke-width="8.0" stroke-linejoin="round" stroke-linecap="butt" d="m640.80316 110.3294l0 358.14172" fill-rule="evenodd"/><path fill="#000000" fill-opacity="0.0" d="m913.34644 110.3294l0 358.14172" fill-rule="evenodd"/><path stroke="#000000" stroke-width="8.0" stroke-linejoin="round" stroke-linecap="butt" d="m913.34644 110.3294l0 358.14172" fill-rule="evenodd"/><path fill="#000000" fill-opacity="0.0" d="m1155.248 110.3189l0 358.14172" fill-rule="evenodd"/><path stroke="#000000" stroke-width="8.0" stroke-linejoin="round" stroke-linecap="butt" d="m1155.248 110.3189l0 358.14172" fill-rule="evenodd"/><path fill="#000000" fill-opacity="0.0" d="m1387.9751 110.3294l0 358.14172" fill-rule="evenodd"/><path stroke="#000000" stroke-width="8.0" stroke-linejoin="round" stroke-linecap="butt" d="m1387.9751 110.3294l0 358.14172" fill-rule="evenodd"/><path fill="#000000" fill-opacity="0.0" d="m917.1207 210.04724l234.99219 0" fill-rule="evenodd"/><path stroke="#000000" stroke-width="8.0" stroke-linejoin="round" stroke-linecap="butt" stroke-dasharray="32.0,24.0" d="m917.1207 210.04724l186.99219 0" fill-rule="evenodd"/><path fill="#000000" stroke="#000000" stroke-width="8.0" stroke-linecap="butt" d="m1104.1129 223.26111l36.304688 -13.213867l-36.304688 -13.213852z" fill-rule="evenodd"/><path fill="#000000" fill-opacity="0.0" d="m636.23883 433.4567l274.26776 0" fill-rule="evenodd"/><path stroke="#000000" stroke-width="8.0" stroke-linejoin="round" stroke-linecap="butt" stroke-dasharray="32.0,24.0" d="m684.23883 433.4567l226.26776 0" fill-rule="evenodd"/><path fill="#000000" stroke="#000000" stroke-width="8.0" stroke-linecap="butt" d="m684.23883 420.24283l-36.30475 13.213867l36.30475 13.213867z" fill-rule="evenodd"/><path fill="#000000" fill-opacity="0.0" d="m917.1207 398.3071l237.03943 0" fill-rule="evenodd"/><path stroke="#000000" stroke-width="8.0" stroke-linejoin="round" stroke-linecap="butt" stroke-dasharray="32.0,24.0" d="m965.1207 398.3071l189.03943 0" fill-rule="evenodd"/><path fill="#000000" stroke="#000000" stroke-width="8.0" stroke-linecap="butt" d="m965.1207 385.09323l-36.30475 13.213867l36.30475 13.213837z" fill-rule="evenodd"/><path fill="#000000" fill-opacity="0.0" d="m1158.1417 254.60104l234.64563 0" fill-rule="evenodd"/><path stroke="#000000" stroke-width="8.0" stroke-linejoin="round" stroke-linecap="butt" stroke-dasharray="32.0,24.0" d="m1158.1417 254.60104l186.64563 0" fill-rule="evenodd"/><path fill="#000000" stroke="#000000" stroke-width="8.0" stroke-linecap="butt" d="m1344.7874 267.8149l36.30481 -13.213867l-36.30481 -13.213852z" fill-rule="evenodd"/><path fill="#000000" fill-opacity="0.0" d="m1154.1602 361.5315l236.88184 0.72442627" fill-rule="evenodd"/><path stroke="#000000" stroke-width="8.0" stroke-linejoin="round" stroke-linecap="butt" stroke-dasharray="32.0,24.0" d="m1202.1599 361.67828l188.88208 0.5776367" fill-rule="evenodd"/><path fill="#000000" stroke="#000000" stroke-width="8.0" stroke-linecap="butt" d="m1202.2003 348.46448l-36.345093 13.102783l36.264282 13.324829z" fill-rule="evenodd"/><path fill="#000000" fill-opacity="0.0" d="m413.51968 110.33071l199.874 0l0 59.149605l-199.874 0z" fill-rule="evenodd"/><path fill="#000000" d="m435.70718 150.56633q-3.296875 0 -5.984375 -1.59375q-2.6875 -1.609375 -4.234375 -4.359375q-1.53125 -2.75 -1.53125 -6.015625q0 -3.265625 1.53125 -6.015625q1.546875 -2.75 4.234375 -4.34375q2.6875 -1.6093674 5.984375 -1.6093674q3.296875 0 5.984375 1.6093674q2.6875 1.59375 4.21875 4.34375q1.53125 2.75 1.53125 6.015625q0 3.265625 -1.53125 6.015625q-1.53125 2.75 -4.21875 4.359375q-2.6875 1.59375 -5.984375 1.59375zm0 -2.59375q2.453125 0 4.515625 -1.203125q2.078125 -1.203125 3.265625 -3.328125q1.203125 -2.125 1.203125 -4.84375q0 -2.71875 -1.203125 -4.84375q-1.1875 -2.140625 -3.265625 -3.328125q-2.0625 -1.203125 -4.515625 -1.203125q-2.46875 0 -4.53125 1.203125q-2.0625 1.1875 -3.265625 3.328125q-1.203125 2.125 -1.203125 4.84375q0 2.71875 1.203125 4.84375q1.203125 2.125 3.265625 3.328125q2.0625 1.203125 4.53125 1.203125zm15.7430725 -20.828117l3.328125 0l11.484375 18.234367l0.125 0l-0.125 -4.421875l0 -13.812492l2.71875 0l0 22.906242l-2.8125 0l-12.0 -19.109375l-0.125 0l0.125 4.421875l0 14.6875l-2.71875 0l0 -22.906242zm20.093536 27.578117l15.234375 0l0 2.234375l-15.234375 0l0 -2.234375zm26.624542 -4.15625q-3.328125 0 -6.046875 -1.5625q-2.71875 -1.578125 -4.28125 -4.3125q-1.546875 -2.734375 -1.546875 -6.09375q0 -3.359375 1.546875 -6.09375q1.5625 -2.734375 4.28125 -4.296875q2.71875 -1.5781174 6.046875 -1.5781174q2.5625 0 4.6875 0.96875q2.125 0.9531174 3.703125 2.7656174l-1.953125 1.890625q-1.3125 -1.5625 -2.875 -2.296875q-1.546875 -0.734375 -3.5625 -0.734375q-2.5 0 -4.578125 1.171875q-2.078125 1.15625 -3.3125 3.296875q-1.234375 2.125 -1.234375 4.90625q0 2.78125 1.234375 4.90625q1.234375 2.125 3.3125 3.296875q2.078125 1.171875 4.578125 1.171875q4.15625 0 7.078125 -3.421875l1.984375 1.921875q-1.578125 1.875 -3.9375 2.984375q-2.34375 1.109375 -5.125 1.109375zm12.962036 -23.421867l7.734375 0q1.890625 0 3.515625 0.8593674q1.640625 0.859375 2.609375 2.421875q0.984375 1.546875 0.984375 3.5q0 1.59375 -0.71875 2.96875q-0.71875 1.375 -1.984375 2.3125q-1.265625 0.921875 -2.796875 1.25l-0.0625 0.09375l6.453125 9.375l0 0.125l-3.1875 0l-6.25 -9.34375l-3.578125 0l0 9.34375l-2.71875 0l0 -22.906242zm7.578125 11.031242q1.1875 0 2.21875 -0.53125q1.046875 -0.546875 1.671875 -1.515625q0.625 -0.984375 0.625 -2.203125q0 -1.0625 -0.546875 -2.015625q-0.546875 -0.96875 -1.53125 -1.5625q-0.96875 -0.609375 -2.234375 -0.609375l-5.0625 0l0 8.4375l4.859375 0zm11.17395 -11.031242l13.25 0l0 2.5937424l-10.53125 0l0 7.578125l9.5 0l0 2.5625l-9.5 0l0 7.578125l10.53125 0l0 2.59375l-13.25 0l0 -22.906242zm24.257019 0l3.0625 0l8.703125 22.906242l-2.96875 0l-2.296875 -6.296875l-9.921875 0l-2.3125 6.296875l-2.96875 0l8.703125 -22.906242zm5.5625 14.046867l-3.0625 -8.265625l-0.90625 -2.453125l-0.125 0l-0.890625 2.453125l-3.078125 8.265625l8.0625 0zm11.875671 -11.453125l-6.4375 0l0 -2.5937424l15.5625 0l0 2.5937424l-6.40625 0l0 20.3125l-2.71875 0l0 -20.3125zm12.512878 -2.5937424l13.25 0l0 2.5937424l-10.53125 0l0 7.578125l9.5 0l0 2.5625l-9.5 0l0 7.578125l10.53125 0l0 2.59375l-13.25 0l0 -22.906242z" fill-rule="nonzero"/><path fill="#000000" fill-opacity="0.0" d="m913.0827 146.61417l199.87396 0l0 59.149612l-199.87396 0z" fill-rule="evenodd"/><path fill="#000000" d="m948.97504 186.8498q-3.296875 0 -5.984375 -1.59375q-2.6875 -1.609375 -4.234375 -4.359375q-1.53125 -2.75 -1.53125 -6.015625q0 -3.265625 1.53125 -6.015625q1.546875 -2.75 4.234375 -4.34375q2.6875 -1.609375 5.984375 -1.609375q3.296875 0 5.984375 1.609375q2.6875 1.59375 4.21875 4.34375q1.53125 2.75 1.53125 6.015625q0 3.265625 -1.53125 6.015625q-1.53125 2.75 -4.21875 4.359375q-2.6875 1.59375 -5.984375 1.59375zm0 -2.59375q2.453125 0 4.515625 -1.203125q2.078125 -1.203125 3.265625 -3.328125q1.203125 -2.125 1.203125 -4.84375q0 -2.71875 -1.203125 -4.84375q-1.1875 -2.140625 -3.265625 -3.328125q-2.0625 -1.203125 -4.515625 -1.203125q-2.46875 0 -4.53125 1.203125q-2.0625 1.1875 -3.265625 3.328125q-1.203125 2.125 -1.203125 4.84375q0 2.71875 1.203125 4.84375q1.203125 2.125 3.265625 3.328125q2.0625 1.203125 4.53125 1.203125zm15.743042 -20.828125l3.328125 0l11.484375 18.234375l0.125 0l-0.125 -4.421875l0 -13.8125l2.71875 0l0 22.90625l-2.8125 0l-12.0 -19.109375l-0.125 0l0.125 4.421875l0 14.6875l-2.71875 0l0 -22.90625zm20.093567 27.578125l15.234375 0l0 2.234375l-15.234375 0l0 -2.234375zm24.18512 -4.15625q-1.71875 0 -3.34375 -0.71875q-1.609375 -0.71875 -2.859375 -2.109375q-1.25 -1.40625 -1.796875 -3.390625l2.59375 -1.046875q0.546875 2.046875 2.015625 3.359375q1.484375 1.3125 3.46875 1.3125q1.984375 0 3.359375 -1.0625q1.375 -1.078125 1.375 -2.9375q0 -1.609375 -1.171875 -2.640625q-1.171875 -1.046875 -3.828125 -1.9375l-1.4375 -0.515625q-2.4375 -0.859375 -3.96875 -2.265625q-1.53125 -1.40625 -1.53125 -3.90625q0 -1.625 0.890625 -3.015625q0.890625 -1.40625 2.484375 -2.234375q1.609375 -0.828125 3.59375 -0.828125q1.984375 0 3.453125 0.734375q1.484375 0.734375 2.359375 1.796875q0.875 1.046875 1.234375 2.078125l-2.53125 1.078125q-0.359375 -1.171875 -1.5 -2.125q-1.125 -0.96875 -2.984375 -0.96875q-1.75 0 -3.0 1.0q-1.25 0.984375 -1.25 2.484375q0 1.34375 1.046875 2.203125q1.0625 0.84375 3.203125 1.578125l1.515625 0.5q2.90625 1.0625 4.53125 2.65625q1.640625 1.578125 1.640625 4.296875q0 2.203125 -1.140625 3.71875q-1.140625 1.5 -2.875 2.203125q-1.71875 0.703125 -3.546875 0.703125zm15.976501 -20.828125l-6.437439 0l0 -2.59375l15.562439 0l0 2.59375l-6.40625 0l0 20.3125l-2.71875 0l0 -20.3125zm17.057983 -2.59375l3.0625 0l8.703125 22.90625l-2.96875 0l-2.296875 -6.296875l-9.921875 0l-2.3125 6.296875l-2.96875 0l8.703125 -22.90625zm5.5625 14.046875l-3.0625 -8.265625l-0.90625 -2.453125l-0.125 0l-0.890625 2.453125l-3.078125 8.265625l8.0625 0zm9.252563 -14.046875l7.734375 0q1.890625 0 3.515625 0.859375q1.640625 0.859375 2.609375 2.421875q0.984375 1.546875 0.984375 3.5q0 1.59375 -0.71875 2.96875q-0.71875 1.375 -1.984375 2.3125q-1.265625 0.921875 -2.796875 1.25l-0.0625 0.09375l6.453125 9.375l0 0.125l-3.1875 0l-6.25 -9.34375l-3.578125 0l0 9.34375l-2.71875 0l0 -22.90625zm7.578125 11.03125q1.1875 0 2.21875 -0.53125q1.046875 -0.546875 1.671875 -1.515625q0.625 -0.984375 0.625 -2.203125q0 -1.0625 -0.546875 -2.015625q-0.546875 -0.96875 -1.53125 -1.5625q-0.96875 -0.609375 -2.234375 -0.609375l-5.0625 0l0 8.4375l4.859375 0zm15.876953 -8.4375l-6.4375 0l0 -2.59375l15.5625 0l0 2.59375l-6.40625 0l0 20.3125l-2.71875 0l0 -20.3125z" fill-rule="nonzero"/><path fill="#000000" fill-opacity="0.0" d="m1141.3478 185.48032l220.59839 0l0 59.149612l-220.59839 0z" fill-rule="evenodd"/><path fill="#000000" d="m1172.4023 225.71594q-3.296875 0 -5.984375 -1.59375q-2.6875 -1.609375 -4.234375 -4.359375q-1.53125 -2.75 -1.53125 -6.015625q0 -3.265625 1.53125 -6.015625q1.546875 -2.75 4.234375 -4.34375q2.6875 -1.609375 5.984375 -1.609375q3.296875 0 5.984375 1.609375q2.6875 1.59375 4.21875 4.34375q1.53125 2.75 1.53125 6.015625q0 3.265625 -1.53125 6.015625q-1.53125 2.75 -4.21875 4.359375q-2.6875 1.59375 -5.984375 1.59375zm0 -2.59375q2.453125 0 4.515625 -1.203125q2.078125 -1.203125 3.265625 -3.328125q1.203125 -2.125 1.203125 -4.84375q0 -2.71875 -1.203125 -4.84375q-1.1875 -2.140625 -3.265625 -3.328125q-2.0625 -1.203125 -4.515625 -1.203125q-2.46875 0 -4.53125 1.203125q-2.0625 1.1875 -3.265625 3.328125q-1.203125 2.125 -1.203125 4.84375q0 2.71875 1.203125 4.84375q1.203125 2.125 3.265625 3.328125q2.0625 1.203125 4.53125 1.203125zm15.743042 -20.828125l3.328125 0l11.484375 18.234375l0.125 0l-0.125 -4.421875l0 -13.8125l2.71875 0l0 22.90625l-2.8125 0l-12.0 -19.109375l-0.125 0l0.125 4.421875l0 14.6875l-2.71875 0l0 -22.90625zm20.093506 27.578125l15.234375 0l0 2.234375l-15.234375 0l0 -2.234375zm17.794556 -27.578125l7.734375 0q1.890625 0 3.515625 0.859375q1.640625 0.859375 2.609375 2.421875q0.984375 1.546875 0.984375 3.5q0 1.59375 -0.71875 2.96875q-0.71875 1.375 -1.984375 2.3125q-1.265625 0.921875 -2.796875 1.25l-0.0625 0.09375l6.453125 9.375l0 0.125l-3.1875 0l-6.25 -9.34375l-3.578125 0l0 9.34375l-2.71875 0l0 -22.90625zm7.578125 11.03125q1.1875 0 2.21875 -0.53125q1.046875 -0.546875 1.671875 -1.515625q0.625 -0.984375 0.625 -2.203125q0 -1.0625 -0.546875 -2.015625q-0.546875 -0.96875 -1.53125 -1.5625q-0.96875 -0.609375 -2.234375 -0.609375l-5.0625 0l0 8.4375l4.859375 0zm11.17395 -11.03125l13.25 0l0 2.59375l-10.53125 0l0 7.578125l9.5 0l0 2.5625l-9.5 0l0 7.578125l10.53125 0l0 2.59375l-13.25 0l0 -22.90625zm24.022583 23.421875q-1.71875 0 -3.34375 -0.71875q-1.609375 -0.71875 -2.859375 -2.109375q-1.25 -1.40625 -1.796875 -3.390625l2.59375 -1.046875q0.546875 2.046875 2.015625 3.359375q1.484375 1.3125 3.46875 1.3125q1.984375 0 3.359375 -1.0625q1.375 -1.078125 1.375 -2.9375q0 -1.609375 -1.171875 -2.640625q-1.171875 -1.046875 -3.828125 -1.9375l-1.4375 -0.515625q-2.4375 -0.859375 -3.96875 -2.265625q-1.53125 -1.40625 -1.53125 -3.90625q0 -1.625 0.890625 -3.015625q0.890625 -1.40625 2.484375 -2.234375q1.609375 -0.828125 3.59375 -0.828125q1.984375 0 3.453125 0.734375q1.484375 0.734375 2.359375 1.796875q0.875 1.046875 1.234375 2.078125l-2.53125 1.078125q-0.359375 -1.171875 -1.5 -2.125q-1.125 -0.96875 -2.984375 -0.96875q-1.75 0 -3.0 1.0q-1.25 0.984375 -1.25 2.484375q0 1.34375 1.046875 2.203125q1.0625 0.84375 3.203125 1.578125l1.515625 0.5q2.90625 1.0625 4.53125 2.65625q1.640625 1.578125 1.640625 4.296875q0 2.203125 -1.140625 3.71875q-1.140625 1.5 -2.875 2.203125q-1.71875 0.703125 -3.546875 0.703125zm19.468384 0q-2.46875 0 -4.390625 -1.140625q-1.921875 -1.140625 -2.984375 -3.171875q-1.046875 -2.03125 -1.046875 -4.6875l0 -14.421875l2.71875 0l0 14.546875q0 2.796875 1.46875 4.546875q1.484375 1.734375 4.234375 1.734375q2.75 0 4.234375 -1.734375q1.484375 -1.75 1.484375 -4.546875l0 -14.546875l2.71875 0l0 14.421875q0 2.65625 -1.015625 4.703125q-1.0 2.046875 -2.921875 3.171875q-1.90625 1.125 -4.5 1.125zm13.021118 -23.421875l3.9375 0l7.296875 18.78125l0.125 0l7.296875 -18.78125l3.9375 0l0 22.90625l-2.6875 0l0 -14.5625l0.125 -4.34375l-0.125 0l-7.5 18.90625l-2.234375 0l-7.484375 -18.90625l-0.125 0l0.125 4.34375l0 14.5625l-2.6875 0l0 -22.90625zm27.712036 0l13.25 0l0 2.59375l-10.53125 0l0 7.578125l9.5 0l0 2.5625l-9.5 0l0 7.578125l10.53125 0l0 2.59375l-13.25 0l0 -22.90625z" fill-rule="nonzero"/><path fill="#000000" fill-opacity="0.0" d="m1190.9213 294.5223l220.59839 0l0 59.149597l-220.59839 0z" fill-rule="evenodd"/><path fill="#000000" d="m1235.3678 334.75793q-3.296875 0 -5.984375 -1.59375q-2.6875 -1.609375 -4.234375 -4.359375q-1.53125 -2.75 -1.53125 -6.015625q0 -3.265625 1.53125 -6.015625q1.546875 -2.75 4.234375 -4.34375q2.6875 -1.609375 5.984375 -1.609375q3.296875 0 5.984375 1.609375q2.6875 1.59375 4.21875 4.34375q1.53125 2.75 1.53125 6.015625q0 3.265625 -1.53125 6.015625q-1.53125 2.75 -4.21875 4.359375q-2.6875 1.59375 -5.984375 1.59375zm0 -2.59375q2.453125 0 4.515625 -1.203125q2.078125 -1.203125 3.265625 -3.328125q1.203125 -2.125 1.203125 -4.84375q0 -2.71875 -1.203125 -4.84375q-1.1875 -2.140625 -3.265625 -3.328125q-2.0625 -1.203125 -4.515625 -1.203125q-2.46875 0 -4.53125 1.203125q-2.0625 1.1875 -3.265625 3.328125q-1.203125 2.125 -1.203125 4.84375q0 2.71875 1.203125 4.84375q1.203125 2.125 3.265625 3.328125q2.0625 1.203125 4.53125 1.203125zm15.743042 -20.828125l3.328125 0l11.484375 18.234375l0.125 0l-0.125 -4.421875l0 -13.8125l2.71875 0l0 22.90625l-2.8125 0l-12.0 -19.109375l-0.125 0l0.125 4.421875l0 14.6875l-2.71875 0l0 -22.90625zm20.093628 27.578125l15.234375 0l0 2.234375l-15.234375 0l0 -2.234375zm17.794434 -27.578125l7.703125 0q1.921875 0 3.546875 0.859375q1.640625 0.859375 2.609375 2.421875q0.984375 1.546875 0.984375 3.5q0 1.953125 -0.984375 3.5q-0.96875 1.546875 -2.609375 2.421875q-1.625 0.859375 -3.546875 0.859375l-4.984375 0l0 9.34375l-2.71875 0l0 -22.90625zm7.78125 10.96875q1.265625 0 2.234375 -0.609375q0.984375 -0.609375 1.53125 -1.5625q0.546875 -0.96875 0.546875 -2.015625q0 -1.0625 -0.546875 -2.015625q-0.546875 -0.96875 -1.53125 -1.5625q-0.96875 -0.609375 -2.234375 -0.609375l-5.0625 0l0 8.375l5.0625 0zm15.035767 -10.96875l3.0625 0l8.703125 22.90625l-2.96875 0l-2.296875 -6.296875l-9.921875 0l-2.3125 6.296875l-2.96875 0l8.703125 -22.90625zm5.5625 14.046875l-3.0625 -8.265625l-0.90625 -2.453125l-0.125 0l-0.890625 2.453125l-3.078125 8.265625l8.0625 0zm16.807617 9.375q-2.46875 0 -4.390625 -1.140625q-1.921875 -1.140625 -2.984375 -3.171875q-1.046875 -2.03125 -1.046875 -4.6875l0 -14.421875l2.71875 0l0 14.546875q0 2.796875 1.46875 4.546875q1.484375 1.734375 4.234375 1.734375q2.75 0 4.234375 -1.734375q1.484375 -1.75 1.484375 -4.546875l0 -14.546875l2.71875 0l0 14.421875q0 2.65625 -1.015625 4.703125q-1.0 2.046875 -2.921875 3.171875q-1.90625 1.125 -4.5 1.125zm19.411621 0q-1.71875 0 -3.34375 -0.71875q-1.609375 -0.71875 -2.859375 -2.109375q-1.25 -1.40625 -1.796875 -3.390625l2.59375 -1.046875q0.546875 2.046875 2.015625 3.359375q1.484375 1.3125 3.46875 1.3125q1.984375 0 3.359375 -1.0625q1.375 -1.078125 1.375 -2.9375q0 -1.609375 -1.171875 -2.640625q-1.171875 -1.046875 -3.828125 -1.9375l-1.4375 -0.515625q-2.4375 -0.859375 -3.96875 -2.265625q-1.53125 -1.40625 -1.53125 -3.90625q0 -1.625 0.890625 -3.015625q0.890625 -1.40625 2.484375 -2.234375q1.609375 -0.828125 3.59375 -0.828125q1.984375 0 3.453125 0.734375q1.484375 0.734375 2.359375 1.796875q0.875 1.046875 1.234375 2.078125l-2.53125 1.078125q-0.359375 -1.171875 -1.5 -2.125q-1.125 -0.96875 -2.984375 -0.96875q-1.75 0 -3.0 1.0q-1.25 0.984375 -1.25 2.484375q0 1.34375 1.046875 2.203125q1.0625 0.84375 3.203125 1.578125l1.515625 0.5q2.90625 1.0625 4.53125 2.65625q1.640625 1.578125 1.640625 4.296875q0 2.203125 -1.140625 3.71875q-1.140625 1.5 -2.875 2.203125q-1.71875 0.703125 -3.546875 0.703125zm11.593384 -23.421875l13.25 0l0 2.59375l-10.53125 0l0 7.578125l9.5 0l0 2.5625l-9.5 0l0 7.578125l10.53125 0l0 2.59375l-13.25 0l0 -22.90625z" fill-rule="nonzero"/><path fill="#000000" fill-opacity="0.0" d="m969.08136 332.01837l199.87396 0l0 59.149597l-199.87396 0z" fill-rule="evenodd"/><path fill="#000000" d="m1010.7177 372.254q-3.296875 0 -5.984375 -1.59375q-2.6875 -1.609375 -4.234375 -4.359375q-1.53125 -2.75 -1.53125 -6.015625q0 -3.265625 1.53125 -6.015625q1.546875 -2.75 4.234375 -4.34375q2.6875 -1.609375 5.984375 -1.609375q3.296875 0 5.984375 1.609375q2.6875 1.59375 4.21875 4.34375q1.53125 2.75 1.53125 6.015625q0 3.265625 -1.53125 6.015625q-1.53125 2.75 -4.21875 4.359375q-2.6875 1.59375 -5.984375 1.59375zm0 -2.59375q2.453125 0 4.515625 -1.203125q2.078125 -1.203125 3.265625 -3.328125q1.203125 -2.125 1.203125 -4.84375q0 -2.71875 -1.203125 -4.84375q-1.1875 -2.140625 -3.265625 -3.328125q-2.0625 -1.203125 -4.515625 -1.203125q-2.46875 0 -4.53125 1.203125q-2.0625 1.1875 -3.265625 3.328125q-1.203125 2.125 -1.203125 4.84375q0 2.71875 1.203125 4.84375q1.203125 2.125 3.265625 3.328125q2.0625 1.203125 4.53125 1.203125zm15.743103 -20.828125l3.328125 0l11.484375 18.234375l0.125 0l-0.125 -4.421875l0 -13.8125l2.71875 0l0 22.90625l-2.8125 0l-12.0 -19.109375l-0.125 0l0.125 4.421875l0 14.6875l-2.71875 0l0 -22.90625zm20.093506 27.578125l15.234375 0l0 2.234375l-15.234375 0l0 -2.234375zm24.18518 -4.15625q-1.71875 0 -3.34375 -0.71875q-1.609375 -0.71875 -2.859375 -2.109375q-1.25 -1.40625 -1.796875 -3.390625l2.59375 -1.046875q0.546875 2.046875 2.015625 3.359375q1.484375 1.3125 3.46875 1.3125q1.984375 0 3.359375 -1.0625q1.375 -1.078125 1.375 -2.9375q0 -1.609375 -1.171875 -2.640625q-1.171875 -1.046875 -3.828125 -1.9375l-1.4375 -0.515625q-2.4375 -0.859375 -3.96875 -2.265625q-1.53125 -1.40625 -1.53125 -3.90625q0 -1.625 0.890625 -3.015625q0.890625 -1.40625 2.484375 -2.234375q1.609375 -0.828125 3.59375 -0.828125q1.984375 0 3.453125 0.734375q1.484375 0.734375 2.359375 1.796875q0.875 1.046875 1.234375 2.078125l-2.53125 1.078125q-0.359375 -1.171875 -1.5 -2.125q-1.125 -0.96875 -2.984375 -0.96875q-1.75 0 -3.0 1.0q-1.25 0.984375 -1.25 2.484375q0 1.34375 1.046875 2.203125q1.0625 0.84375 3.203125 1.578125l1.515625 0.5q2.90625 1.0625 4.53125 2.65625q1.640625 1.578125 1.640625 4.296875q0 2.203125 -1.140625 3.71875q-1.140625 1.5 -2.875 2.203125q-1.71875 0.703125 -3.546875 0.703125zm15.9765625 -20.828125l-6.4375 0l0 -2.59375l15.5625 0l0 2.59375l-6.40625 0l0 20.3125l-2.71875 0l0 -20.3125zm22.177856 20.828125q-3.296875 0 -5.984375 -1.59375q-2.6875 -1.609375 -4.234375 -4.359375q-1.53125 -2.75 -1.53125 -6.015625q0 -3.265625 1.53125 -6.015625q1.546875 -2.75 4.234375 -4.34375q2.6875 -1.609375 5.984375 -1.609375q3.296875 0 5.984375 1.609375q2.6875 1.59375 4.21875 4.34375q1.53125 2.75 1.53125 6.015625q0 3.265625 -1.53125 6.015625q-1.53125 2.75 -4.21875 4.359375q-2.6875 1.59375 -5.984375 1.59375zm0 -2.59375q2.453125 0 4.515625 -1.203125q2.078125 -1.203125 3.265625 -3.328125q1.203125 -2.125 1.203125 -4.84375q0 -2.71875 -1.203125 -4.84375q-1.1875 -2.140625 -3.265625 -3.328125q-2.0625 -1.203125 -4.515625 -1.203125q-2.46875 0 -4.53125 1.203125q-2.0625 1.1875 -3.265625 3.328125q-1.203125 2.125 -1.203125 4.84375q0 2.71875 1.203125 4.84375q1.203125 2.125 3.265625 3.328125q2.0625 1.203125 4.53125 1.203125zm15.743042 -20.828125l7.703125 0q1.921875 0 3.546875 0.859375q1.640625 0.859375 2.609375 2.421875q0.984375 1.546875 0.984375 3.5q0 1.953125 -0.984375 3.5q-0.96875 1.546875 -2.609375 2.421875q-1.625 0.859375 -3.546875 0.859375l-4.984375 0l0 9.34375l-2.71875 0l0 -22.90625zm7.78125 10.96875q1.265625 0 2.234375 -0.609375q0.984375 -0.609375 1.53125 -1.5625q0.546875 -0.96875 0.546875 -2.015625q0 -1.0625 -0.546875 -2.015625q-0.546875 -0.96875 -1.53125 -1.5625q-0.96875 -0.609375 -2.234375 -0.609375l-5.0625 0l0 8.375l5.0625 0z" fill-rule="nonzero"/><path fill="#000000" fill-opacity="0.0" d="m676.20996 374.3071l245.41736 0l0 59.149597l-245.41736 0z" fill-rule="evenodd"/><path fill="#000000" d="m711.03394 414.54272q-3.296875 0 -5.984375 -1.59375q-2.6875 -1.609375 -4.234375 -4.359375q-1.53125 -2.75 -1.53125 -6.015625q0 -3.265625 1.53125 -6.015625q1.546875 -2.75 4.234375 -4.34375q2.6875 -1.609375 5.984375 -1.609375q3.296875 0 5.984375 1.609375q2.6875 1.59375 4.21875 4.34375q1.53125 2.75 1.53125 6.015625q0 3.265625 -1.53125 6.015625q-1.53125 2.75 -4.21875 4.359375q-2.6875 1.59375 -5.984375 1.59375zm0 -2.59375q2.453125 0 4.515625 -1.203125q2.078125 -1.203125 3.265625 -3.328125q1.203125 -2.125 1.203125 -4.84375q0 -2.71875 -1.203125 -4.84375q-1.1875 -2.140625 -3.265625 -3.328125q-2.0625 -1.203125 -4.515625 -1.203125q-2.46875 0 -4.53125 1.203125q-2.0625 1.1875 -3.265625 3.328125q-1.203125 2.125 -1.203125 4.84375q0 2.71875 1.203125 4.84375q1.203125 2.125 3.265625 3.328125q2.0625 1.203125 4.53125 1.203125zm15.743042 -20.828125l3.328125 0l11.484375 18.234375l0.125 0l-0.125 -4.421875l0 -13.8125l2.71875 0l0 22.90625l-2.8125 0l-12.0 -19.109375l-0.125 0l0.125 4.421875l0 14.6875l-2.71875 0l0 -22.90625zm20.093567 27.578125l15.234375 0l0 2.234375l-15.234375 0l0 -2.234375zm17.794495 -27.578125l6.90625 0q3.515625 0 6.140625 1.453125q2.625 1.453125 4.03125 4.046875q1.421875 2.59375 1.421875 5.953125q0 3.359375 -1.421875 5.953125q-1.40625 2.59375 -4.03125 4.046875q-2.625 1.453125 -6.140625 1.453125l-6.90625 0l0 -22.90625zm6.90625 20.3125q4.0625 0 6.4375 -2.328125q2.390625 -2.34375 2.390625 -6.53125q0 -4.1875 -2.390625 -6.515625q-2.375 -2.34375 -6.4375 -2.34375l-4.1875 0l0 17.71875l4.1875 0zm15.589844 -20.3125l13.25 0l0 2.59375l-10.53125 0l0 7.578125l9.5 0l0 2.5625l-9.5 0l0 7.578125l10.53125 0l0 2.59375l-13.25 0l0 -22.90625zm24.022644 23.421875q-1.71875 0 -3.34375 -0.71875q-1.609375 -0.71875 -2.859375 -2.109375q-1.25 -1.40625 -1.796875 -3.390625l2.59375 -1.046875q0.546875 2.046875 2.015625 3.359375q1.484375 1.3125 3.46875 1.3125q1.984375 0 3.359375 -1.0625q1.375 -1.078125 1.375 -2.9375q0 -1.609375 -1.171875 -2.640625q-1.171875 -1.046875 -3.828125 -1.9375l-1.4375 -0.515625q-2.4375 -0.859375 -3.96875 -2.265625q-1.53125 -1.40625 -1.53125 -3.90625q0 -1.625 0.890625 -3.015625q0.890625 -1.40625 2.484375 -2.234375q1.609375 -0.828125 3.59375 -0.828125q1.984375 0 3.453125 0.734375q1.484375 0.734375 2.359375 1.796875q0.875 1.046875 1.234375 2.078125l-2.53125 1.078125q-0.359375 -1.171875 -1.5 -2.125q-1.125 -0.96875 -2.984375 -0.96875q-1.75 0 -3.0 1.0q-1.25 0.984375 -1.25 2.484375q0 1.34375 1.046875 2.203125q1.0625 0.84375 3.203125 1.578125l1.515625 0.5q2.90625 1.0625 4.53125 2.65625q1.640625 1.578125 1.640625 4.296875q0 2.203125 -1.140625 3.71875q-1.140625 1.5 -2.875 2.203125q-1.71875 0.703125 -3.546875 0.703125zm15.976501 -20.828125l-6.4375 0l0 -2.59375l15.5625 0l0 2.59375l-6.40625 0l0 20.3125l-2.71875 0l0 -20.3125zm12.512939 -2.59375l7.734375 0q1.890625 0 3.515625 0.859375q1.640625 0.859375 2.609375 2.421875q0.984375 1.546875 0.984375 3.5q0 1.59375 -0.71875 2.96875q-0.71875 1.375 -1.984375 2.3125q-1.265625 0.921875 -2.796875 1.25l-0.0625 0.09375l6.453125 9.375l0 0.125l-3.1875 0l-6.25 -9.34375l-3.578125 0l0 9.34375l-2.71875 0l0 -22.90625zm7.578125 11.03125q1.1875 0 2.21875 -0.53125q1.046875 -0.546875 1.671875 -1.515625q0.625 -0.984375 0.625 -2.203125q0 -1.0625 -0.546875 -2.015625q-0.546875 -0.96875 -1.53125 -1.5625q-0.96875 -0.609375 -2.234375 -0.609375l-5.0625 0l0 8.4375l4.859375 0zm21.79889 12.390625q-3.296875 0 -5.984375 -1.59375q-2.6875 -1.609375 -4.234375 -4.359375q-1.53125 -2.75 -1.53125 -6.015625q0 -3.265625 1.53125 -6.015625q1.546875 -2.75 4.234375 -4.34375q2.6875 -1.609375 5.984375 -1.609375q3.296875 0 5.984375 1.609375q2.6875 1.59375 4.21875 4.34375q1.53125 2.75 1.53125 6.015625q0 3.265625 -1.53125 6.015625q-1.53125 2.75 -4.21875 4.359375q-2.6875 1.59375 -5.984375 1.59375zm0 -2.59375q2.453125 0 4.515625 -1.203125q2.078125 -1.203125 3.265625 -3.328125q1.203125 -2.125 1.203125 -4.84375q0 -2.71875 -1.203125 -4.84375q-1.1875 -2.140625 -3.265625 -3.328125q-2.0625 -1.203125 -4.515625 -1.203125q-2.46875 0 -4.53125 1.203125q-2.0625 1.1875 -3.265625 3.328125q-1.203125 2.125 -1.203125 4.84375q0 2.71875 1.203125 4.84375q1.203125 2.125 3.265625 3.328125q2.0625 1.203125 4.53125 1.203125zm20.119324 -8.515625l-7.734375 -12.3125l3.15625 0l5.859375 9.59375l0.125 0l5.765625 -9.59375l3.171875 0l-7.625 12.3125l0 10.59375l-2.71875 0l0 -10.59375z" fill-rule="nonzero"/><path fill="#000000" fill-opacity="0.0" d="m0 13.354331l199.87401 0l0 83.62205l-199.87401 0z" fill-rule="evenodd"/><path fill="#000000" d="m26.921875 84.825584q-3.453125 0 -6.6875 -1.4375q-3.234375 -1.453125 -5.734375 -4.234375q-2.484375 -2.78125 -3.578125 -6.75l5.1875 -2.109375q1.078125 4.09375 4.015625 6.71875q2.953125 2.625 6.921875 2.625q3.96875 0 6.71875 -2.140625q2.75 -2.15625 2.75 -5.859375q0 -3.203125 -2.34375 -5.28125q-2.328125 -2.078125 -7.640625 -3.875l-2.875 -1.03125q-4.859375 -1.71875 -7.9375 -4.53125q-3.078125 -2.828125 -3.078125 -7.8125q0 -3.265625 1.796875 -6.046875q1.796875 -2.78125 4.984375 -4.4375q3.203125 -1.671875 7.171875 -1.671875q3.96875 0 6.90625 1.46875q2.953125 1.46875 4.703125 3.578125q1.765625 2.109375 2.484375 4.171875l-5.0625 2.171875q-0.703125 -2.375 -2.984375 -4.28125q-2.265625 -1.921875 -5.984375 -1.921875q-3.515625 0 -6.015625 1.984375q-2.484375 1.96875 -2.484375 4.984375q0 2.6875 2.109375 4.390625q2.109375 1.6875 6.390625 3.15625l3.015625 1.03125q5.828125 2.109375 9.09375 5.28125q3.265625 3.171875 3.265625 8.609375q0 4.40625 -2.28125 7.421875q-2.265625 3.0 -5.734375 4.421875q-3.453125 1.40625 -7.09375 1.40625zm33.024185 -0.515625q-1.984375 0 -3.6875 -0.640625q-1.6875 -0.640625 -2.84375 -1.734375q-2.5625 -2.421875 -2.5625 -6.71875l0 -19.140625l-5.6875 0l0 -4.921875l5.6875 0l0 -9.21875l5.4375 0l0 9.21875l8.0 0l0 4.921875l-8.0 0l0 17.796875q0 2.6875 1.03125 3.96875q1.21875 1.40625 3.515625 1.40625q1.984375 0 3.59375 -1.078125l0 5.3125q-0.96875 0.4375 -1.96875 0.625q-0.984375 0.203125 -2.515625 0.203125zm20.674591 0.515625q-3.59375 0 -6.40625 -1.40625q-2.8125 -1.421875 -4.359375 -3.875q-1.53125 -2.46875 -1.53125 -5.609375q0 -5.1875 3.90625 -8.09375q3.90625 -2.90625 9.859375 -2.90625q2.9375 0 5.46875 0.640625q2.53125 0.640625 3.875 1.46875l0 -1.984375q0 -3.65625 -2.5625 -5.859375q-2.5625 -2.203125 -6.46875 -2.203125q-2.6875 0 -5.03125 1.1875q-2.328125 1.171875 -3.671875 3.296875l-4.09375 -3.078125q1.921875 -2.953125 5.3125 -4.609375q3.390625 -1.65625 7.484375 -1.65625q6.65625 0 10.4375 3.484375q3.78125 3.484375 3.78125 9.5l0 20.671875l-5.1875 0l0 -4.671875l-0.25 0q-1.421875 2.375 -4.234375 4.046875q-2.8125 1.65625 -6.328125 1.65625zm0.5 -4.8125q2.765625 0 5.125 -1.40625q2.375 -1.40625 3.78125 -3.765625q1.40625 -2.375 1.40625 -5.1875q-1.53125 -1.03125 -3.78125 -1.671875q-2.234375 -0.640625 -4.734375 -0.640625q-4.484375 0 -6.75 1.859375q-2.265625 1.859375 -2.265625 4.796875q0 2.6875 2.046875 4.359375q2.046875 1.65625 5.171875 1.65625zm34.953323 4.296875q-1.984375 0 -3.6875 -0.640625q-1.6875 -0.640625 -2.84375 -1.734375q-2.5625 -2.421875 -2.5625 -6.71875l0 -19.140625l-5.6875 0l0 -4.921875l5.6875 0l0 -9.21875l5.4375 0l0 9.21875l8.0 0l0 4.921875l-8.0 0l0 17.796875q0 2.6875 1.03125 3.96875q1.21875 1.40625 3.515625 1.40625q1.984375 0 3.59375 -1.078125l0 5.3125q-0.96875 0.4375 -1.96875 0.625q-0.984375 0.203125 -2.515625 0.203125zm24.000336 0.515625q-4.671875 0 -8.390625 -2.234375q-3.703125 -2.25 -5.796875 -6.1875q-2.078125 -3.9375 -2.078125 -8.859375q0 -4.671875 1.953125 -8.671875q1.953125 -4.0 5.5625 -6.359375q3.625 -2.375 8.296875 -2.375q4.796875 0 8.3125 2.140625q3.53125 2.140625 5.421875 5.921875q1.890625 3.765625 1.890625 8.640625q0 0.765625 -0.140625 1.65625l-25.84375 0q0.1875 3.71875 1.78125 6.28125q1.609375 2.546875 4.0625 3.828125q2.46875 1.28125 5.15625 1.28125q6.40625 0 9.671875 -5.890625l4.609375 2.25q-2.0625 3.90625 -5.703125 6.25q-3.640625 2.328125 -8.765625 2.328125zm9.40625 -20.8125q-0.125 -2.046875 -1.15625 -4.09375q-1.015625 -2.046875 -3.203125 -3.453125q-2.171875 -1.40625 -5.5 -1.40625q-3.84375 0 -6.53125 2.46875q-2.6875 2.453125 -3.515625 6.484375l19.90625 0z" fill-rule="nonzero"/><path fill="#000000" d="m172.96562 84.825584q-5.25 0 -8.765625 -2.46875q-3.515625 -2.46875 -5.0 -6.3125l4.875 -2.171875q1.21875 2.953125 3.609375 4.546875q2.40625 1.59375 5.28125 1.59375q3.078125 0 5.25 -1.234375q2.171875 -1.25 2.171875 -3.5625q0 -2.046875 -1.734375 -3.296875q-1.71875 -1.25 -5.421875 -2.140625l-3.96875 -1.03125q-3.90625 -0.953125 -6.40625 -3.25q-2.5 -2.3125 -2.5 -5.953125q0 -2.828125 1.6875 -4.96875q1.703125 -2.140625 4.515625 -3.28125q2.828125 -1.15625 6.09375 -1.15625q4.28125 0 7.640625 1.859375q3.359375 1.84375 4.765625 5.171875l-4.734375 2.171875q-2.171875 -4.34375 -7.734375 -4.34375q-2.6875 0 -4.71875 1.25q-2.015625 1.25 -2.015625 3.15625q0 1.796875 1.40625 2.921875q1.421875 1.109375 4.234375 1.828125l4.734375 1.203125q4.796875 1.21875 7.234375 3.625q2.4375 2.390625 2.4375 5.859375q0 3.0 -1.734375 5.28125q-1.734375 2.265625 -4.671875 3.484375q-2.9375 1.21875 -6.53125 1.21875z" fill-rule="nonzero"/><path fill="#000000" fill-opacity="0.0" d="m0 481.81628l199.87401 0l0 83.62201l-199.87401 0z" fill-rule="evenodd"/><path fill="#000000" d="m26.921875 553.28754q-3.453125 0 -6.6875 -1.4375q-3.234375 -1.453125 -5.734375 -4.234375q-2.484375 -2.78125 -3.578125 -6.75l5.1875 -2.109375q1.078125 4.09375 4.015625 6.71875q2.953125 2.625 6.921875 2.625q3.96875 0 6.71875 -2.140625q2.75 -2.15625 2.75 -5.859375q0 -3.203125 -2.34375 -5.28125q-2.328125 -2.078125 -7.640625 -3.875l-2.875 -1.03125q-4.859375 -1.71875 -7.9375 -4.53125q-3.078125 -2.828125 -3.078125 -7.8125q0 -3.265625 1.796875 -6.046875q1.796875 -2.78125 4.984375 -4.4375q3.203125 -1.671875 7.171875 -1.671875q3.96875 0 6.90625 1.46875q2.953125 1.46875 4.703125 3.578125q1.765625 2.109375 2.484375 4.171875l-5.0625 2.171875q-0.703125 -2.375 -2.984375 -4.28125q-2.265625 -1.921875 -5.984375 -1.921875q-3.515625 0 -6.015625 1.984375q-2.484375 1.96875 -2.484375 4.984375q0 2.6875 2.109375 4.390625q2.109375 1.6875 6.390625 3.15625l3.015625 1.03125q5.828125 2.109375 9.09375 5.28125q3.265625 3.171875 3.265625 8.609375q0 4.40625 -2.28125 7.421875q-2.265625 3.0 -5.734375 4.421875q-3.453125 1.40625 -7.09375 1.40625zm33.024185 -0.515625q-1.984375 0 -3.6875 -0.640625q-1.6875 -0.640625 -2.84375 -1.734375q-2.5625 -2.421875 -2.5625 -6.71875l0 -19.140625l-5.6875 0l0 -4.921875l5.6875 0l0 -9.21875l5.4375 0l0 9.21875l8.0 0l0 4.921875l-8.0 0l0 17.796875q0 2.6875 1.03125 3.96875q1.21875 1.40625 3.515625 1.40625q1.984375 0 3.59375 -1.078125l0 5.3125q-0.96875 0.4375 -1.96875 0.625q-0.984375 0.203125 -2.515625 0.203125zm20.674591 0.515625q-3.59375 0 -6.40625 -1.40625q-2.8125 -1.421875 -4.359375 -3.875q-1.53125 -2.46875 -1.53125 -5.609375q0 -5.1875 3.90625 -8.09375q3.90625 -2.90625 9.859375 -2.90625q2.9375 0 5.46875 0.640625q2.53125 0.640625 3.875 1.46875l0 -1.984375q0 -3.65625 -2.5625 -5.859375q-2.5625 -2.203125 -6.46875 -2.203125q-2.6875 0 -5.03125 1.1875q-2.328125 1.171875 -3.671875 3.296875l-4.09375 -3.078125q1.921875 -2.953125 5.3125 -4.609375q3.390625 -1.65625 7.484375 -1.65625q6.65625 0 10.4375 3.484375q3.78125 3.484375 3.78125 9.5l0 20.671875l-5.1875 0l0 -4.671875l-0.25 0q-1.421875 2.375 -4.234375 4.046875q-2.8125 1.65625 -6.328125 1.65625zm0.5 -4.8125q2.765625 0 5.125 -1.40625q2.375 -1.40625 3.78125 -3.765625q1.40625 -2.375 1.40625 -5.1875q-1.53125 -1.03125 -3.78125 -1.671875q-2.234375 -0.640625 -4.734375 -0.640625q-4.484375 0 -6.75 1.859375q-2.265625 1.859375 -2.265625 4.796875q0 2.6875 2.046875 4.359375q2.046875 1.65625 5.171875 1.65625zm34.953323 4.296875q-1.984375 0 -3.6875 -0.640625q-1.6875 -0.640625 -2.84375 -1.734375q-2.5625 -2.421875 -2.5625 -6.71875l0 -19.140625l-5.6875 0l0 -4.921875l5.6875 0l0 -9.21875l5.4375 0l0 9.21875l8.0 0l0 4.921875l-8.0 0l0 17.796875q0 2.6875 1.03125 3.96875q1.21875 1.40625 3.515625 1.40625q1.984375 0 3.59375 -1.078125l0 5.3125q-0.96875 0.4375 -1.96875 0.625q-0.984375 0.203125 -2.515625 0.203125zm24.000336 0.515625q-4.671875 0 -8.390625 -2.234375q-3.703125 -2.25 -5.796875 -6.1875q-2.078125 -3.9375 -2.078125 -8.859375q0 -4.671875 1.953125 -8.671875q1.953125 -4.0 5.5625 -6.359375q3.625 -2.375 8.296875 -2.375q4.796875 0 8.3125 2.140625q3.53125 2.140625 5.421875 5.921875q1.890625 3.765625 1.890625 8.640625q0 0.765625 -0.140625 1.65625l-25.84375 0q0.1875 3.71875 1.78125 6.28125q1.609375 2.546875 4.0625 3.828125q2.46875 1.28125 5.15625 1.28125q6.40625 0 9.671875 -5.890625l4.609375 2.25q-2.0625 3.90625 -5.703125 6.25q-3.640625 2.328125 -8.765625 2.328125zm9.40625 -20.8125q-0.125 -2.046875 -1.15625 -4.09375q-1.015625 -2.046875 -3.203125 -3.453125q-2.171875 -1.40625 -5.5 -1.40625q-3.84375 0 -6.53125 2.46875q-2.6875 2.453125 -3.515625 6.484375l19.90625 0z" fill-rule="nonzero"/><path fill="#000000" d="m172.96562 553.28754q-5.25 0 -8.765625 -2.46875q-3.515625 -2.46875 -5.0 -6.3125l4.875 -2.171875q1.21875 2.953125 3.609375 4.546875q2.40625 1.59375 5.28125 1.59375q3.078125 0 5.25 -1.234375q2.171875 -1.25 2.171875 -3.5625q0 -2.046875 -1.734375 -3.296875q-1.71875 -1.25 -5.421875 -2.140625l-3.96875 -1.03125q-3.90625 -0.953125 -6.40625 -3.25q-2.5 -2.3125 -2.5 -5.953125q0 -2.828125 1.6875 -4.96875q1.703125 -2.140625 4.515625 -3.28125q2.828125 -1.15625 6.09375 -1.15625q4.28125 0 7.640625 1.859375q3.359375 1.84375 4.765625 5.171875l-4.734375 2.171875q-2.171875 -4.34375 -7.734375 -4.34375q-2.6875 0 -4.71875 1.25q-2.015625 1.25 -2.015625 3.15625q0 1.796875 1.40625 2.921875q1.421875 1.109375 4.234375 1.828125l4.734375 1.203125q4.796875 1.21875 7.234375 3.625q2.4375 2.390625 2.4375 5.859375q0 3.0 -1.734375 5.28125q-1.734375 2.265625 -4.671875 3.484375q-2.9375 1.21875 -6.53125 1.21875z" fill-rule="nonzero"/><path fill="#000000" fill-opacity="0.0" d="m0 247.5853l234.64568 0l0 83.62204l-234.64568 0z" fill-rule="evenodd"/><path fill="#000000" d="m14.125 272.19717l26.484375 0l0 5.1875l-21.046875 0l0 15.171875l19.0 0l0 5.109375l-19.0 0l0 15.171875l21.046875 0l0 5.1875l-26.484375 0l0 -45.828125zm29.312073 13.1875l5.8125 0l10.125 26.234375l0.125 0l10.234375 -26.234375l5.703125 0l-13.3125 32.640625l-5.515625 0l-13.171875 -32.640625zm50.04532 33.671875q-4.671875 0 -8.390625 -2.234375q-3.703125 -2.25 -5.796875 -6.1875q-2.078125 -3.9375 -2.078125 -8.859375q0 -4.671875 1.953125 -8.671875q1.953125 -4.0 5.5625 -6.359375q3.625 -2.375 8.296875 -2.375q4.796875 0 8.3125 2.140625q3.53125 2.140625 5.421875 5.921875q1.890625 3.765625 1.890625 8.640625q0 0.765625 -0.140625 1.65625l-25.84375 0q0.1875 3.71875 1.78125 6.28125q1.609375 2.546875 4.0625 3.828125q2.46875 1.28125 5.15625 1.28125q6.40625 0 9.671875 -5.890625l4.609375 2.25q-2.0625 3.90625 -5.703125 6.25q-3.640625 2.328125 -8.765625 2.328125zm9.40625 -20.8125q-0.125 -2.046875 -1.15625 -4.09375q-1.015625 -2.046875 -3.203125 -3.453125q-2.171875 -1.40625 -5.5 -1.40625q-3.84375 0 -6.53125 2.46875q-2.6875 2.453125 -3.515625 6.484375l19.90625 0zm12.094437 -12.859375l5.1875 0l0 4.796875l0.25 0q1.34375 -2.421875 4.28125 -4.109375q2.953125 -1.703125 6.28125 -1.703125q5.890625 0 8.984375 3.421875q3.109375 3.421875 3.109375 9.3125l0 20.921875l-5.4375 0l0 -20.09375q0 -4.546875 -2.171875 -6.59375q-2.171875 -2.046875 -5.953125 -2.046875q-2.625 0 -4.703125 1.46875q-2.078125 1.46875 -3.234375 3.875q-1.15625 2.40625 -1.15625 5.015625l0 18.375l-5.4375 0l0 -32.640625zm46.850815 33.15625q-1.984375 0 -3.6875 -0.640625q-1.6875 -0.640625 -2.84375 -1.734375q-2.5625 -2.421875 -2.5625 -6.71875l0 -19.140625l-5.6875 0l0 -4.921875l5.6875 0l0 -9.21875l5.4375 0l0 9.21875l8.0 0l0 4.921875l-8.0 0l0 17.796875q0 2.6875 1.03125 3.96875q1.21875 1.40625 3.515625 1.40625q1.984375 0 3.59375 -1.078125l0 5.3125q-0.96875 0.4375 -1.96875 0.625q-0.984375 0.203125 -2.515625 0.203125zm22.907715 0.515625q-5.25 0 -8.765625 -2.46875q-3.515625 -2.46875 -5.0 -6.3125l4.875 -2.171875q1.21875 2.953125 3.609375 4.546875q2.40625 1.59375 5.28125 1.59375q3.078125 0 5.25 -1.234375q2.171875 -1.25 2.171875 -3.5625q0 -2.046875 -1.734375 -3.296875q-1.71875 -1.25 -5.421875 -2.140625l-3.96875 -1.03125q-3.90625 -0.953125 -6.40625 -3.25q-2.5 -2.3125 -2.5 -5.953125q0 -2.828125 1.6875 -4.96875q1.703125 -2.140625 4.515625 -3.28125q2.828125 -1.15625 6.09375 -1.15625q4.28125 0 7.640625 1.859375q3.359375 1.84375 4.765625 5.171875l-4.734375 2.171875q-2.171875 -4.34375 -7.734375 -4.34375q-2.6875 0 -4.71875 1.25q-2.015625 1.25 -2.015625 3.15625q0 1.796875 1.40625 2.921875q1.421875 1.109375 4.234375 1.828125l4.734375 1.203125q4.796875 1.21875 7.234375 3.625q2.4375 2.390625 2.4375 5.859375q0 3.0 -1.734375 5.28125q-1.734375 2.265625 -4.671875 3.484375q-2.9375 1.21875 -6.53125 1.21875z" fill-rule="nonzero"/></g></svg>