<svg version="1.1" viewBox="0.0 0.0 960.0 540.0" fill="none" stroke="none" stroke-linecap="square" stroke-miterlimit="10" xmlns:xlink="http://www.w3.org/1999/xlink" xmlns="http://www.w3.org/2000/svg"><clipPath id="g277a5fb5749_2_0.0"><path d="m0 0l960.0 0l0 540.0l-960.0 0l0 -540.0z" clip-rule="nonzero"/></clipPath><g clip-path="url(#g277a5fb5749_2_0.0)"><path fill="#ffffff" d="m0 0l960.0 0l0 540.0l-960.0 0z" fill-rule="evenodd"/><path fill="#000000" fill-opacity="0.0" d="m445.31628 163.51968l172.0315 0l0 296.8189l-172.0315 0z" fill-rule="evenodd"/><path stroke="#083042" stroke-width="4.0" stroke-miterlimit="400.0" stroke-linecap="butt" d="m445.31628 163.51968l172.0315 0l0 296.8189l-172.0315 0z" fill-rule="evenodd"/><path fill="#404040" d="m561.0339 86.246704l-59.402405 0c-1.9908142 0 -3.8418274 1.5681534 -3.8418274 3.7764206l0 22.219643c0 2.065155 1.6363525 3.8451843 3.8418274 3.8451843l59.402405 0c1.9907837 0 3.8423462 -1.5653534 3.8423462 -3.8451843l0 -22.219643c0 -1.9935913 -1.8515625 -3.7764206 -3.8423462 -3.7764206zm-48.37671 22.43377c-3.981598 0 -7.3980103 -3.4169464 -7.3980103 -7.404686c0 -4.0593033 3.3448486 -7.4074783 7.3980103 -7.4074783c3.9849243 0 7.4695435 3.348175 7.4695435 7.4074783c0 3.9877396 -3.2705078 7.404686 -7.4695435 7.404686zm48.37671 -59.679134l-59.402405 0c-1.9908142 0 -3.8418274 1.6363525 -3.8418274 3.8446198l0 22.291203c0 2.065155 1.6363525 3.8479767 3.8418274 3.8479767l59.402405 0c1.9907837 0 3.8423462 -1.6397095 3.8423462 -3.8479767l0 -22.291203c0 -1.9935913 -1.8515625 -3.8446198 -3.8423462 -3.8446198zm-48.37671 22.362202c-3.981598 0 -7.3980103 -3.4912949 -7.3980103 -7.4790382c0 -4.0592995 3.3448486 -7.404686 7.3980103 -7.404686c3.9849243 0 7.4695435 3.3453865 7.4695435 7.404686c0 3.9877434 -3.2705078 7.4790382 -7.4695435 7.4790382z" fill-rule="evenodd"/><path fill="#404040" d="m138.6338 82.54565c9.436218 0 16.809952 -7.6126556 16.809952 -16.731407c0 -9.439083 -7.6107635 -16.811905 -16.809952 -16.811905c-9.117752 0 -16.731888 7.612095 -16.731888 16.811905c-0.23703003 9.118752 7.3771057 16.731407 16.731888 16.731407zm0 8.326561c-11.180244 0 -33.541275 5.5503006 -33.541275 16.653694l0 8.563049l67.40158 0l0 -8.563049c-0.2375946 -10.8641205 -22.67952 -16.653694 -33.860306 -16.653694z" fill-rule="evenodd"/><path fill="#404040" d="m266.11673 85.64275c9.436218 0 16.809967 -7.612648 16.809967 -16.7314c0 -9.439087 -7.610779 -16.811905 -16.809967 -16.811905c-9.117737 0 -16.731873 7.612095 -16.731873 16.811905c-0.23703003 9.118752 7.3771057 16.7314 16.731873 16.7314zm0 8.326569c-11.180222 0 -33.54126 5.5503006 -33.54126 16.653694l0 8.563049l67.40158 0l0 -8.563049c-0.23760986 -10.8641205 -22.679504 -16.653694 -33.86032 -16.653694z" fill-rule="evenodd"/><path fill="#000000" fill-opacity="0.0" d="m141.98936 163.51968l0 0l0 233.82678l356.72443 0" fill-rule="evenodd"/><path stroke="#083042" stroke-width="3.0" stroke-linejoin="round" stroke-linecap="butt" d="m141.98936 163.51968l0 0l0 233.82678l338.72443 0" fill-rule="evenodd"/><path fill="#083042" stroke="#083042" stroke-width="3.0" stroke-linecap="butt" d="m480.71378 402.30167l13.614319 -4.9552l-13.614319 -4.9552z" fill-rule="evenodd"/><path fill="#000000" fill-opacity="0.0" d="m267.40552 161.97113l0 0l0 157.70078l231.30707 0" fill-rule="evenodd"/><path stroke="#083042" stroke-width="3.0" stroke-linejoin="round" stroke-linecap="butt" d="m267.40552 161.97113l0 0l0 157.70078l213.30707 0" fill-rule="evenodd"/><path fill="#083042" stroke="#083042" stroke-width="3.0" stroke-linecap="butt" d="m480.7126 324.6271l13.614319 -4.9552l-13.614319 -4.9552z" fill-rule="evenodd"/><path fill="#000000" fill-opacity="0.0" d="m141.98839 235.85794l355.62207 0" fill-rule="evenodd"/><path stroke="#083042" stroke-width="3.0" stroke-linejoin="round" stroke-linecap="butt" d="m141.98839 235.85794l337.62207 0" fill-rule="evenodd"/><path fill="#083042" stroke="#083042" stroke-width="3.0" stroke-linecap="butt" d="m479.61044 240.81314l13.614288 -4.9552l-13.614288 -4.9552z" fill-rule="evenodd"/><path fill="#ea4335" d="m535.6574 392.36105l-4.3408203 4.34552l-4.3099365 -4.34552l-2.3300781 2.3642578l4.3099365 4.3129883l-4.3099365 4.3452454l2.3300781 2.3317566l4.3099365 -4.3129883l4.3408203 4.3129883l2.3300781 -2.3317566l-4.3099365 -4.3452454l4.3099365 -4.3129883l-2.3300781 -2.3642578zm-4.3408203 -9.999908c-9.161621 0 -16.66156 7.4752502 -16.66156 16.677155c0 9.20163 7.499939 16.677185 16.66156 16.677185c9.192444 0 16.692749 -7.4755554 16.692749 -16.677185c0 -9.201904 -7.500305 -16.677155 -16.692749 -16.677155zm0 30.031128c-7.373535 0 -13.310852 -6.070221 -13.310852 -13.353973c0 -7.3165283 6.033203 -13.323364 13.310852 -13.323364c7.3084717 0 13.341736 6.006836 13.341736 13.323364c0 7.2837524 -6.033264 13.353973 -13.341736 13.353973z" fill-rule="evenodd"/><path fill="#3ddb85" d="m531.2512 219.00288l-14.991211 6.6855927l0 10.012619c0 9.309952 6.4244385 17.978226 15.055298 20.057693c8.661743 -2.0794678 15.086426 -10.747742 15.086426 -20.057693l0 -10.012619l-15.150513 -6.6855927zm-3.356018 26.743286l-6.6813965 -6.685898l2.3651123 -2.3670807l4.316284 4.349457l11.026855 -11.002884l2.333252 2.33461l-13.360107 13.371796z" fill-rule="evenodd"/><path fill="#3ddb85" d="m531.2512 300.68268l-14.991211 6.6855774l0 10.012634c0 9.309967 6.4244385 17.97821 15.055298 20.057678c8.661743 -2.0794678 15.086426 -10.747711 15.086426 -20.057678l0 -10.012634l-15.150513 -6.6855774zm-3.356018 26.743286l-6.6813965 -6.685913l2.3651123 -2.3670654l4.316284 4.349457l11.026855 -11.002899l2.333252 2.3346252l-13.360107 13.371796z" fill-rule="evenodd"/><path fill="#000000" fill-opacity="0.0" d="m563.95166 235.85794l115.33856 0" fill-rule="evenodd"/><path stroke="#083042" stroke-width="3.0" stroke-linejoin="round" stroke-linecap="butt" d="m563.95166 235.85794l97.33856 0" fill-rule="evenodd"/><path fill="#083042" stroke="#083042" stroke-width="3.0" stroke-linecap="butt" d="m661.2902 240.81314l13.614319 -4.9552l-13.614319 -4.9552z" fill-rule="evenodd"/><path fill="#000000" fill-opacity="0.0" d="m566.81757 399.03937l182.55121 0" fill-rule="evenodd"/><path stroke="#083042" stroke-width="3.0" stroke-linejoin="round" stroke-linecap="butt" d="m566.81757 399.03937l164.55121 0" fill-rule="evenodd"/><path fill="#083042" stroke="#083042" stroke-width="3.0" stroke-linecap="butt" d="m731.3688 403.99457l13.614258 -4.9552l-13.614258 -4.9552z" fill-rule="evenodd"/><path fill="#000000" fill-opacity="0.0" d="m565.2454 317.44882l119.685 0" fill-rule="evenodd"/><path stroke="#083042" stroke-width="3.0" stroke-linejoin="round" stroke-linecap="butt" d="m565.2454 317.44882l101.685 0" fill-rule="evenodd"/><path fill="#083042" stroke="#083042" stroke-width="3.0" stroke-linecap="butt" d="m666.9304 322.40402l13.614319 -4.9552l-13.614319 -4.9552z" fill-rule="evenodd"/><path fill="#000000" fill-opacity="0.0" d="m152.43164 285.2467l106.33072 0l0 19.023651l-106.33072 0z" fill-rule="evenodd"/><path fill="#000000" d="m178.25243 300.85672q-1.265625 0 -2.359375 -0.453125q-1.078125 -0.453125 -1.890625 -1.25q-0.8125 -0.8125 -1.265625 -1.90625q-0.453125 -1.109375 -0.453125 -2.375q0 -1.28125 0.453125 -2.359375q0.453125 -1.09375 1.265625 -1.890625q0.8125 -0.8125 1.890625 -1.265625q1.09375 -0.46875 2.359375 -0.46875q0.890625 0 1.65625 0.234375q0.78125 0.21875 1.421875 0.640625q0.640625 0.40625 1.15625 1.0l-1.21875 1.203125q-0.390625 -0.46875 -0.84375 -0.78125q-0.4375 -0.3125 -0.984375 -0.46875q-0.53125 -0.15625 -1.171875 -0.15625q-1.15625 0 -2.125 0.546875q-0.953125 0.53125 -1.515625 1.484375q-0.5625 0.953125 -0.5625 2.28125q0 1.3125 0.5625 2.28125q0.5625 0.96875 1.515625 1.515625q0.96875 0.53125 2.125 0.53125q0.703125 0 1.28125 -0.1875q0.59375 -0.203125 1.078125 -0.5625q0.5 -0.375 0.921875 -0.875l1.265625 1.21875q-0.53125 0.625 -1.234375 1.09375q-0.703125 0.46875 -1.546875 0.71875q-0.828125 0.25 -1.78125 0.25zm6.08815 -0.25l0 -11.453125l1.71875 0l0 3.140625l-0.09375 1.265625l0.09375 0q0.34375 -0.578125 1.03125 -0.96875q0.703125 -0.40625 1.546875 -0.40625q1.03125 0 1.703125 0.421875q0.6875 0.421875 1.015625 1.15625q0.34375 0.71875 0.34375 1.6875l0 5.15625l-1.71875 0l0 -4.921875q0 -0.65625 -0.25 -1.078125q-0.25 -0.421875 -0.65625 -0.625q-0.390625 -0.203125 -0.890625 -0.203125q-0.625 0 -1.109375 0.359375q-0.46875 0.34375 -0.75 0.921875q-0.265625 0.5625 -0.265625 1.1875l0 4.359375l-1.71875 0zm11.794891 0.25q-0.875 0 -1.5625 -0.34375q-0.671875 -0.359375 -1.0625 -0.96875q-0.390625 -0.625 -0.390625 -1.421875q0 -0.875 0.453125 -1.484375q0.453125 -0.609375 1.21875 -0.921875q0.765625 -0.328125 1.703125 -0.328125q0.515625 0 0.953125 0.078125q0.4375 0.0625 0.765625 0.171875q0.328125 0.09375 0.515625 0.203125l0 -0.4375q0 -0.796875 -0.578125 -1.265625q-0.5625 -0.484375 -1.484375 -0.484375q-0.625 0 -1.1875 0.28125q-0.546875 0.265625 -0.890625 0.75l-1.1875 -0.90625q0.359375 -0.5 0.859375 -0.84375q0.5 -0.359375 1.125 -0.546875q0.640625 -0.203125 1.328125 -0.203125q1.78125 0 2.734375 0.875q0.96875 0.875 0.96875 2.4375l0 5.109375l-1.6875 0l0 -1.015625l-0.09375 0q-0.203125 0.328125 -0.5625 0.625q-0.359375 0.28125 -0.859375 0.453125q-0.484375 0.1875 -1.078125 0.1875zm0.3125 -1.40625q0.671875 0 1.1875 -0.3125q0.515625 -0.328125 0.796875 -0.84375q0.296875 -0.515625 0.296875 -1.125q-0.34375 -0.203125 -0.859375 -0.34375q-0.5 -0.140625 -1.0625 -0.140625q-1.046875 0 -1.5 0.421875q-0.453125 0.40625 -0.453125 1.03125q0 0.578125 0.4375 0.953125q0.4375 0.359375 1.15625 0.359375zm5.876648 1.15625l0 -8.15625l1.625 0l0 1.109375l0.09375 0q0.359375 -0.578125 1.046875 -0.96875q0.703125 -0.40625 1.53125 -0.40625q1.5 0 2.25 0.890625q0.75 0.890625 0.75 2.375l0 5.15625l-1.703125 0l0 -4.921875q0 -1.0 -0.5 -1.453125q-0.5 -0.453125 -1.296875 -0.453125q-0.625 0 -1.09375 0.34375q-0.453125 0.34375 -0.71875 0.90625q-0.265625 0.546875 -0.265625 1.1875l0 4.390625l-1.71875 0zm12.871887 3.71875q-1.078125 0 -1.859375 -0.34375q-0.765625 -0.34375 -1.25 -0.890625q-0.46875 -0.53125 -0.6875 -1.09375l1.609375 -0.671875q0.25 0.640625 0.8125 1.046875q0.578125 0.40625 1.375 0.40625q1.140625 0 1.78125 -0.671875q0.640625 -0.671875 0.640625 -1.90625l0 -0.78125l-0.09375 0q-0.390625 0.5625 -1.0625 0.921875q-0.671875 0.34375 -1.546875 0.34375q-1.046875 0 -1.921875 -0.515625q-0.875 -0.53125 -1.390625 -1.484375q-0.515625 -0.953125 -0.515625 -2.234375q0 -1.296875 0.515625 -2.25q0.515625 -0.953125 1.390625 -1.484375q0.875 -0.53125 1.921875 -0.53125q0.875 0 1.546875 0.34375q0.671875 0.34375 1.0625 0.9375l0.09375 0l0 -1.015625l1.640625 0l0 7.71875q0 1.328125 -0.515625 2.25q-0.515625 0.9375 -1.4375 1.421875q-0.90625 0.484375 -2.109375 0.484375zm0.015625 -5.203125q0.640625 0 1.1875 -0.3125q0.5625 -0.3125 0.890625 -0.90625q0.328125 -0.609375 0.328125 -1.453125q0 -0.90625 -0.328125 -1.484375q-0.328125 -0.59375 -0.890625 -0.890625q-0.546875 -0.3125 -1.1875 -0.3125q-0.640625 0 -1.203125 0.3125q-0.546875 0.296875 -0.890625 0.890625q-0.328125 0.59375 -0.328125 1.484375q0 0.859375 0.328125 1.46875q0.34375 0.59375 0.890625 0.90625q0.5625 0.296875 1.203125 0.296875zm9.711273 1.734375q-1.203125 0 -2.15625 -0.546875q-0.9375 -0.5625 -1.46875 -1.53125q-0.53125 -0.984375 -0.53125 -2.234375q0 -1.171875 0.5 -2.15625q0.515625 -1.0 1.4375 -1.59375q0.921875 -0.609375 2.125 -0.609375q1.265625 0 2.15625 0.546875q0.890625 0.546875 1.34375 1.5q0.46875 0.9375 0.46875 2.125q0 0.171875 -0.015625 0.3125q0 0.140625 -0.015625 0.21875l-7.03125 0l0 -1.296875l5.34375 0q-0.015625 -0.296875 -0.15625 -0.640625q-0.140625 -0.34375 -0.421875 -0.625q-0.265625 -0.296875 -0.6875 -0.46875q-0.40625 -0.1875 -0.96875 -0.1875q-0.703125 0 -1.25 0.359375q-0.546875 0.359375 -0.859375 1.0q-0.296875 0.640625 -0.296875 1.484375q0 0.921875 0.34375 1.546875q0.359375 0.625 0.9375 0.953125q0.578125 0.3125 1.25 0.3125q0.8125 0 1.359375 -0.375q0.5625 -0.375 0.890625 -0.9375l1.421875 0.6875q-0.53125 0.96875 -1.453125 1.5625q-0.90625 0.59375 -2.265625 0.59375zm11.584274 -0.25l0 -8.625l-1.796875 1.28125l-0.875 -1.328125l3.171875 -2.265625l1.234375 0l0 10.9375l-1.734375 0z" fill-rule="nonzero"/><path fill="#4285f4" d="m169.58342 239.2314l0 0c0 -19.890945 16.124802 -36.015747 36.015747 -36.015747l0 0c9.551971 0 18.712723 3.79451 25.46698 10.548767c6.7542725 6.7542725 10.548767 15.915009 10.548767 25.46698l0 0c0 19.890945 -16.124786 36.015762 -36.015747 36.015762l0 0c-19.890945 0 -36.015747 -16.124817 -36.015747 -36.015762z" fill-rule="evenodd"/><path fill="#d6f0ff" d="m205.6162 251.23386l12.361191 -9.894104l2.749939 2.209198l-15.213348 11.902069l-15.247421 -11.902069l2.7840118 -2.107071l12.565628 9.791977zm0.06814575 -4.3177795l-12.429352 -9.793488l-2.7839966 -2.209198l15.213348 -11.902069l15.247406 11.902069l-2.7839966 2.209198l-12.463409 9.793488z" fill-rule="evenodd"/><path fill="#000000" fill-opacity="0.0" d="m304.62454 360.2756l106.33072 0l0 19.02362l-106.33072 0z" fill-rule="evenodd"/><path fill="#000000" d="m329.37335 375.8856q-1.265625 0 -2.359375 -0.453125q-1.078125 -0.453125 -1.890625 -1.25q-0.8125 -0.8125 -1.265625 -1.90625q-0.453125 -1.109375 -0.453125 -2.375q0 -1.28125 0.453125 -2.359375q0.453125 -1.09375 1.265625 -1.890625q0.8125 -0.8125 1.890625 -1.265625q1.09375 -0.46875 2.359375 -0.46875q0.890625 0 1.65625 0.234375q0.78125 0.21875 1.421875 0.640625q0.640625 0.40625 1.15625 1.0l-1.21875 1.203125q-0.390625 -0.46875 -0.84375 -0.78125q-0.4375 -0.3125 -0.984375 -0.46875q-0.53125 -0.15625 -1.171875 -0.15625q-1.15625 0 -2.125 0.546875q-0.953125 0.53125 -1.515625 1.484375q-0.5625 0.953125 -0.5625 2.28125q0 1.3125 0.5625 2.28125q0.5625 0.96875 1.515625 1.515625q0.96875 0.53125 2.125 0.53125q0.703125 0 1.28125 -0.1875q0.59375 -0.203125 1.078125 -0.5625q0.5 -0.375 0.921875 -0.875l1.265625 1.21875q-0.53125 0.625 -1.234375 1.09375q-0.703125 0.46875 -1.546875 0.71875q-0.828125 0.25 -1.78125 0.25zm6.088135 -0.25l0 -11.453125l1.71875 0l0 3.140625l-0.09375 1.265625l0.09375 0q0.34375 -0.578125 1.03125 -0.96875q0.703125 -0.40625 1.546875 -0.40625q1.03125 0 1.703125 0.421875q0.6875 0.421875 1.015625 1.15625q0.34375 0.71875 0.34375 1.6875l0 5.15625l-1.71875 0l0 -4.921875q0 -0.65625 -0.25 -1.078125q-0.25 -0.421875 -0.65625 -0.625q-0.390625 -0.203125 -0.890625 -0.203125q-0.625 0 -1.109375 0.359375q-0.46875 0.34375 -0.75 0.921875q-0.265625 0.5625 -0.265625 1.1875l0 4.359375l-1.71875 0zm11.794891 0.25q-0.875 0 -1.5625 -0.34375q-0.671875 -0.359375 -1.0625 -0.96875q-0.390625 -0.625 -0.390625 -1.421875q0 -0.875 0.453125 -1.484375q0.453125 -0.609375 1.21875 -0.921875q0.765625 -0.328125 1.703125 -0.328125q0.515625 0 0.953125 0.078125q0.4375 0.0625 0.765625 0.171875q0.328125 0.09375 0.515625 0.203125l0 -0.4375q0 -0.796875 -0.578125 -1.265625q-0.5625 -0.484375 -1.484375 -0.484375q-0.625 0 -1.1875 0.28125q-0.546875 0.265625 -0.890625 0.75l-1.1875 -0.90625q0.359375 -0.5 0.859375 -0.84375q0.5 -0.359375 1.125 -0.546875q0.640625 -0.203125 1.328125 -0.203125q1.78125 0 2.734375 0.875q0.96875 0.875 0.96875 2.4375l0 5.109375l-1.6875 0l0 -1.015625l-0.09375 0q-0.203125 0.328125 -0.5625 0.625q-0.359375 0.28125 -0.859375 0.453125q-0.484375 0.1875 -1.078125 0.1875zm0.3125 -1.40625q0.671875 0 1.1875 -0.3125q0.515625 -0.328125 0.796875 -0.84375q0.296875 -0.515625 0.296875 -1.125q-0.34375 -0.203125 -0.859375 -0.34375q-0.5 -0.140625 -1.0625 -0.140625q-1.046875 0 -1.5 0.421875q-0.453125 0.40625 -0.453125 1.03125q0 0.578125 0.4375 0.953125q0.4375 0.359375 1.15625 0.359375zm5.876648 1.15625l0 -8.15625l1.625 0l0 1.109375l0.09375 0q0.359375 -0.578125 1.046875 -0.96875q0.703125 -0.40625 1.53125 -0.40625q1.5 0 2.25 0.890625q0.75 0.890625 0.75 2.375l0 5.15625l-1.703125 0l0 -4.921875q0 -1.0 -0.5 -1.453125q-0.5 -0.453125 -1.296875 -0.453125q-0.625 0 -1.09375 0.34375q-0.453125 0.34375 -0.71875 0.90625q-0.265625 0.546875 -0.265625 1.1875l0 4.390625l-1.71875 0zm12.871887 3.71875q-1.078125 0 -1.859375 -0.34375q-0.765625 -0.34375 -1.25 -0.890625q-0.46875 -0.53125 -0.6875 -1.09375l1.609375 -0.671875q0.25 0.640625 0.8125 1.046875q0.578125 0.40625 1.375 0.40625q1.140625 0 1.78125 -0.671875q0.640625 -0.671875 0.640625 -1.90625l0 -0.78125l-0.09375 0q-0.390625 0.5625 -1.0625 0.921875q-0.671875 0.34375 -1.546875 0.34375q-1.046875 0 -1.921875 -0.515625q-0.875 -0.53125 -1.390625 -1.484375q-0.515625 -0.953125 -0.515625 -2.234375q0 -1.296875 0.515625 -2.25q0.515625 -0.953125 1.390625 -1.484375q0.875 -0.53125 1.921875 -0.53125q0.875 0 1.546875 0.34375q0.671875 0.34375 1.0625 0.9375l0.09375 0l0 -1.015625l1.640625 0l0 7.71875q0 1.328125 -0.515625 2.25q-0.515625 0.9375 -1.4375 1.421875q-0.90625 0.484375 -2.109375 0.484375zm0.015625 -5.203125q0.640625 0 1.1875 -0.3125q0.5625 -0.3125 0.890625 -0.90625q0.328125 -0.609375 0.328125 -1.453125q0 -0.90625 -0.328125 -1.484375q-0.328125 -0.59375 -0.890625 -0.890625q-0.546875 -0.3125 -1.1875 -0.3125q-0.640625 0 -1.203125 0.3125q-0.546875 0.296875 -0.890625 0.890625q-0.328125 0.59375 -0.328125 1.484375q0 0.859375 0.328125 1.46875q0.34375 0.59375 0.890625 0.90625q0.5625 0.296875 1.203125 0.296875zm9.711273 1.734375q-1.203125 0 -2.15625 -0.546875q-0.9375 -0.5625 -1.46875 -1.53125q-0.53125 -0.984375 -0.53125 -2.234375q0 -1.171875 0.5 -2.15625q0.515625 -1.0 1.4375 -1.59375q0.921875 -0.609375 2.125 -0.609375q1.265625 0 2.15625 0.546875q0.890625 0.546875 1.34375 1.5q0.46875 0.9375 0.46875 2.125q0 0.171875 -0.015625 0.3125q0 0.140625 -0.015625 0.21875l-7.03125 0l0 -1.296875l5.34375 0q-0.015625 -0.296875 -0.15625 -0.640625q-0.140625 -0.34375 -0.421875 -0.625q-0.265625 -0.296875 -0.6875 -0.46875q-0.40625 -0.1875 -0.96875 -0.1875q-0.703125 0 -1.25 0.359375q-0.546875 0.359375 -0.859375 1.0q-0.296875 0.640625 -0.296875 1.484375q0 0.921875 0.34375 1.546875q0.359375 0.625 0.9375 0.953125q0.578125 0.3125 1.25 0.3125q0.8125 0 1.359375 -0.375q0.5625 -0.375 0.890625 -0.9375l1.421875 0.6875q-0.53125 0.96875 -1.453125 1.5625q-0.90625 0.59375 -2.265625 0.59375zm8.959259 -0.25l0 -1.625q0.046875 -0.03125 0.390625 -0.375q0.34375 -0.359375 0.84375 -0.859375q0.515625 -0.515625 1.0625 -1.0625q0.546875 -0.5625 1.0 -1.03125q0.46875 -0.484375 0.703125 -0.75q0.453125 -0.453125 0.71875 -0.796875q0.265625 -0.359375 0.375 -0.703125q0.125 -0.34375 0.125 -0.78125q0 -0.40625 -0.21875 -0.765625q-0.203125 -0.375 -0.609375 -0.59375q-0.40625 -0.21875 -0.984375 -0.21875q-0.5625 0 -0.953125 0.234375q-0.390625 0.21875 -0.609375 0.5625q-0.21875 0.328125 -0.328125 0.671875l-1.546875 -0.640625q0.109375 -0.390625 0.375 -0.8125q0.265625 -0.421875 0.6875 -0.796875q0.4375 -0.375 1.03125 -0.609375q0.609375 -0.25 1.375 -0.25q1.078125 0 1.859375 0.453125q0.796875 0.4375 1.234375 1.15625q0.4375 0.703125 0.4375 1.5625q0 0.6875 -0.25 1.328125q-0.25 0.640625 -0.65625 1.1875q-0.390625 0.53125 -0.84375 0.953125q-0.21875 0.203125 -0.546875 0.546875q-0.328125 0.328125 -0.6875 0.703125q-0.359375 0.359375 -0.703125 0.71875q-0.34375 0.34375 -0.609375 0.609375q-0.265625 0.25 -0.390625 0.375l0.015625 0.046875l4.796875 0l0 1.5625l-7.09375 0z" fill-rule="nonzero"/><path fill="#4285f4" d="m321.77634 314.26028l0 0c0 -19.89096 16.124817 -36.015747 36.015747 -36.015747l0 0c9.551971 0 18.712708 3.7944946 25.46698 10.548767c6.7542725 6.754242 10.548767 15.915009 10.548767 25.46698l0 0c0 19.89093 -16.124786 36.015747 -36.015747 36.015747l0 0c-19.89093 0 -36.015747 -16.124817 -36.015747 -36.015747z" fill-rule="evenodd"/><path fill="#eff7cf" d="m357.8091 326.26273l12.361206 -9.894104l2.7499084 2.209198l-15.213348 11.902069l-15.247406 -11.902069l2.7839966 -2.1070862l12.565643 9.791992zm0.06814575 -4.3177795l-12.429352 -9.793488l-2.7839966 -2.209198l15.213348 -11.902069l15.247406 11.902069l-2.7839966 2.209198l-12.463409 9.793488z" fill-rule="evenodd"/><path fill="#000000" fill-opacity="0.0" d="m152.43295 441.3071l106.33072 0l0 19.02362l-106.33072 0z" fill-rule="evenodd"/><path fill="#000000" d="m177.09373 456.91708q-1.265625 0 -2.359375 -0.453125q-1.078125 -0.453125 -1.890625 -1.25q-0.8125 -0.8125 -1.265625 -1.90625q-0.453125 -1.109375 -0.453125 -2.375q0 -1.28125 0.453125 -2.359375q0.453125 -1.09375 1.265625 -1.890625q0.8125 -0.8125 1.890625 -1.265625q1.09375 -0.46875 2.359375 -0.46875q0.890625 0 1.65625 0.234375q0.78125 0.21875 1.421875 0.640625q0.640625 0.40625 1.15625 1.0l-1.21875 1.203125q-0.390625 -0.46875 -0.84375 -0.78125q-0.4375 -0.3125 -0.984375 -0.46875q-0.53125 -0.15625 -1.171875 -0.15625q-1.15625 0 -2.125 0.546875q-0.953125 0.53125 -1.515625 1.484375q-0.5625 0.953125 -0.5625 2.28125q0 1.3125 0.5625 2.28125q0.5625 0.96875 1.515625 1.515625q0.96875 0.53125 2.125 0.53125q0.703125 0 1.28125 -0.1875q0.59375 -0.203125 1.078125 -0.5625q0.5 -0.375 0.921875 -0.875l1.265625 1.21875q-0.53125 0.625 -1.234375 1.09375q-0.703125 0.46875 -1.546875 0.71875q-0.828125 0.25 -1.78125 0.25zm6.08815 -0.25l0 -11.453125l1.71875 0l0 3.140625l-0.09375 1.265625l0.09375 0q0.34375 -0.578125 1.03125 -0.96875q0.703125 -0.40625 1.546875 -0.40625q1.03125 0 1.703125 0.421875q0.6875 0.421875 1.015625 1.15625q0.34375 0.71875 0.34375 1.6875l0 5.15625l-1.71875 0l0 -4.921875q0 -0.65625 -0.25 -1.078125q-0.25 -0.421875 -0.65625 -0.625q-0.390625 -0.203125 -0.890625 -0.203125q-0.625 0 -1.109375 0.359375q-0.46875 0.34375 -0.75 0.921875q-0.265625 0.5625 -0.265625 1.1875l0 4.359375l-1.71875 0zm11.794891 0.25q-0.875 0 -1.5625 -0.34375q-0.671875 -0.359375 -1.0625 -0.96875q-0.390625 -0.625 -0.390625 -1.421875q0 -0.875 0.453125 -1.484375q0.453125 -0.609375 1.21875 -0.921875q0.765625 -0.328125 1.703125 -0.328125q0.515625 0 0.953125 0.078125q0.4375 0.0625 0.765625 0.171875q0.328125 0.09375 0.515625 0.203125l0 -0.4375q0 -0.796875 -0.578125 -1.265625q-0.5625 -0.484375 -1.484375 -0.484375q-0.625 0 -1.1875 0.28125q-0.546875 0.265625 -0.890625 0.75l-1.1875 -0.90625q0.359375 -0.5 0.859375 -0.84375q0.5 -0.359375 1.125 -0.546875q0.640625 -0.203125 1.328125 -0.203125q1.78125 0 2.734375 0.875q0.96875 0.875 0.96875 2.4375l0 5.109375l-1.6875 0l0 -1.015625l-0.09375 0q-0.203125 0.328125 -0.5625 0.625q-0.359375 0.28125 -0.859375 0.453125q-0.484375 0.1875 -1.078125 0.1875zm0.3125 -1.40625q0.671875 0 1.1875 -0.3125q0.515625 -0.328125 0.796875 -0.84375q0.296875 -0.515625 0.296875 -1.125q-0.34375 -0.203125 -0.859375 -0.34375q-0.5 -0.140625 -1.0625 -0.140625q-1.046875 0 -1.5 0.421875q-0.453125 0.40625 -0.453125 1.03125q0 0.578125 0.4375 0.953125q0.4375 0.359375 1.15625 0.359375zm5.876648 1.15625l0 -8.15625l1.625 0l0 1.109375l0.09375 0q0.359375 -0.578125 1.046875 -0.96875q0.703125 -0.40625 1.53125 -0.40625q1.5 0 2.25 0.890625q0.75 0.890625 0.75 2.375l0 5.15625l-1.703125 0l0 -4.921875q0 -1.0 -0.5 -1.453125q-0.5 -0.453125 -1.296875 -0.453125q-0.625 0 -1.09375 0.34375q-0.453125 0.34375 -0.71875 0.90625q-0.265625 0.546875 -0.265625 1.1875l0 4.390625l-1.71875 0zm12.871887 3.71875q-1.078125 0 -1.859375 -0.34375q-0.765625 -0.34375 -1.25 -0.890625q-0.46875 -0.53125 -0.6875 -1.09375l1.609375 -0.671875q0.25 0.640625 0.8125 1.046875q0.578125 0.40625 1.375 0.40625q1.140625 0 1.78125 -0.671875q0.640625 -0.671875 0.640625 -1.90625l0 -0.78125l-0.09375 0q-0.390625 0.5625 -1.0625 0.921875q-0.671875 0.34375 -1.546875 0.34375q-1.046875 0 -1.921875 -0.515625q-0.875 -0.53125 -1.390625 -1.484375q-0.515625 -0.953125 -0.515625 -2.234375q0 -1.296875 0.515625 -2.25q0.515625 -0.953125 1.390625 -1.484375q0.875 -0.53125 1.921875 -0.53125q0.875 0 1.546875 0.34375q0.671875 0.34375 1.0625 0.9375l0.09375 0l0 -1.015625l1.640625 0l0 7.71875q0 1.328125 -0.515625 2.25q-0.515625 0.9375 -1.4375 1.421875q-0.90625 0.484375 -2.109375 0.484375zm0.015625 -5.203125q0.640625 0 1.1875 -0.3125q0.5625 -0.3125 0.890625 -0.90625q0.328125 -0.609375 0.328125 -1.453125q0 -0.90625 -0.328125 -1.484375q-0.328125 -0.59375 -0.890625 -0.890625q-0.546875 -0.3125 -1.1875 -0.3125q-0.640625 0 -1.203125 0.3125q-0.546875 0.296875 -0.890625 0.890625q-0.328125 0.59375 -0.328125 1.484375q0 0.859375 0.328125 1.46875q0.34375 0.59375 0.890625 0.90625q0.5625 0.296875 1.203125 0.296875zm9.711273 1.734375q-1.203125 0 -2.15625 -0.546875q-0.9375 -0.5625 -1.46875 -1.53125q-0.53125 -0.984375 -0.53125 -2.234375q0 -1.171875 0.5 -2.15625q0.515625 -1.0 1.4375 -1.59375q0.921875 -0.609375 2.125 -0.609375q1.265625 0 2.15625 0.546875q0.890625 0.546875 1.34375 1.5q0.46875 0.9375 0.46875 2.125q0 0.171875 -0.015625 0.3125q0 0.140625 -0.015625 0.21875l-7.03125 0l0 -1.296875l5.34375 0q-0.015625 -0.296875 -0.15625 -0.640625q-0.140625 -0.34375 -0.421875 -0.625q-0.265625 -0.296875 -0.6875 -0.46875q-0.40625 -0.1875 -0.96875 -0.1875q-0.703125 0 -1.25 0.359375q-0.546875 0.359375 -0.859375 1.0q-0.296875 0.640625 -0.296875 1.484375q0 0.921875 0.34375 1.546875q0.359375 0.625 0.9375 0.953125q0.578125 0.3125 1.25 0.3125q0.8125 0 1.359375 -0.375q0.5625 -0.375 0.890625 -0.9375l1.421875 0.6875q-0.53125 0.96875 -1.453125 1.5625q-0.90625 0.59375 -2.265625 0.59375zm12.568649 0q-0.78125 0 -1.53125 -0.296875q-0.75 -0.296875 -1.34375 -0.90625q-0.59375 -0.609375 -0.875 -1.59375l1.609375 -0.65625q0.234375 0.859375 0.78125 1.328125q0.5625 0.46875 1.359375 0.46875q0.515625 0 0.96875 -0.21875q0.46875 -0.234375 0.75 -0.625q0.28125 -0.40625 0.28125 -0.921875q0 -0.515625 -0.296875 -0.90625q-0.28125 -0.40625 -0.78125 -0.625q-0.484375 -0.21875 -1.109375 -0.21875l-0.9375 0l0 -1.59375l0.859375 0q0.515625 0 0.9375 -0.171875q0.421875 -0.1875 0.671875 -0.546875q0.265625 -0.375 0.265625 -0.890625q0 -0.65625 -0.484375 -1.0625q-0.484375 -0.40625 -1.234375 -0.40625q-0.53125 0 -0.890625 0.203125q-0.359375 0.203125 -0.578125 0.515625q-0.21875 0.3125 -0.328125 0.640625l-1.578125 -0.65625q0.1875 -0.515625 0.609375 -1.046875q0.421875 -0.53125 1.109375 -0.890625q0.6875 -0.375 1.65625 -0.375q1.03125 0 1.796875 0.390625q0.78125 0.375 1.21875 1.046875q0.453125 0.671875 0.453125 1.53125q0 0.625 -0.21875 1.09375q-0.203125 0.46875 -0.53125 0.796875q-0.328125 0.3125 -0.703125 0.5l0 0.078125q0.515625 0.21875 0.921875 0.59375q0.40625 0.375 0.65625 0.890625q0.25 0.515625 0.25 1.1875q0 0.96875 -0.484375 1.734375q-0.484375 0.75 -1.34375 1.1875q-0.84375 0.421875 -1.90625 0.421875z" fill-rule="nonzero"/><path fill="#4285f4" d="m169.58473 395.29178l0 0c0 -19.89096 16.124802 -36.015747 36.015747 -36.015747l0 0c9.551971 0 18.712723 3.7944946 25.46698 10.548767c6.7542725 6.754242 10.548782 15.915009 10.548782 25.46698l0 0c0 19.89093 -16.124802 36.015747 -36.015762 36.015747l0 0c-19.890945 0 -36.015747 -16.124817 -36.015747 -36.015747z" fill-rule="evenodd"/><path fill="#f86734" d="m205.61751 407.29422l12.361191 -9.894104l2.749939 2.209198l-15.213348 11.902069l-15.247421 -11.902069l2.7840118 -2.1070557l12.565628 9.791962zm0.06814575 -4.3177795l-12.429352 -9.793488l-2.7839966 -2.209198l15.213348 -11.902069l15.247406 11.902069l-2.7839966 2.209198l-12.463409 9.793488z" fill-rule="evenodd"/><path fill="#000000" fill-opacity="0.0" d="m85.628494 127.55643l106.3307 0l0 19.02362l-106.3307 0z" fill-rule="evenodd"/><path fill="#000000" d="m94.522644 142.91643l0 -11.453125l3.65625 0q1.8125 0 3.109375 0.734375q1.3125 0.71875 2.015625 2.015625q0.71875 1.296875 0.71875 2.96875q0 1.6875 -0.71875 2.984375q-0.703125 1.296875 -2.015625 2.03125q-1.296875 0.71875 -3.109375 0.71875l-3.65625 0zm1.765625 -1.65625l1.84375 0q1.296875 0 2.21875 -0.484375q0.9375 -0.5 1.421875 -1.40625q0.484375 -0.921875 0.484375 -2.1875q0 -1.25 -0.484375 -2.15625q-0.484375 -0.921875 -1.421875 -1.40625q-0.921875 -0.5 -2.21875 -0.5l-1.84375 0l0 8.140625zm12.951889 1.90625q-1.203125 0 -2.15625 -0.546875q-0.9375 -0.5625 -1.46875 -1.53125q-0.53125 -0.984375 -0.53125 -2.234375q0 -1.171875 0.5 -2.15625q0.515625 -1.0 1.4375 -1.59375q0.921875 -0.609375 2.125 -0.609375q1.265625 0 2.15625 0.546875q0.890625 0.546875 1.34375 1.5q0.46875 0.9375 0.46875 2.125q0 0.171875 -0.015625 0.3125q0 0.140625 -0.015625 0.21875l-7.03125 0l0 -1.296875l5.34375 0q-0.015625 -0.296875 -0.15625 -0.640625q-0.140625 -0.34375 -0.421875 -0.625q-0.265625 -0.296875 -0.6875 -0.46875q-0.40625 -0.1875 -0.96875 -0.1875q-0.703125 0 -1.25 0.359375q-0.546875 0.359375 -0.859375 1.0q-0.296875 0.640625 -0.296875 1.484375q0 0.921875 0.34375 1.546875q0.359375 0.625 0.9375 0.953125q0.578125 0.3125 1.25 0.3125q0.8125 0 1.359375 -0.375q0.5625 -0.375 0.890625 -0.9375l1.421875 0.6875q-0.53125 0.96875 -1.453125 1.5625q-0.90625 0.59375 -2.265625 0.59375zm7.7900085 -0.25l-3.375 -8.15625l1.921875 0l2.28125 5.9375l0.09375 0l2.328125 -5.9375l1.890625 0l-3.40625 8.15625l-1.734375 0zm9.746017 0.25q-1.203125 0 -2.15625 -0.546875q-0.9375 -0.5625 -1.46875 -1.53125q-0.53125 -0.984375 -0.53125 -2.234375q0 -1.171875 0.5 -2.15625q0.515625 -1.0 1.4375 -1.59375q0.921875 -0.609375 2.125 -0.609375q1.265625 0 2.15625 0.546875q0.890625 0.546875 1.34375 1.5q0.46875 0.9375 0.46875 2.125q0 0.171875 -0.015625 0.3125q0 0.140625 -0.015625 0.21875l-7.03125 0l0 -1.296875l5.34375 0q-0.015625 -0.296875 -0.15625 -0.640625q-0.140625 -0.34375 -0.421875 -0.625q-0.265625 -0.296875 -0.6875 -0.46875q-0.40625 -0.1875 -0.96875 -0.1875q-0.703125 0 -1.25 0.359375q-0.546875 0.359375 -0.859375 1.0q-0.296875 0.640625 -0.296875 1.484375q0 0.921875 0.34375 1.546875q0.359375 0.625 0.9375 0.953125q0.578125 0.3125 1.25 0.3125q0.8125 0 1.359375 -0.375q0.5625 -0.375 0.890625 -0.9375l1.421875 0.6875q-0.53125 0.96875 -1.453125 1.5625q-0.90625 0.59375 -2.265625 0.59375zm5.496887 -0.25l0 -11.453125l1.71875 0l0 11.453125l-1.71875 0zm7.508499 0.25q-1.265625 0 -2.234375 -0.5625q-0.953125 -0.578125 -1.5 -1.5625q-0.53125 -0.984375 -0.53125 -2.203125q0 -1.21875 0.53125 -2.203125q0.546875 -0.984375 1.5 -1.5625q0.96875 -0.578125 2.234375 -0.578125q1.25 0 2.203125 0.59375q0.96875 0.578125 1.515625 1.5625q0.546875 0.96875 0.546875 2.1875q0 1.21875 -0.546875 2.203125q-0.546875 0.984375 -1.515625 1.5625q-0.953125 0.5625 -2.203125 0.5625zm0 -1.578125q0.671875 0 1.25 -0.328125q0.578125 -0.328125 0.9375 -0.9375q0.359375 -0.625 0.359375 -1.484375q0 -0.859375 -0.359375 -1.46875q-0.359375 -0.625 -0.9375 -0.953125q-0.578125 -0.328125 -1.25 -0.328125q-0.671875 0 -1.25 0.328125q-0.578125 0.328125 -0.953125 0.953125q-0.359375 0.609375 -0.359375 1.46875q0 0.859375 0.359375 1.484375q0.375 0.609375 0.953125 0.9375q0.59375 0.328125 1.25 0.328125zm5.7406464 4.78125l0 -11.609375l1.625 0l0 1.09375l0.09375 0q0.21875 -0.34375 0.59375 -0.65625q0.390625 -0.3125 0.890625 -0.5q0.515625 -0.203125 1.140625 -0.203125q1.125 0 2.0 0.5625q0.875 0.5625 1.390625 1.546875q0.53125 0.96875 0.53125 2.234375q0 1.265625 -0.53125 2.25q-0.515625 0.96875 -1.390625 1.53125q-0.875 0.546875 -2.0 0.546875q-0.921875 0 -1.609375 -0.40625q-0.6875 -0.421875 -1.015625 -0.9375l-0.09375 0l0.09375 1.140625l0 3.40625l-1.71875 0zm4.09375 -4.78125q0.640625 0 1.203125 -0.328125q0.5625 -0.34375 0.90625 -0.96875q0.34375 -0.625 0.34375 -1.453125q0 -0.84375 -0.34375 -1.453125q-0.34375 -0.625 -0.90625 -0.953125q-0.5625 -0.34375 -1.203125 -0.34375q-0.640625 0 -1.203125 0.34375q-0.5625 0.328125 -0.921875 0.953125q-0.34375 0.609375 -0.34375 1.453125q0 0.84375 0.34375 1.46875q0.359375 0.609375 0.921875 0.953125q0.5625 0.328125 1.203125 0.328125zm9.48027 1.578125q-1.203125 0 -2.15625 -0.546875q-0.9375 -0.5625 -1.46875 -1.53125q-0.53125 -0.984375 -0.53125 -2.234375q0 -1.171875 0.5 -2.15625q0.515625 -1.0 1.4375 -1.59375q0.921875 -0.609375 2.125 -0.609375q1.265625 0 2.15625 0.546875q0.890625 0.546875 1.34375 1.5q0.46875 0.9375 0.46875 2.125q0 0.171875 -0.015625 0.3125q0 0.140625 -0.015625 0.21875l-7.03125 0l0 -1.296875l5.34375 0q-0.015625 -0.296875 -0.15625 -0.640625q-0.140625 -0.34375 -0.421875 -0.625q-0.265625 -0.296875 -0.6875 -0.46875q-0.40625 -0.1875 -0.96875 -0.1875q-0.703125 0 -1.25 0.359375q-0.546875 0.359375 -0.859375 1.0q-0.296875 0.640625 -0.296875 1.484375q0 0.921875 0.34375 1.546875q0.359375 0.625 0.9375 0.953125q0.578125 0.3125 1.25 0.3125q0.8125 0 1.359375 -0.375q0.5625 -0.375 0.890625 -0.9375l1.421875 0.6875q-0.53125 0.96875 -1.453125 1.5625q-0.90625 0.59375 -2.265625 0.59375zm5.481262 -0.25l0 -8.15625l1.625 0l0 1.203125l0.09375 0q0.1875 -0.421875 0.546875 -0.734375q0.359375 -0.328125 0.828125 -0.515625q0.484375 -0.203125 1.0 -0.203125q0.328125 0 0.5625 0.046875q0.234375 0.046875 0.421875 0.125l0 1.78125q-0.296875 -0.125 -0.609375 -0.203125q-0.3125 -0.078125 -0.65625 -0.078125q-0.609375 0 -1.078125 0.328125q-0.46875 0.328125 -0.75 0.875q-0.265625 0.546875 -0.265625 1.21875l0 4.3125l-1.71875 0zm8.882782 0l4.328125 -11.453125l2.0 0l4.328125 11.453125l-1.9375 0l-2.90625 -8.078125l-0.4375 -1.3125l-0.09375 0l-0.421875 1.3125l-2.921875 8.078125l-1.9375 0zm5.1875 -2.9375l0 -1.640625l2.65625 0l0.578125 1.640625l-3.234375 0zm-3.125 0l0.578125 -1.640625l2.546875 0l0 1.640625l-3.125 0z" fill-rule="nonzero"/><path fill="#000000" fill-opacity="0.0" d="m213.11143 127.55643l106.3307 0l0 19.02362l-106.3307 0z" fill-rule="evenodd"/><path fill="#000000" d="m222.32559 142.91643l0 -11.453125l3.65625 0q1.8125 0 3.109375 0.734375q1.3125 0.71875 2.015625 2.015625q0.71875 1.296875 0.71875 2.96875q0 1.6875 -0.71875 2.984375q-0.703125 1.296875 -2.015625 2.03125q-1.296875 0.71875 -3.109375 0.71875l-3.65625 0zm1.765625 -1.65625l1.84375 0q1.296875 0 2.21875 -0.484375q0.9375 -0.5 1.421875 -1.40625q0.484375 -0.921875 0.484375 -2.1875q0 -1.25 -0.484375 -2.15625q-0.484375 -0.921875 -1.421875 -1.40625q-0.921875 -0.5 -2.21875 -0.5l-1.84375 0l0 8.140625zm12.951889 1.90625q-1.203125 0 -2.15625 -0.546875q-0.9375 -0.5625 -1.46875 -1.53125q-0.53125 -0.984375 -0.53125 -2.234375q0 -1.171875 0.5 -2.15625q0.515625 -1.0 1.4375 -1.59375q0.921875 -0.609375 2.125 -0.609375q1.265625 0 2.15625 0.546875q0.890625 0.546875 1.34375 1.5q0.46875 0.9375 0.46875 2.125q0 0.171875 -0.015625 0.3125q0 0.140625 -0.015625 0.21875l-7.03125 0l0 -1.296875l5.34375 0q-0.015625 -0.296875 -0.15625 -0.640625q-0.140625 -0.34375 -0.421875 -0.625q-0.265625 -0.296875 -0.6875 -0.46875q-0.40625 -0.1875 -0.96875 -0.1875q-0.703125 0 -1.25 0.359375q-0.546875 0.359375 -0.859375 1.0q-0.296875 0.640625 -0.296875 1.484375q0 0.921875 0.34375 1.546875q0.359375 0.625 0.9375 0.953125q0.578125 0.3125 1.25 0.3125q0.8125 0 1.359375 -0.375q0.5625 -0.375 0.890625 -0.9375l1.421875 0.6875q-0.53125 0.96875 -1.453125 1.5625q-0.90625 0.59375 -2.265625 0.59375zm7.7900085 -0.25l-3.375 -8.15625l1.921875 0l2.28125 5.9375l0.09375 0l2.328125 -5.9375l1.890625 0l-3.40625 8.15625l-1.734375 0zm9.746017 0.25q-1.203125 0 -2.15625 -0.546875q-0.9375 -0.5625 -1.46875 -1.53125q-0.53125 -0.984375 -0.53125 -2.234375q0 -1.171875 0.5 -2.15625q0.515625 -1.0 1.4375 -1.59375q0.921875 -0.609375 2.125 -0.609375q1.265625 0 2.15625 0.546875q0.890625 0.546875 1.34375 1.5q0.46875 0.9375 0.46875 2.125q0 0.171875 -0.015625 0.3125q0 0.140625 -0.015625 0.21875l-7.03125 0l0 -1.296875l5.34375 0q-0.015625 -0.296875 -0.15625 -0.640625q-0.140625 -0.34375 -0.421875 -0.625q-0.265625 -0.296875 -0.6875 -0.46875q-0.40625 -0.1875 -0.96875 -0.1875q-0.703125 0 -1.25 0.359375q-0.546875 0.359375 -0.859375 1.0q-0.296875 0.640625 -0.296875 1.484375q0 0.921875 0.34375 1.546875q0.359375 0.625 0.9375 0.953125q0.578125 0.3125 1.25 0.3125q0.8125 0 1.359375 -0.375q0.5625 -0.375 0.890625 -0.9375l1.421875 0.6875q-0.53125 0.96875 -1.453125 1.5625q-0.90625 0.59375 -2.265625 0.59375zm5.496887 -0.25l0 -11.453125l1.71875 0l0 11.453125l-1.71875 0zm7.508484 0.25q-1.265625 0 -2.234375 -0.5625q-0.953125 -0.578125 -1.5 -1.5625q-0.53125 -0.984375 -0.53125 -2.203125q0 -1.21875 0.53125 -2.203125q0.546875 -0.984375 1.5 -1.5625q0.96875 -0.578125 2.234375 -0.578125q1.25 0 2.203125 0.59375q0.96875 0.578125 1.515625 1.5625q0.546875 0.96875 0.546875 2.1875q0 1.21875 -0.546875 2.203125q-0.546875 0.984375 -1.515625 1.5625q-0.953125 0.5625 -2.203125 0.5625zm0 -1.578125q0.671875 0 1.25 -0.328125q0.578125 -0.328125 0.9375 -0.9375q0.359375 -0.625 0.359375 -1.484375q0 -0.859375 -0.359375 -1.46875q-0.359375 -0.625 -0.9375 -0.953125q-0.578125 -0.328125 -1.25 -0.328125q-0.671875 0 -1.25 0.328125q-0.578125 0.328125 -0.953125 0.953125q-0.359375 0.609375 -0.359375 1.46875q0 0.859375 0.359375 1.484375q0.375 0.609375 0.953125 0.9375q0.59375 0.328125 1.25 0.328125zm5.7406616 4.78125l0 -11.609375l1.625 0l0 1.09375l0.09375 0q0.21875 -0.34375 0.59375 -0.65625q0.390625 -0.3125 0.890625 -0.5q0.515625 -0.203125 1.140625 -0.203125q1.125 0 2.0 0.5625q0.875 0.5625 1.390625 1.546875q0.53125 0.96875 0.53125 2.234375q0 1.265625 -0.53125 2.25q-0.515625 0.96875 -1.390625 1.53125q-0.875 0.546875 -2.0 0.546875q-0.921875 0 -1.609375 -0.40625q-0.6875 -0.421875 -1.015625 -0.9375l-0.09375 0l0.09375 1.140625l0 3.40625l-1.71875 0zm4.09375 -4.78125q0.640625 0 1.203125 -0.328125q0.5625 -0.34375 0.90625 -0.96875q0.34375 -0.625 0.34375 -1.453125q0 -0.84375 -0.34375 -1.453125q-0.34375 -0.625 -0.90625 -0.953125q-0.5625 -0.34375 -1.203125 -0.34375q-0.640625 0 -1.203125 0.34375q-0.5625 0.328125 -0.921875 0.953125q-0.34375 0.609375 -0.34375 1.453125q0 0.84375 0.34375 1.46875q0.359375 0.609375 0.921875 0.953125q0.5625 0.328125 1.203125 0.328125zm9.480255 1.578125q-1.203125 0 -2.15625 -0.546875q-0.9375 -0.5625 -1.46875 -1.53125q-0.53125 -0.984375 -0.53125 -2.234375q0 -1.171875 0.5 -2.15625q0.515625 -1.0 1.4375 -1.59375q0.921875 -0.609375 2.125 -0.609375q1.265625 0 2.15625 0.546875q0.890625 0.546875 1.34375 1.5q0.46875 0.9375 0.46875 2.125q0 0.171875 -0.015625 0.3125q0 0.140625 -0.015625 0.21875l-7.03125 0l0 -1.296875l5.34375 0q-0.015625 -0.296875 -0.15625 -0.640625q-0.140625 -0.34375 -0.421875 -0.625q-0.265625 -0.296875 -0.6875 -0.46875q-0.40625 -0.1875 -0.96875 -0.1875q-0.703125 0 -1.25 0.359375q-0.546875 0.359375 -0.859375 1.0q-0.296875 0.640625 -0.296875 1.484375q0 0.921875 0.34375 1.546875q0.359375 0.625 0.9375 0.953125q0.578125 0.3125 1.25 0.3125q0.8125 0 1.359375 -0.375q0.5625 -0.375 0.890625 -0.9375l1.421875 0.6875q-0.53125 0.96875 -1.453125 1.5625q-0.90625 0.59375 -2.265625 0.59375zm5.481262 -0.25l0 -8.15625l1.625 0l0 1.203125l0.09375 0q0.1875 -0.421875 0.546875 -0.734375q0.359375 -0.328125 0.828125 -0.515625q0.484375 -0.203125 1.0 -0.203125q0.328125 0 0.5625 0.046875q0.234375 0.046875 0.421875 0.125l0 1.78125q-0.296875 -0.125 -0.609375 -0.203125q-0.3125 -0.078125 -0.65625 -0.078125q-0.609375 0 -1.078125 0.328125q-0.46875 0.328125 -0.75 0.875q-0.265625 0.546875 -0.265625 1.21875l0 4.3125l-1.71875 0zm10.425293 0l0 -11.453125l4.28125 0q0.953125 0 1.71875 0.40625q0.765625 0.390625 1.21875 1.078125q0.453125 0.6875 0.453125 1.546875q0 0.890625 -0.4375 1.515625q-0.421875 0.625 -1.109375 0.9375l0 0.078125q0.859375 0.296875 1.40625 1.0q0.546875 0.703125 0.546875 1.671875q0 0.96875 -0.484375 1.6875q-0.484375 0.71875 -1.3125 1.125q-0.828125 0.40625 -1.796875 0.40625l-4.484375 0zm0.953125 -5.078125l0 -1.5625l3.25 0q0.5625 0 0.953125 -0.234375q0.390625 -0.234375 0.59375 -0.609375q0.21875 -0.375 0.21875 -0.765625q0 -0.40625 -0.203125 -0.765625q-0.203125 -0.359375 -0.59375 -0.59375q-0.375 -0.234375 -0.90625 -0.234375l-2.5 0l0 8.21875l2.71875 0q0.578125 0 0.984375 -0.234375q0.421875 -0.25 0.625 -0.640625q0.21875 -0.40625 0.21875 -0.84375q0 -0.46875 -0.21875 -0.859375q-0.21875 -0.390625 -0.65625 -0.625q-0.421875 -0.25 -1.015625 -0.25l-3.46875 0z" fill-rule="nonzero"/><path fill="#000000" fill-opacity="0.0" d="m478.16656 124.490814l106.33069 0l0 19.02362l-106.33069 0z" fill-rule="evenodd"/><path fill="#000000" d="m501.21133 140.10081q-1.265625 0 -2.359375 -0.453125q-1.078125 -0.453125 -1.890625 -1.25q-0.8125 -0.8125 -1.265625 -1.90625q-0.453125 -1.109375 -0.453125 -2.375q0 -1.28125 0.453125 -2.359375q0.453125 -1.09375 1.265625 -1.890625q0.8125 -0.8125 1.890625 -1.265625q1.09375 -0.46875 2.359375 -0.46875q0.890625 0 1.65625 0.234375q0.78125 0.21875 1.421875 0.640625q0.640625 0.40625 1.15625 1.0l-1.21875 1.203125q-0.390625 -0.46875 -0.84375 -0.78125q-0.4375 -0.3125 -0.984375 -0.46875q-0.53125 -0.15625 -1.171875 -0.15625q-1.15625 0 -2.125 0.546875q-0.953125 0.53125 -1.515625 1.484375q-0.5625 0.953125 -0.5625 2.28125q0 1.3125 0.5625 2.28125q0.5625 0.96875 1.515625 1.515625q0.96875 0.53125 2.125 0.53125q0.703125 0 1.28125 -0.1875q0.59375 -0.203125 1.078125 -0.5625q0.5 -0.375 0.921875 -0.875l1.265625 1.21875q-0.53125 0.625 -1.234375 1.09375q-0.703125 0.46875 -1.546875 0.71875q-0.828125 0.25 -1.78125 0.25zm6.5293884 -0.25l0 -11.453125l1.765625 0l0 11.453125l-1.765625 0zm10.767517 0.25q-0.96875 0 -1.703125 -0.296875q-0.71875 -0.296875 -1.1875 -0.796875q-0.453125 -0.5 -0.671875 -1.09375l1.546875 -0.671875q0.28125 0.65625 0.8125 1.0q0.546875 0.34375 1.25 0.34375q0.640625 0 1.09375 -0.234375q0.46875 -0.234375 0.46875 -0.75q0 -0.34375 -0.21875 -0.5625q-0.203125 -0.21875 -0.5625 -0.359375q-0.359375 -0.140625 -0.828125 -0.25l-0.96875 -0.21875q-0.578125 -0.15625 -1.109375 -0.46875q-0.515625 -0.3125 -0.84375 -0.78125q-0.3125 -0.484375 -0.3125 -1.140625q0 -0.734375 0.421875 -1.265625q0.421875 -0.546875 1.140625 -0.828125q0.734375 -0.296875 1.5625 -0.296875q0.765625 0 1.390625 0.203125q0.640625 0.203125 1.109375 0.59375q0.46875 0.390625 0.75 0.96875l-1.5 0.671875q-0.265625 -0.546875 -0.734375 -0.75q-0.453125 -0.21875 -1.0 -0.21875q-0.609375 0 -1.015625 0.25q-0.40625 0.234375 -0.40625 0.640625q0 0.421875 0.359375 0.65625q0.359375 0.234375 0.890625 0.375l1.171875 0.296875q1.21875 0.296875 1.828125 0.921875q0.609375 0.609375 0.609375 1.5q0 0.78125 -0.453125 1.359375q-0.4375 0.578125 -1.203125 0.890625q-0.765625 0.3125 -1.6875 0.3125zm7.6365356 2.8125q-0.046875 0.109375 -0.109375 0.21875q-0.0625 0.125 -0.078125 0.171875l-1.828125 0q0.078125 -0.171875 0.21875 -0.5q0.15625 -0.3125 0.296875 -0.640625q0.109375 -0.203125 0.203125 -0.453125q0.109375 -0.234375 0.21875 -0.484375q0.125 -0.25 0.234375 -0.5l1.171875 -2.578125l0.375 -0.890625l2.25 -5.5625l1.90625 0l-4.21875 9.71875q-0.125 0.28125 -0.265625 0.578125q-0.125 0.3125 -0.234375 0.546875q-0.09375 0.25 -0.140625 0.375zm-0.140625 -3.296875l-3.5 -7.921875l1.921875 0l2.34375 5.5625l0.1875 0l-0.953125 2.359375zm8.96814 0.484375q-0.96875 0 -1.703125 -0.296875q-0.71875 -0.296875 -1.1875 -0.796875q-0.453125 -0.5 -0.671875 -1.09375l1.546875 -0.671875q0.28125 0.65625 0.8125 1.0q0.546875 0.34375 1.25 0.34375q0.640625 0 1.09375 -0.234375q0.46875 -0.234375 0.46875 -0.75q0 -0.34375 -0.21875 -0.5625q-0.203125 -0.21875 -0.5625 -0.359375q-0.359375 -0.140625 -0.828125 -0.25l-0.96875 -0.21875q-0.578125 -0.15625 -1.109375 -0.46875q-0.515625 -0.3125 -0.84375 -0.78125q-0.3125 -0.484375 -0.3125 -1.140625q0 -0.734375 0.421875 -1.265625q0.421875 -0.546875 1.140625 -0.828125q0.734375 -0.296875 1.5625 -0.296875q0.765625 0 1.390625 0.203125q0.640625 0.203125 1.109375 0.59375q0.46875 0.390625 0.75 0.96875l-1.5 0.671875q-0.265625 -0.546875 -0.734375 -0.75q-0.453125 -0.21875 -1.0 -0.21875q-0.609375 0 -1.015625 0.25q-0.40625 0.234375 -0.40625 0.640625q0 0.421875 0.359375 0.65625q0.359375 0.234375 0.890625 0.375l1.171875 0.296875q1.21875 0.296875 1.828125 0.921875q0.609375 0.609375 0.609375 1.5q0 0.78125 -0.453125 1.359375q-0.4375 0.578125 -1.203125 0.890625q-0.765625 0.3125 -1.6875 0.3125zm4.2127686 -8.40625l5.140625 0l0 1.5l-5.140625 0l0 -1.5zm1.421875 5.78125l0 -8.09375l1.71875 0l0 7.734375q0 0.609375 0.25 0.9375q0.25 0.3125 0.84375 0.3125q0.28125 0 0.5 -0.078125q0.234375 -0.09375 0.453125 -0.234375l0 1.6875q-0.265625 0.109375 -0.578125 0.171875q-0.296875 0.0625 -0.703125 0.0625q-1.140625 0 -1.8125 -0.65625q-0.671875 -0.671875 -0.671875 -1.84375zm8.79541 2.625q-1.203125 0 -2.15625 -0.546875q-0.9375 -0.5625 -1.46875 -1.53125q-0.53125 -0.984375 -0.53125 -2.234375q0 -1.171875 0.5 -2.15625q0.515625 -1.0 1.4375 -1.59375q0.921875 -0.609375 2.125 -0.609375q1.265625 0 2.15625 0.546875q0.890625 0.546875 1.34375 1.5q0.46875 0.9375 0.46875 2.125q0 0.171875 -0.015625 0.3125q0 0.140625 -0.015625 0.21875l-7.03125 0l0 -1.296875l5.34375 0q-0.015625 -0.296875 -0.15625 -0.640625q-0.140625 -0.34375 -0.421875 -0.625q-0.265625 -0.296875 -0.6875 -0.46875q-0.40625 -0.1875 -0.96875 -0.1875q-0.703125 0 -1.25 0.359375q-0.546875 0.359375 -0.859375 1.0q-0.296875 0.640625 -0.296875 1.484375q0 0.921875 0.34375 1.546875q0.359375 0.625 0.9375 0.953125q0.578125 0.3125 1.25 0.3125q0.8125 0 1.359375 -0.375q0.5625 -0.375 0.890625 -0.9375l1.421875 0.6875q-0.53125 0.96875 -1.453125 1.5625q-0.90625 0.59375 -2.265625 0.59375zm5.481262 -0.25l0 -8.15625l1.625 0l0 1.109375l0.09375 0q0.234375 -0.390625 0.625 -0.6875q0.390625 -0.3125 0.875 -0.5q0.484375 -0.1875 1.015625 -0.1875q0.90625 0 1.546875 0.4375q0.640625 0.4375 0.921875 1.09375q0.390625 -0.640625 1.078125 -1.078125q0.6875 -0.453125 1.6875 -0.453125q1.4375 0 2.140625 0.875q0.703125 0.875 0.703125 2.3125l0 5.234375l-1.71875 0l0 -4.9375q0 -1.0 -0.421875 -1.4375q-0.421875 -0.453125 -1.171875 -0.453125q-0.59375 0 -1.046875 0.328125q-0.4375 0.328125 -0.6875 0.890625q-0.25 0.546875 -0.25 1.234375l0 4.375l-1.71875 0l0 -4.9375q0 -0.984375 -0.4375 -1.4375q-0.421875 -0.453125 -1.203125 -0.453125q-0.5625 0 -1.0 0.34375q-0.4375 0.328125 -0.6875 0.890625q-0.25 0.546875 -0.25 1.234375l0 4.359375l-1.71875 0z" fill-rule="nonzero"/><g filter="url(#shadowFilter-g277a5fb5749_2_0.1)"><use xlink:href="#g277a5fb5749_2_0.1" transform=""/></g><defs><filter id="shadowFilter-g277a5fb5749_2_0.1" filterUnits="userSpaceOnUse"><feGaussianBlur in="SourceAlpha" stdDeviation="5.3333335" result="blur"/><feComponentTransfer in="blur" color-interpolation-filters="sRGB"><feFuncR type="linear" slope="0" intercept="0.0"/><feFuncG type="linear" slope="0" intercept="0.0"/><feFuncB type="linear" slope="0" intercept="0.0"/><feFuncA type="linear" slope="0.2196" intercept="0"/></feComponentTransfer></filter></defs><g id="g277a5fb5749_2_0.1"><path fill="#536dfe" d="m696.83856 215.50945l0 0c0 -6.7898254 5.5042725 -12.294067 12.294067 -12.294067l152.94586 0c3.26062 0 6.3876343 1.2952576 8.693237 3.6008453c2.305603 2.3055878 3.60083 5.4326324 3.60083 8.693222l0 118.66603c0 6.7898254 -5.5042114 12.294067 -12.294067 12.294067l-152.94586 0c-6.789795 0 -12.294067 -5.504242 -12.294067 -12.294067z" fill-rule="evenodd"/><path stroke="#4282f2" stroke-width="4.0" stroke-miterlimit="400.0" stroke-linecap="butt" d="m696.83856 215.50945l0 0c0 -6.7898254 5.5042725 -12.294067 12.294067 -12.294067l152.94586 0c3.26062 0 6.3876343 1.2952576 8.693237 3.6008453c2.305603 2.3055878 3.60083 5.4326324 3.60083 8.693222l0 118.66603c0 6.7898254 -5.5042114 12.294067 -12.294067 12.294067l-152.94586 0c-6.789795 0 -12.294067 -5.504242 -12.294067 -12.294067z" fill-rule="evenodd"/></g><path fill="#000000" fill-opacity="0.0" d="m733.1678 272.97693l104.87396 0l0 16.512512l-104.87396 0z" fill-rule="evenodd"/><path fill="#ffffff" d="m767.69586 293.8007q-1.6875 0 -3.140625 -0.609375q-1.453125 -0.609375 -2.53125 -1.6875q-1.078125 -1.078125 -1.6875 -2.53125q-0.609375 -1.46875 -0.609375 -3.15625q0 -1.703125 0.609375 -3.15625q0.609375 -1.453125 1.6875 -2.515625q1.078125 -1.078125 2.53125 -1.6875q1.453125 -0.609375 3.140625 -0.609375q1.1875 0 2.203125 0.296875q1.03125 0.296875 1.875 0.859375q0.859375 0.546875 1.5625 1.34375l-1.640625 1.59375q-0.515625 -0.625 -1.109375 -1.03125q-0.59375 -0.421875 -1.3125 -0.625q-0.703125 -0.21875 -1.5625 -0.21875q-1.53125 0 -2.8125 0.71875q-1.28125 0.703125 -2.046875 1.984375q-0.75 1.28125 -0.75 3.046875q0 1.75 0.75 3.046875q0.765625 1.28125 2.046875 2.0q1.28125 0.71875 2.8125 0.71875q0.9375 0 1.71875 -0.25q0.78125 -0.265625 1.4375 -0.75q0.65625 -0.5 1.21875 -1.15625l1.6875 1.625q-0.703125 0.828125 -1.65625 1.453125q-0.9375 0.609375 -2.046875 0.953125q-1.109375 0.34375 -2.375 0.34375zm13.009705 0q-1.6875 0 -2.96875 -0.765625q-1.28125 -0.765625 -2.015625 -2.078125q-0.71875 -1.3125 -0.71875 -2.9375q0 -1.625 0.71875 -2.9375q0.734375 -1.3125 2.015625 -2.078125q1.28125 -0.765625 2.96875 -0.765625q1.65625 0 2.9375 0.78125q1.28125 0.78125 2.0 2.078125q0.734375 1.296875 0.734375 2.921875q0 1.625 -0.734375 2.9375q-0.71875 1.3125 -2.0 2.078125q-1.28125 0.765625 -2.9375 0.765625zm0 -2.109375q0.890625 0 1.65625 -0.4375q0.765625 -0.4375 1.25 -1.25q0.484375 -0.828125 0.484375 -1.984375q0 -1.15625 -0.484375 -1.96875q-0.484375 -0.828125 -1.25 -1.265625q-0.765625 -0.4375 -1.65625 -0.4375q-0.90625 0 -1.6875 0.4375q-0.765625 0.4375 -1.25 1.265625q-0.484375 0.8125 -0.484375 1.96875q0 1.15625 0.484375 1.984375q0.484375 0.8125 1.265625 1.25q0.796875 0.4375 1.671875 0.4375zm12.434814 2.109375q-1.484375 0 -2.671875 -0.75q-1.1875 -0.75 -1.875 -2.046875q-0.6875 -1.296875 -0.6875 -2.984375q0 -1.6875 0.6875 -2.984375q0.6875 -1.296875 1.875 -2.046875q1.1875 -0.75 2.671875 -0.75q0.84375 0 1.53125 0.265625q0.6875 0.25 1.1875 0.671875q0.5 0.40625 0.765625 0.875l0.140625 0l-0.140625 -1.515625l0 -4.34375l2.28125 0l0 15.265625l-2.140625 0l0 -1.453125l-0.140625 0q-0.265625 0.453125 -0.765625 0.875q-0.5 0.40625 -1.1875 0.65625q-0.6875 0.265625 -1.53125 0.265625zm0.328125 -2.109375q0.859375 0 1.609375 -0.453125q0.765625 -0.453125 1.21875 -1.265625q0.46875 -0.828125 0.46875 -1.953125q0 -1.125 -0.46875 -1.953125q-0.453125 -0.828125 -1.21875 -1.265625q-0.75 -0.453125 -1.609375 -0.453125q-0.84375 0 -1.59375 0.453125q-0.75 0.4375 -1.21875 1.265625q-0.46875 0.828125 -0.46875 1.953125q0 1.109375 0.46875 1.9375q0.46875 0.828125 1.21875 1.28125q0.75 0.453125 1.59375 0.453125zm13.015869 2.109375q-1.59375 0 -2.859375 -0.75q-1.25 -0.75 -1.96875 -2.046875q-0.71875 -1.296875 -0.71875 -2.96875q0 -1.546875 0.6875 -2.875q0.6875 -1.328125 1.90625 -2.125q1.21875 -0.796875 2.828125 -0.796875q1.6875 0 2.859375 0.734375q1.1875 0.71875 1.796875 1.984375q0.625 1.25 0.625 2.828125q0 0.234375 -0.015625 0.421875q0 0.1875 -0.015625 0.296875l-9.375 0l0 -1.71875l7.125 0q-0.015625 -0.40625 -0.21875 -0.859375q-0.1875 -0.46875 -0.546875 -0.84375q-0.359375 -0.390625 -0.921875 -0.625q-0.546875 -0.25 -1.296875 -0.25q-0.9375 0 -1.671875 0.484375q-0.71875 0.46875 -1.125 1.328125q-0.40625 0.84375 -0.40625 1.984375q0 1.234375 0.46875 2.0625q0.484375 0.828125 1.25 1.265625q0.765625 0.421875 1.65625 0.421875q1.09375 0 1.828125 -0.5q0.734375 -0.5 1.15625 -1.25l1.90625 0.921875q-0.703125 1.265625 -1.921875 2.078125q-1.21875 0.796875 -3.03125 0.796875z" fill-rule="nonzero"/><path fill="#ffffff" d="m735.4624 319.45694l0 -10.875l2.171875 0l0 1.59375l0.125 0q0.265625 -0.546875 0.734375 -0.96875q0.484375 -0.4375 1.109375 -0.6875q0.640625 -0.265625 1.3125 -0.265625q0.453125 0 0.765625 0.0625q0.3125 0.046875 0.5625 0.15625l0 2.390625q-0.40625 -0.171875 -0.828125 -0.28125q-0.40625 -0.109375 -0.859375 -0.109375q-0.8125 0 -1.4375 0.4375q-0.625 0.4375 -1.0 1.171875q-0.359375 0.71875 -0.359375 1.609375l0 5.765625l-2.296875 0zm12.881348 0.34375q-1.59375 0 -2.859375 -0.75q-1.25 -0.75 -1.96875 -2.046875q-0.71875 -1.296875 -0.71875 -2.96875q0 -1.546875 0.6875 -2.875q0.6875 -1.328125 1.90625 -2.125q1.21875 -0.796875 2.828125 -0.796875q1.6875 0 2.859375 0.734375q1.1875 0.71875 1.796875 1.984375q0.625 1.25 0.625 2.828125q0 0.234375 -0.015625 0.421875q0 0.1875 -0.015625 0.296875l-9.375 0l0 -1.71875l7.125 0q-0.015625 -0.40625 -0.21875 -0.859375q-0.1875 -0.46875 -0.546875 -0.84375q-0.359375 -0.390625 -0.921875 -0.625q-0.546875 -0.25 -1.296875 -0.25q-0.9375 0 -1.671875 0.484375q-0.71875 0.46875 -1.125 1.328125q-0.40625 0.84375 -0.40625 1.984375q0 1.234375 0.46875 2.0625q0.484375 0.828125 1.25 1.265625q0.765625 0.421875 1.65625 0.421875q1.09375 0 1.828125 -0.5q0.734375 -0.5 1.15625 -1.25l1.90625 0.921875q-0.703125 1.265625 -1.921875 2.078125q-1.21875 0.796875 -3.03125 0.796875zm7.279358 4.265625l0 -15.484375l2.140625 0l0 1.46875l0.140625 0q0.296875 -0.46875 0.796875 -0.875q0.5 -0.421875 1.171875 -0.671875q0.6875 -0.265625 1.53125 -0.265625q1.484375 0 2.65625 0.75q1.171875 0.75 1.859375 2.046875q0.703125 1.296875 0.703125 2.984375q0 1.6875 -0.703125 2.984375q-0.6875 1.296875 -1.859375 2.046875q-1.171875 0.75 -2.65625 0.75q-1.25 0 -2.171875 -0.546875q-0.90625 -0.5625 -1.328125 -1.25l-0.140625 0l0.140625 1.515625l0 4.546875l-2.28125 0zm5.4375 -6.375q0.84375 0 1.59375 -0.453125q0.765625 -0.453125 1.21875 -1.28125q0.46875 -0.828125 0.46875 -1.9375q0 -1.125 -0.46875 -1.953125q-0.453125 -0.828125 -1.21875 -1.265625q-0.75 -0.453125 -1.59375 -0.453125q-0.859375 0 -1.609375 0.453125q-0.734375 0.4375 -1.21875 1.265625q-0.46875 0.828125 -0.46875 1.953125q0 1.125 0.46875 1.953125q0.484375 0.8125 1.21875 1.265625q0.75 0.453125 1.609375 0.453125zm12.798645 2.109375q-1.6875 0 -2.96875 -0.765625q-1.28125 -0.765625 -2.015625 -2.078125q-0.71875 -1.3125 -0.71875 -2.9375q0 -1.625 0.71875 -2.9375q0.734375 -1.3125 2.015625 -2.078125q1.28125 -0.765625 2.96875 -0.765625q1.65625 0 2.9375 0.78125q1.28125 0.78125 2.0 2.078125q0.734375 1.296875 0.734375 2.921875q0 1.625 -0.734375 2.9375q-0.71875 1.3125 -2.0 2.078125q-1.28125 0.765625 -2.9375 0.765625zm0 -2.109375q0.890625 0 1.65625 -0.4375q0.765625 -0.4375 1.25 -1.25q0.484375 -0.828125 0.484375 -1.984375q0 -1.15625 -0.484375 -1.96875q-0.484375 -0.828125 -1.25 -1.265625q-0.765625 -0.4375 -1.65625 -0.4375q-0.90625 0 -1.6875 0.4375q-0.765625 0.4375 -1.25 1.265625q-0.484375 0.8125 -0.484375 1.96875q0 1.15625 0.484375 1.984375q0.484375 0.8125 1.265625 1.25q0.796875 0.4375 1.671875 0.4375zm11.640625 2.109375q-1.296875 0 -2.265625 -0.390625q-0.953125 -0.40625 -1.578125 -1.078125q-0.609375 -0.671875 -0.921875 -1.453125l2.078125 -0.890625q0.375 0.859375 1.09375 1.328125q0.71875 0.453125 1.65625 0.453125q0.859375 0 1.46875 -0.296875q0.625 -0.3125 0.625 -1.015625q0 -0.453125 -0.296875 -0.734375q-0.28125 -0.296875 -0.765625 -0.484375q-0.484375 -0.203125 -1.09375 -0.34375l-1.296875 -0.296875q-0.78125 -0.203125 -1.46875 -0.609375q-0.6875 -0.421875 -1.125 -1.0625q-0.421875 -0.640625 -0.421875 -1.515625q0 -0.96875 0.5625 -1.6875q0.578125 -0.71875 1.53125 -1.09375q0.953125 -0.390625 2.0625 -0.390625q1.03125 0 1.875 0.265625q0.84375 0.265625 1.46875 0.796875q0.625 0.515625 0.984375 1.28125l-1.984375 0.890625q-0.359375 -0.71875 -0.984375 -1.0q-0.609375 -0.296875 -1.328125 -0.296875q-0.8125 0 -1.359375 0.34375q-0.546875 0.328125 -0.546875 0.859375q0 0.546875 0.484375 0.875q0.484375 0.3125 1.1875 0.5l1.578125 0.390625q1.609375 0.40625 2.421875 1.234375q0.8125 0.8125 0.8125 1.984375q0 1.046875 -0.59375 1.828125q-0.59375 0.78125 -1.609375 1.203125q-1.015625 0.40625 -2.25 0.40625zm6.52594 -0.34375l0 -10.875l2.296875 0l0 10.875l-2.296875 0zm1.15625 -12.484375q-0.640625 0 -1.109375 -0.453125q-0.453125 -0.453125 -0.453125 -1.09375q0 -0.65625 0.453125 -1.09375q0.46875 -0.4375 1.109375 -0.4375q0.65625 0 1.09375 0.4375q0.453125 0.4375 0.453125 1.09375q0 0.640625 -0.453125 1.09375q-0.4375 0.453125 -1.09375 0.453125zm3.1472778 1.609375l6.875 0l0 2.0l-6.875 0l0 -2.0zm1.90625 7.71875l0 -10.796875l2.296875 0l0 10.3125q0 0.796875 0.328125 1.234375q0.328125 0.421875 1.125 0.421875q0.390625 0 0.6875 -0.109375q0.296875 -0.125 0.59375 -0.296875l0 2.234375q-0.359375 0.15625 -0.765625 0.234375q-0.40625 0.09375 -0.96875 0.09375q-1.515625 0 -2.40625 -0.875q-0.890625 -0.890625 -0.890625 -2.453125zm11.881409 3.5q-1.6875 0 -2.96875 -0.765625q-1.28125 -0.765625 -2.015625 -2.078125q-0.71875 -1.3125 -0.71875 -2.9375q0 -1.625 0.71875 -2.9375q0.734375 -1.3125 2.015625 -2.078125q1.28125 -0.765625 2.96875 -0.765625q1.65625 0 2.9375 0.78125q1.28125 0.78125 2.0 2.078125q0.734375 1.296875 0.734375 2.921875q0 1.625 -0.734375 2.9375q-0.71875 1.3125 -2.0 2.078125q-1.28125 0.765625 -2.9375 0.765625zm0 -2.109375q0.890625 0 1.65625 -0.4375q0.765625 -0.4375 1.25 -1.25q0.484375 -0.828125 0.484375 -1.984375q0 -1.15625 -0.484375 -1.96875q-0.484375 -0.828125 -1.25 -1.265625q-0.765625 -0.4375 -1.65625 -0.4375q-0.90625 0 -1.6875 0.4375q-0.765625 0.4375 -1.25 1.265625q-0.484375 0.8125 -0.484375 1.96875q0 1.15625 0.484375 1.984375q0.484375 0.8125 1.265625 1.25q0.796875 0.4375 1.671875 0.4375zm7.5651855 1.765625l0 -10.875l2.171875 0l0 1.59375l0.125 0q0.265625 -0.546875 0.734375 -0.96875q0.484375 -0.4375 1.109375 -0.6875q0.640625 -0.265625 1.3125 -0.265625q0.453125 0 0.765625 0.0625q0.3125 0.046875 0.5625 0.15625l0 2.390625q-0.40625 -0.171875 -0.828125 -0.28125q-0.40625 -0.109375 -0.859375 -0.109375q-0.8125 0 -1.4375 0.4375q-0.625 0.4375 -1.0 1.171875q-0.359375 0.71875 -0.359375 1.609375l0 5.765625l-2.296875 0zm12.740723 4.078125q-0.078125 0.140625 -0.15625 0.296875q-0.0625 0.171875 -0.09375 0.234375l-2.4375 0q0.09375 -0.234375 0.296875 -0.671875q0.203125 -0.421875 0.40625 -0.84375q0.125 -0.28125 0.25 -0.609375q0.140625 -0.3125 0.296875 -0.65625q0.171875 -0.328125 0.328125 -0.65625l1.546875 -3.4375l0.5 -1.1875l3.0 -7.421875l2.53125 0l-5.625 12.96875q-0.140625 0.359375 -0.328125 0.765625q-0.1875 0.40625 -0.328125 0.734375q-0.125 0.328125 -0.1875 0.484375zm-0.171875 -4.390625l-4.671875 -10.5625l2.546875 0l3.125 7.421875l0.25 0l-1.25 3.140625z" fill-rule="nonzero"/><path fill="#eff7cf" d="m785.6211 249.31561l12.191895 -8.588089l2.7122192 1.9175873l-15.004883 10.330994l-15.038574 -10.330994l2.7459106 -1.8289337l12.393433 8.499435zm0.06726074 -3.7478333l-12.259094 -8.500748l-2.7458496 -1.9175873l15.004944 -10.330978l15.038513 10.330978l-2.7458496 1.9175873l-12.292664 8.500748z" fill-rule="evenodd"/><path fill="#ea4335" d="m788.1041 388.23364l-4.963196 0l0 10.034973l4.963196 0zm0 15.069824l-4.963196 0l0 5.034851l4.963196 0zm16.416687 7.534912l-37.79657 0l18.88092 -32.709167l18.91565 32.709167zm8.711609 5.06958l-27.627258 -47.77899l-27.627258 47.77899l55.254517 0z" fill-rule="evenodd"/></g></svg>